<?xml version="1.0" encoding="utf-8"?>
<!-- Generator: Adobe Illustrator 23.0.4, SVG Export Plug-In . SVG Version: 6.00 Build 0)  -->
<svg version="1.1" id="Layer_1" xmlns="http://www.w3.org/2000/svg" xmlns:xlink="http://www.w3.org/1999/xlink" x="0px" y="0px"
	 viewBox="0 0 130 18" style="enable-background:new 0 0 130 18;" xml:space="preserve">
<style type="text/css">
	.st0{fill:#BD7100;}
</style>
<path class="st0" d="M104.7,5.5c0.6,0.7,1.5,1.2,2.6,1.2c1.9,0,3.4-1.5,3.4-3.4S109.1,0,107.3,0c-1,0-2,0.5-2.6,1.2
	c-0.6-0.7-1.5-1.2-2.6-1.2c-1,0-2,0.5-2.6,1.2C99,0.5,98.1,0,97,0c-1.9,0-3.4,1.5-3.4,3.4c0,1.1,0.6,2.1,1.4,2.7
	c-0.8,0.6-1.4,1.6-1.4,2.7s0.6,2.1,1.4,2.7c-0.8,0.6-1.4,1.6-1.4,2.7c0,1.9,1.5,3.4,3.4,3.4c1,0,2-0.5,2.6-1.2
	c0.6,0.7,1.5,1.2,2.6,1.2c1,0,2-0.5,2.6-1.2c0.6,0.7,1.5,1.2,2.6,1.2c1.9,0,3.4-1.5,3.4-3.4s-1.5-3.4-3.4-3.4c-1,0-2,0.5-2.6,1.2
	c-0.2-0.2-0.4-0.4-0.6-0.6c0.8-0.6,1.4-1.6,1.4-2.7S105,6.6,104.2,6C104.3,5.9,104.5,5.7,104.7,5.5z M99.6,12.1
	c-0.2-0.2-0.4-0.4-0.6-0.6c0.2-0.2,0.4-0.4,0.6-0.6c0.2,0.2,0.4,0.4,0.6,0.6C100,11.6,99.8,11.8,99.6,12.1z M99.6,6.6
	C99.4,6.4,99.2,6.2,99,6c0.2-0.2,0.4-0.4,0.6-0.6c0.2,0.2,0.4,0.4,0.6,0.6C100,6.2,99.8,6.4,99.6,6.6z"/>
<path class="st0" d="M89.1,0c-1,0-2,0.5-2.6,1.2C85.9,0.5,85,0,84,0s-2,0.5-2.6,1.2C80.8,0.5,79.9,0,78.8,0c-1.9,0-3.4,1.5-3.4,3.4
	s1.5,3.4,3.4,3.4c1,0,2-0.5,2.6-1.2C81.6,5.8,81.8,6,82,6.2c-0.8,0.6-1.4,1.6-1.4,2.7s0.6,2.1,1.4,2.7c-0.8,0.6-1.4,1.6-1.4,2.7
	c0,1.9,1.5,3.4,3.4,3.4s3.4-1.5,3.4-3.4c0-1.1-0.6-2.1-1.4-2.7c0.8-0.6,1.4-1.6,1.4-2.7S86.8,6.8,86,6.2c0.2-0.2,0.4-0.4,0.6-0.6
	c0.6,0.7,1.5,1.2,2.6,1.2c1.9,0,3.4-1.5,3.4-3.4S91,0,89.1,0z"/>
<path class="st0" d="M55.1,3.4c0-1.9-1.5-3.4-3.4-3.4c-1.9,0-3.4,1.5-3.4,3.4c0,1.1,0.6,2.1,1.4,2.7c-0.8,0.6-1.4,1.6-1.4,2.7
	s0.6,2.1,1.4,2.7c-0.2,0.2-0.4,0.4-0.6,0.6c-0.6-0.7-1.5-1.2-2.6-1.2c-1.1,0-2,0.5-2.6,1.2c-0.2-0.2-0.4-0.4-0.6-0.6
	c0.8-0.6,1.4-1.6,1.4-2.7s-0.6-2.1-1.4-2.7c0.8-0.6,1.4-1.6,1.4-2.7c0-1.9-1.5-3.4-3.4-3.4s-3.4,1.5-3.4,3.4c0,1.1,0.6,2.1,1.4,2.7
	c-0.8,0.6-1.4,1.6-1.4,2.7s0.6,2.1,1.4,2.7c-0.8,0.6-1.4,1.6-1.4,2.7c0,1.9,1.5,3.4,3.4,3.4c1,0,2-0.5,2.6-1.2
	c0.6,0.7,1.5,1.2,2.6,1.2c1.1,0,2-0.5,2.6-1.2c0.6,0.7,1.5,1.2,2.6,1.2c1.9,0,3.4-1.5,3.4-3.4c0-1.1-0.6-2.1-1.4-2.7
	c0.8-0.6,1.4-1.6,1.4-2.7s-0.6-2.1-1.4-2.7C54.5,5.5,55.1,4.5,55.1,3.4z"/>
<path class="st0" d="M74.4,3.4C74.4,1.5,72.9,0,71,0c-1,0-2,0.5-2.6,1.2C67.8,0.5,66.9,0,65.9,0s-2,0.5-2.6,1.2
	C62.7,0.5,61.8,0,60.8,0c-1.9,0-3.4,1.5-3.4,3.4c0,1.1,0.6,2.1,1.4,2.7c-0.8,0.6-1.4,1.6-1.4,2.7s0.6,2.1,1.4,2.7
	c-0.8,0.6-1.4,1.6-1.4,2.7c0,1.9,1.5,3.4,3.4,3.4s3.4-1.5,3.4-3.4c0-1.1-0.6-2.1-1.4-2.7c0.8-0.6,1.4-1.6,1.4-2.7s-0.6-2.1-1.4-2.7
	c0.2-0.2,0.4-0.4,0.6-0.6C64,6.2,64.9,6.7,66,6.7c1,0,2-0.5,2.6-1.2c0.2,0.2,0.4,0.4,0.6,0.6c-0.8,0.6-1.4,1.6-1.4,2.7
	s0.6,2.1,1.4,2.7c-0.8,0.6-1.4,1.6-1.4,2.7c0,1.9,1.5,3.4,3.4,3.4s3.4-1.5,3.4-3.4c0-1.1-0.6-2.1-1.4-2.7c0.8-0.6,1.4-1.6,1.4-2.7
	S73.8,6.7,73,6.1C73.8,5.5,74.4,4.5,74.4,3.4z"/>
<path class="st0" d="M36.1,3.4c0-1.9-1.5-3.4-3.4-3.4c-1,0-2,0.5-2.6,1.2C29.6,0.5,28.7,0,27.7,0s-2,0.5-2.6,1.2
	C24.5,0.5,23.6,0,22.5,0c-1.9,0-3.4,1.5-3.4,3.4c0,1.1,0.6,2.1,1.4,2.7c-0.8,0.6-1.4,1.6-1.4,2.7s0.6,2.1,1.4,2.7
	c-0.8,0.6-1.4,1.6-1.4,2.7c0,1.9,1.5,3.4,3.4,3.4c1,0,2-0.5,2.6-1.2c0.6,0.7,1.5,1.2,2.6,1.2c1,0,2-0.5,2.6-1.2
	c0.6,0.7,1.5,1.2,2.6,1.2c1.9,0,3.4-1.5,3.4-3.4c0-1.1-0.6-2.1-1.4-2.7c0.8-0.6,1.4-1.6,1.4-2.7s-0.6-2.1-1.4-2.7
	C35.6,5.5,36.1,4.5,36.1,3.4z M25.1,12.1c-0.2-0.2-0.4-0.4-0.6-0.6c0.8-0.6,1.4-1.6,1.4-2.7s-0.6-2.1-1.4-2.7
	c0.2-0.2,0.4-0.4,0.6-0.6c0.6,0.7,1.5,1.2,2.6,1.2c1,0,2-0.5,2.6-1.2c0.2,0.2,0.4,0.4,0.6,0.6c-0.8,0.6-1.4,1.6-1.4,2.7
	s0.6,2.1,1.4,2.7c-0.2,0.2-0.4,0.4-0.6,0.6c-0.6-0.7-1.5-1.2-2.6-1.2C26.6,10.8,25.7,11.3,25.1,12.1z"/>
<path class="st0" d="M5.9,5.5c0.6,0.7,1.5,1.2,2.6,1.2s2-0.5,2.6-1.2c0.6,0.7,1.5,1.2,2.6,1.2c1.9,0,3.4-1.5,3.4-3.4S15.5,0,13.6,0
	c-1,0-2,0.5-2.6,1.2C10.4,0.5,9.5,0,8.5,0s-2,0.5-2.6,1.2C5.3,0.5,4.4,0,3.4,0C1.5,0,0,1.5,0,3.4c0,1.1,0.6,2.1,1.4,2.7
	C0.6,6.7,0,7.7,0,8.8s0.6,2.1,1.4,2.7C0.6,12.1,0,13.1,0,14.2c0,1.9,1.5,3.4,3.4,3.4c1,0,2-0.5,2.6-1.2c0.6,0.7,1.5,1.2,2.6,1.2
	s2-0.5,2.6-1.2c0.6,0.7,1.5,1.2,2.6,1.2c1.9,0,3.4-1.5,3.4-3.4s-1.5-3.4-3.4-3.4c-1,0-2,0.5-2.6,1.2c-0.6-0.7-1.5-1.2-2.6-1.2
	S6.6,11.3,6,12c-0.2-0.2-0.4-0.4-0.6-0.6c0.8-0.6,1.4-1.6,1.4-2.7s-0.6-2-1.5-2.6C5.5,5.9,5.7,5.7,5.9,5.5z"/>
<path class="st0" d="M126.5,0c-1,0-2,0.5-2.6,1.2c-0.6-0.7-1.5-1.2-2.6-1.2c-1.1,0-2,0.5-2.6,1.2c-0.6-0.7-1.5-1.2-2.6-1.2
	c-1.9,0-3.4,1.5-3.4,3.4c0,1.1,0.6,2.1,1.4,2.7c-0.8,0.6-1.4,1.6-1.4,2.7s0.6,2.1,1.4,2.7c-0.8,0.6-1.4,1.6-1.4,2.7
	c0,1.9,1.5,3.4,3.4,3.4s3.4-1.5,3.4-3.4c0-1.1-0.6-2.1-1.4-2.7c0.8-0.6,1.4-1.6,1.4-2.7s-0.6-2.1-1.4-2.7c0.2-0.2,0.4-0.4,0.6-0.6
	c0.6,0.7,1.5,1.2,2.6,1.2c1.1,0,2-0.5,2.6-1.2c0.6,0.7,1.5,1.2,2.6,1.2c1.9,0,3.4-1.5,3.4-3.4S128.3,0,126.5,0z"/>
</svg>
