<svg width="20" height="35" viewBox="0 0 20 35" fill="none" xmlns="http://www.w3.org/2000/svg">
<path d="M19.4667 34.9335C19.3333 35 19.2667 35 19.1333 35L5.8 35C5.6 35 5.4 34.9335 5.2 34.7338L0.2 29.7433C0.133333 29.6768 0.0666688 29.6103 0.0666688 29.4772L0.0666688 29.4106C0.0666688 29.3441 1.25517e-06 29.2776 1.26099e-06 29.211C1.26099e-06 29.211 1.26099e-06 29.211 1.26681e-06 29.1445C1.27262e-06 29.0779 1.28426e-06 28.9449 0.0666688 28.8783L5 17.3669L5 0.865017C5 0.399238 5.4 -1.27637e-06 5.86667 -1.23558e-06L19.1333 -7.57663e-08C19.6 -3.49691e-08 20 0.399239 20 0.865018L20 34.135C20 34.2681 20 34.3346 19.9333 34.4677C19.8 34.6673 19.6667 34.8004 19.4667 34.9335ZM6.13333 33.3365L17.1333 33.3365L13.8 30.0095L2.8 30.0095L6.13333 33.3365ZM18.2667 32.1388L18.2667 21.5589L15.1333 28.9449L18.2667 32.1388ZM2.06667 28.346L13.6 28.346L17.8667 18.365L6.33333 18.365L2.06667 28.346ZM6.6 1.73004L6.6 16.7015L18.2667 16.7015L18.2667 1.73004L6.6 1.73004Z" fill="black"/>
</svg>
