<svg width="20" height="35" viewBox="0 0 20 35" fill="none" xmlns="http://www.w3.org/2000/svg">
<path d="M19.4667 0.0665436C19.3333 3.8147e-06 19.2667 0 19.1333 0H5.8C5.6 0 5.4 0.0665436 5.2 0.266163L0.200003 5.25665C0.133335 5.32319 0.0666714 5.38974 0.0666714 5.52282V5.58936C0.0666714 5.6559 3.8147e-06 5.72244 3.8147e-06 5.78898C3.8147e-06 5.78898 3.8147e-06 5.78898 3.8147e-06 5.85552C3.8147e-06 5.92206 3.8147e-06 6.05514 0.0666714 6.12168L5 17.6331L5 34.135C5 34.6008 5.4 35 5.86667 35H19.1333C19.6 35 20 34.6008 20 34.135L20 0.865021C20 0.731941 20 0.665401 19.9333 0.532322C19.8 0.332703 19.6667 0.199623 19.4667 0.0665436ZM6.13334 1.6635H17.1333L13.8 4.9905L2.8 4.9905L6.13334 1.6635ZM18.2667 2.86122V13.4411L15.1333 6.05514L18.2667 2.86122ZM2.06667 6.654L13.6 6.654L17.8667 16.635H6.33333L2.06667 6.654ZM6.6 33.27L6.6 18.2985H18.2667L18.2667 33.27H6.6Z" fill="black"/>
</svg>
