<?xml version="1.0" encoding="utf-8"?>
<!-- Generator: Adobe Illustrator 23.0.4, SVG Export Plug-In . SVG Version: 6.00 Build 0)  -->
<svg version="1.1" id="Layer_1" xmlns="http://www.w3.org/2000/svg" xmlns:xlink="http://www.w3.org/1999/xlink" x="0px" y="0px"
	 viewBox="0 0 20 35" style="enable-background:new 0 0 20 35;" xml:space="preserve">
<path d="M19.5,34.9C19.3,35,19.3,35,19.1,35H5.8c-0.2,0-0.4-0.1-0.6-0.3l-5-5c-0.1-0.1-0.1-0.1-0.1-0.3v-0.1c0-0.1-0.1-0.1-0.1-0.2
	c0,0,0,0,0-0.1c0-0.1,0-0.2,0.1-0.3L5,17.4V0.9C5,0.4,5.4,0,5.9,0l13.3,0C19.6,0,20,0.4,20,0.9v33.3c0,0.1,0,0.2-0.1,0.3
	C19.8,34.7,19.7,34.8,19.5,34.9z M6.1,33.3h11L13.8,30h-11L6.1,33.3z M18.3,32.1V21.6l-3.1,7.4L18.3,32.1z M2.1,28.3h11.5l4.3-10
	H6.3L2.1,28.3z M6.6,1.7v15h11.7v-15H6.6z"/>
</svg>
