<?xml version="1.0" encoding="utf-8"?>
<!-- Generator: Adobe Illustrator 23.0.4, SVG Export Plug-In . SVG Version: 6.00 Build 0)  -->
<svg version="1.1" id="Layer_1" xmlns="http://www.w3.org/2000/svg" xmlns:xlink="http://www.w3.org/1999/xlink" x="0px" y="0px"
	 viewBox="0 0 20 35" style="enable-background:new 0 0 20 35;" xml:space="preserve">
<path d="M19.9,0.5C20,0.7,20,0.7,20,0.9v33.3c0,0.5-0.4,0.9-0.9,0.9H5.9C5.4,35,5,34.6,5,34.1V17.6L0.1,6.1C0,6.1,0,5.9,0,5.9
	c0-0.1,0-0.1,0-0.1c0-0.1,0.1-0.1,0.1-0.2V5.5c0-0.1,0.1-0.2,0.1-0.3l5-5C5.4,0.1,5.6,0,5.8,0l13.3,0c0.1,0,0.2,0,0.3,0.1
	C19.7,0.2,19.8,0.3,19.9,0.5z M2.8,5h11l3.3-3.3h-11L2.8,5z M15.1,6.1l3.1,7.4V2.9L15.1,6.1z M6.3,16.6h11.5l-4.3-10H2.1L6.3,16.6z
	 M18.3,33.3v-15H6.6v15H18.3z"/>
</svg>
