<?xml version="1.0" encoding="UTF-8"?> <svg xmlns="http://www.w3.org/2000/svg" width="117.897" height="59.578" viewBox="0 0 117.897 59.578"><title>cadence-hero</title><g><path d="M8.58,7.92a.73.73,0,0,0-.721-.72.647.647,0,0,0-.659.72V51.658a.681.681,0,0,0,.659.72.694.694,0,0,0,.721-.72V40.979h7.2V51.658A7.89,7.89,0,1,1,0,51.658V7.92A7.86,7.86,0,0,1,7.859,0a7.991,7.991,0,0,1,7.92,7.92V39.839H8.58Z"></path><path d="M32.819,7.439V58.678h-7.2v-14.1h-1.44v14.1h-7.2V7.439C16.979,3.36,20.759,0,24.9,0A7.939,7.939,0,0,1,32.819,7.439Zm-7.2.481a.693.693,0,0,0-.72-.72.636.636,0,0,0-.72.72V37.379h1.44Z"></path><path d="M49.8,8.46V50.7a7.952,7.952,0,0,1-7.86,7.98H34.019V.6h7.919A7.784,7.784,0,0,1,49.8,8.46Zm-7.2-.6a.626.626,0,0,0-.661-.659h-.719V51.538h.719a.738.738,0,0,0,.661-.78Z"></path><path d="M59.638,36.419V7.92a.693.693,0,0,0-.72-.72.662.662,0,0,0-.72.72V36.658a.786.786,0,0,0,.78.721h7.86v7.2h-7.86a.783.783,0,0,0-.78.72v6.36a.774.774,0,0,0,.72.72.693.693,0,0,0,.72-.72V45.6h7.2v6.059a7.9,7.9,0,0,1-7.86,7.92A8,8,0,0,1,51,51.658v-6.42a7.9,7.9,0,0,1,1.259-4.259A8.112,8.112,0,0,1,51,36.658V7.92a7.92,7.92,0,1,1,15.839,0v28.5Z"></path><path d="M83.878,8.46V58.678h-7.2V7.859a.626.626,0,0,0-.66-.659h-.78V58.678h-7.2V.6h7.979A8.057,8.057,0,0,1,81.6,2.88,7.844,7.844,0,0,1,83.878,8.46Z"></path><path d="M93.658,7.92a.73.73,0,0,0-.72-.72.647.647,0,0,0-.66.72V51.658a.681.681,0,0,0,.66.72.694.694,0,0,0,.72-.72V40.979h7.2V51.658a7.89,7.89,0,1,1-15.779,0V7.92A7.861,7.861,0,0,1,92.938,0a7.991,7.991,0,0,1,7.919,7.92V39.839h-7.2Z"></path><path d="M110.7,36.419V7.92a.693.693,0,0,0-.72-.72.662.662,0,0,0-.72.72V36.658a.786.786,0,0,0,.78.721h7.86v7.2h-7.86a.783.783,0,0,0-.78.72v6.36a.774.774,0,0,0,.72.72.693.693,0,0,0,.72-.72V45.6h7.2v6.059a7.9,7.9,0,0,1-7.86,7.92,8,8,0,0,1-7.979-7.92v-6.42a7.9,7.9,0,0,1,1.259-4.259,8.112,8.112,0,0,1-1.259-4.321V7.92a7.92,7.92,0,1,1,15.839,0v28.5Z"></path></g></svg> 