<?xml version="1.0" encoding="UTF-8"?> <svg xmlns="http://www.w3.org/2000/svg" width="169.256" height="253.678" viewBox="0 0 169.256 253.678"><title>cadence-spec1</title><g><path d="M8.58,7.92a.73.73,0,0,0-.72-.72.647.647,0,0,0-.66.72V51.658a.681.681,0,0,0,.66.72.693.693,0,0,0,.72-.72V40.979h7.2V51.658A7.89,7.89,0,1,1,0,51.658V7.92A7.861,7.861,0,0,1,7.86,0a7.99,7.99,0,0,1,7.919,7.92V39.839H8.58Z"></path><path d="M32.819.6V58.678h-7.2v-14.1H24.18v14.1h-7.2V.6h7.2V37.379h1.439V.6Z"></path><path d="M34.02,58.678V.6h7.2V58.678Z"></path><path d="M51,7.92a.73.73,0,0,0-.72-.72.647.647,0,0,0-.66.72V51.658a.681.681,0,0,0,.66.72.693.693,0,0,0,.72-.72V40.979h7.2V51.658a7.89,7.89,0,1,1-15.779,0V7.92A7.861,7.861,0,0,1,50.279,0,7.99,7.99,0,0,1,58.2,7.92V39.839H51Z"></path><path d="M59.4,58.618v-7.2h7.2v7.2Z"></path><path d="M83.578,7.439V58.678h-7.2v-14.1h-1.44v14.1h-7.2V7.439C67.738,3.36,71.519,0,75.658,0A7.939,7.939,0,0,1,83.578,7.439Zm-7.2.481a.693.693,0,0,0-.72-.72.636.636,0,0,0-.72.72V37.379h1.44Z"></path><path d="M84.778,58.618v-7.2h7.2v7.2Z"></path><path d="M109.257,45.238V51a7.7,7.7,0,0,1-7.86,7.68h-8.28V7.859a7.92,7.92,0,0,1,15.84.061V36.658a8.039,8.039,0,0,1-1.08,4.021A8.011,8.011,0,0,1,109.257,45.238Zm-8.94-37.379v29.52h.72a.693.693,0,0,0,.72-.721V7.92a.693.693,0,0,0-.72-.72A.721.721,0,0,0,100.317,7.859Zm1.741,37.379a.628.628,0,0,0-.661-.66h-1.08v6.96h1.08a.738.738,0,0,0,.661-.78Z"></path><path d="M110.456,51.658V7.92A7.912,7.912,0,0,1,118.376,0a8.2,8.2,0,0,1,5.64,2.28,7.81,7.81,0,0,1,2.4,5.64V51.658a8.015,8.015,0,0,1-8.04,7.92A7.912,7.912,0,0,1,110.456,51.658Zm7.2-43.738V51.658a.8.8,0,0,0,.84.72.73.73,0,0,0,.72-.72V7.92a.847.847,0,0,0-.84-.72A.775.775,0,0,0,117.656,7.92Z"></path><path d="M127.616,51.658V7.92A7.912,7.912,0,0,1,135.536,0a8.2,8.2,0,0,1,5.64,2.28,7.81,7.81,0,0,1,2.4,5.64V51.658a8.015,8.015,0,0,1-8.04,7.92A7.912,7.912,0,0,1,127.616,51.658Zm7.2-43.738V51.658a.8.8,0,0,0,.84.72.73.73,0,0,0,.72-.72V7.92a.847.847,0,0,0-.84-.72A.775.775,0,0,0,134.816,7.92Z"></path><path d="M169.256,7.92V58.678h-7.2V7.92a.774.774,0,0,0-.72-.72.73.73,0,0,0-.72.72V58.678h-7.2V7.92a.773.773,0,0,0-.72-.72.729.729,0,0,0-.719.72V58.678h-7.2V7.92A7.912,7.912,0,0,1,152.7,0a7.8,7.8,0,0,1,4.321,1.32A7.649,7.649,0,0,1,161.336,0,7.912,7.912,0,0,1,169.256,7.92Z"></path><path d="M23.189,72.92v28.8a7.976,7.976,0,0,1-7.918,7.859H14.49v14.1H7.29V73.1a8.235,8.235,0,0,1,2.28-5.7A7.81,7.81,0,0,1,15.21,65,7.963,7.963,0,0,1,23.189,72.92Zm-7.2,0a.774.774,0,0,0-.719-.72.73.73,0,0,0-.721.72v29.459h.721a.73.73,0,0,0,.719-.721Z"></path><path d="M40.229,72.439v51.239h-7.2v-14.1H31.59v14.1h-7.2V72.439C24.39,68.36,28.17,65,32.31,65A7.938,7.938,0,0,1,40.229,72.439Zm-7.2.481a.693.693,0,0,0-.719-.72.636.636,0,0,0-.72.72v29.459h1.439Z"></path><path d="M56.009,105.979a7.742,7.742,0,0,1,1.26,4.319v13.38h-7.2V110.3a.6.6,0,0,0-.479-.659h-.96v14.039h-7.2V72.92a7.92,7.92,0,0,1,15.84,0v28.8A7.908,7.908,0,0,1,56.009,105.979Zm-6.481-3.6a.72.72,0,0,0,.54-.721V72.92a.72.72,0,1,0-1.439,0v29.459Z"></path><path d="M74.309,72.439v51.239h-7.2v-14.1H65.669v14.1h-7.2V72.439c0-4.079,3.78-7.439,7.92-7.439A7.94,7.94,0,0,1,74.309,72.439Zm-7.2.481a.692.692,0,0,0-.719-.72.636.636,0,0,0-.72.72v29.459h1.439Z"></path><path d="M91.288,73.46V115.7a7.951,7.951,0,0,1-7.859,7.98h-7.92V65.6h7.92a7.782,7.782,0,0,1,7.859,7.859Zm-7.2-.6a.626.626,0,0,0-.66-.659h-.72v44.338h.72a.738.738,0,0,0,.66-.78Z"></path><path d="M92.488,123.678V65.6h7.2v58.077Z"></path><path d="M116.667,73.46V115.7a7.951,7.951,0,0,1-7.859,7.98h-7.92V65.6h7.92a7.782,7.782,0,0,1,7.859,7.859Zm-7.2-.6a.626.626,0,0,0-.66-.659h-.72v44.338h.72a.738.738,0,0,0,.66-.78Z"></path><path d="M133.646,73.46V115.7a7.951,7.951,0,0,1-7.859,7.98h-7.92V65.6h7.92a7.782,7.782,0,0,1,7.859,7.859Zm-7.2-.6a.626.626,0,0,0-.66-.659h-.72v44.338h.72a.738.738,0,0,0,.66-.78Z"></path><path d="M142.827,123.678a8.015,8.015,0,0,1-7.98-7.98V65.6h7.2v50.1a.794.794,0,0,0,.78.78h2.1v7.2Z"></path><path d="M154.766,101.419V72.92a.693.693,0,0,0-.72-.72.662.662,0,0,0-.72.72v28.738a.786.786,0,0,0,.78.721h7.86v7.2h-7.86a.783.783,0,0,0-.78.72v6.36a.775.775,0,0,0,.72.72.693.693,0,0,0,.72-.72V110.6h7.2v6.059a7.9,7.9,0,0,1-7.86,7.92,8,8,0,0,1-7.98-7.92v-6.42a7.886,7.886,0,0,1,1.261-4.259,8.1,8.1,0,0,1-1.261-4.321V72.92a7.92,7.92,0,0,1,15.84,0v28.5Z"></path><path d="M39.749,170.979a7.742,7.742,0,0,1,1.26,4.319v13.38h-7.2V175.3a.605.605,0,0,0-.48-.659h-.96v14.039h-7.2V137.92a7.92,7.92,0,0,1,15.84,0v28.8A7.908,7.908,0,0,1,39.749,170.979Zm-6.48-3.6a.722.722,0,0,0,.54-.721V137.92a.72.72,0,0,0-1.44,0v29.459Z"></path><path d="M58.049,137.439v51.239h-7.2v-14.1h-1.44v14.1h-7.2V137.439c0-4.079,3.78-7.439,7.92-7.439A7.94,7.94,0,0,1,58.049,137.439Zm-7.2.481a.693.693,0,0,0-.72-.72.636.636,0,0,0-.72.72v29.459h1.44Z"></path><path d="M69.809,130.6v7.2h-.9a.794.794,0,0,0-.78.78v50.1h-7.2v-50.1a.8.8,0,0,0-.781-.78h-.9v-7.2h.9a8.148,8.148,0,0,1,4.38,1.319,8,8,0,0,1,4.38-1.319Z"></path><path d="M71.009,188.618v-7.2h7.2v7.2Z"></path><path d="M95.188,137.439v51.239h-7.2v-14.1H86.548v14.1h-7.2V137.439c0-4.079,3.78-7.439,7.92-7.439A7.94,7.94,0,0,1,95.188,137.439Zm-7.2.481a.692.692,0,0,0-.719-.72.636.636,0,0,0-.72.72v29.459h1.439Z"></path><path d="M96.388,188.618v-7.2h7.2v7.2Z"></path><path d="M115.287,130.6v7.2h-.9a.8.8,0,0,0-.781.78v50.1h-7.2v-50.1a.794.794,0,0,0-.78-.78h-.9v-7.2h.9a8.148,8.148,0,0,1,4.38,1.319,7.994,7.994,0,0,1,4.38-1.319Z"></path><path d="M132.327,137.439v51.239h-7.2v-14.1h-1.439v14.1h-7.2V137.439c0-4.079,3.781-7.439,7.92-7.439A7.939,7.939,0,0,1,132.327,137.439Zm-7.2.481a.693.693,0,0,0-.72-.72.636.636,0,0,0-.719.72v29.459h1.439Z"></path><path d="M144.087,130.6v7.2h-.9a.8.8,0,0,0-.781.78v50.1h-7.2v-50.1a.794.794,0,0,0-.78-.78h-.9v-7.2h.9a8.153,8.153,0,0,1,4.38,1.319,7.991,7.991,0,0,1,4.38-1.319Z"></path><path d="M58.348,202.92a.774.774,0,0,0-.72-.72.662.662,0,0,0-.72.72v28.738a.693.693,0,0,0,.72.721h7.92v7.2h-7.92a.784.784,0,0,0-.78.72v13.38h-7.2v-13.44a7.793,7.793,0,0,1,1.321-4.319,7.687,7.687,0,0,1-1.261-4.2v-28.8a7.789,7.789,0,0,1,7.92-7.92,7.912,7.912,0,0,1,7.92,7.92v28.5h-7.2Z"></path><path d="M74.729,253.678a8.015,8.015,0,0,1-7.981-7.98V195.6h7.2v50.1a.794.794,0,0,0,.781.78h2.1v7.2Z"></path><path d="M93.867,202.439v51.239h-7.2v-14.1H85.228v14.1h-7.2V202.439c0-4.079,3.781-7.439,7.92-7.439A7.938,7.938,0,0,1,93.867,202.439Zm-7.2.481a.693.693,0,0,0-.72-.72.636.636,0,0,0-.719.72v29.459h1.439Z"></path><path d="M119.547,202.92v50.758h-7.2V202.92a.774.774,0,0,0-.72-.72.73.73,0,0,0-.72.72v50.758h-7.2V202.92a.773.773,0,0,0-.72-.72.729.729,0,0,0-.719.72v50.758h-7.2V202.92a7.912,7.912,0,0,1,7.92-7.92,7.8,7.8,0,0,1,4.321,1.32,7.649,7.649,0,0,1,4.319-1.32A7.912,7.912,0,0,1,119.547,202.92Z"></path></g></svg> 