<?xml version="1.0" encoding="UTF-8"?> <svg xmlns="http://www.w3.org/2000/svg" width="61.857" height="59.578" viewBox="0 0 61.857 59.578"><title>cadence-spec2</title><g><path d="M2.04,60V9.9a.794.794,0,0,0-.78-.78H.6v-7.2h.66A8.1,8.1,0,0,1,6.9,4.263,8.1,8.1,0,0,1,9.24,9.9V60Z" transform="translate(-0.6 -1.322)"></path><path d="M19.079,37.741V9.242a.693.693,0,0,0-.72-.72.662.662,0,0,0-.72.72V37.98a.786.786,0,0,0,.78.721h7.86v7.2h-7.86a.783.783,0,0,0-.78.72v6.36a.774.774,0,0,0,.72.72.693.693,0,0,0,.72-.72V46.921h7.2V52.98a7.9,7.9,0,0,1-7.86,7.92,8,8,0,0,1-7.98-7.92V46.561A7.9,7.9,0,0,1,11.7,42.3a8.1,8.1,0,0,1-1.26-4.321V9.242a7.92,7.92,0,1,1,15.84,0v28.5Z" transform="translate(-0.6 -1.322)"></path><path d="M45.418,45.9h-2.1v7.08a7.978,7.978,0,0,1-7.86,7.92H35.4a7.99,7.99,0,0,1-7.92-7.92V46.561A7.887,7.887,0,0,1,28.74,42.3a8.253,8.253,0,0,1-1.261-4.321V9.242A8,8,0,0,1,29.7,3.662a8.029,8.029,0,0,1,5.7-2.34,7.912,7.912,0,0,1,7.92,7.92V35.161h-7.2V9.242a.693.693,0,0,0-.72-.72.636.636,0,0,0-.72.72V37.98a.786.786,0,0,0,.78.721h.66V36.3h7.2v2.4h2.1Zm-9.3,7.08V45.9h-.66a.734.734,0,0,0-.78.661V52.98a.775.775,0,0,0,.72.72A.73.73,0,0,0,36.119,52.98Z" transform="translate(-0.6 -1.322)"></path><path d="M62.458,8.762V60h-7.2V45.9H53.818V60h-7.2V8.762c0-4.079,3.78-7.44,7.92-7.44A7.94,7.94,0,0,1,62.458,8.762Zm-7.2.48a.692.692,0,0,0-.719-.72.636.636,0,0,0-.72.72V38.7h1.439Z" transform="translate(-0.6 -1.322)"></path></g></svg> 