<?xml version="1.0" encoding="UTF-8"?> <svg xmlns="http://www.w3.org/2000/svg" width="130" height="18" viewBox="0 0 130 18" fill="none"><path d="M104.7 5.5C105.3 6.2 106.2 6.7 107.3 6.7C109.2 6.7 110.7 5.2 110.7 3.3C110.7 1.4 109.1 0 107.3 0C106.3 0 105.3 0.5 104.7 1.2C104.1 0.5 103.2 0 102.1 0C101.1 0 100.1 0.5 99.5001 1.2C99.0001 0.5 98.1001 0 97.0001 0C95.1001 0 93.6001 1.5 93.6001 3.4C93.6001 4.5 94.2001 5.5 95.0001 6.1C94.2001 6.7 93.6001 7.7 93.6001 8.8C93.6001 9.9 94.2001 10.9 95.0001 11.5C94.2001 12.1 93.6001 13.1 93.6001 14.2C93.6001 16.1 95.1001 17.6 97.0001 17.6C98.0001 17.6 99.0001 17.1 99.6001 16.4C100.2 17.1 101.1 17.6 102.2 17.6C103.2 17.6 104.2 17.1 104.8 16.4C105.4 17.1 106.3 17.6 107.4 17.6C109.3 17.6 110.8 16.1 110.8 14.2C110.8 12.3 109.3 10.8 107.4 10.8C106.4 10.8 105.4 11.3 104.8 12C104.6 11.8 104.4 11.6 104.2 11.4C105 10.8 105.6 9.8 105.6 8.7C105.6 7.6 105 6.6 104.2 6C104.3 5.9 104.5 5.7 104.7 5.5ZM99.6001 12.1C99.4001 11.9 99.2001 11.7 99.0001 11.5C99.2001 11.3 99.4001 11.1 99.6001 10.9C99.8001 11.1 100 11.3 100.2 11.5C100 11.6 99.8001 11.8 99.6001 12.1ZM99.6001 6.6C99.4001 6.4 99.2001 6.2 99.0001 6C99.2001 5.8 99.4001 5.6 99.6001 5.4C99.8001 5.6 100 5.8 100.2 6C100 6.2 99.8001 6.4 99.6001 6.6Z" fill="#F1EDE3"></path><path d="M89.0999 0C88.0999 0 87.0999 0.5 86.4999 1.2C85.8999 0.5 84.9999 0 83.9999 0C82.9999 0 81.9999 0.5 81.3999 1.2C80.7999 0.5 79.8999 0 78.7999 0C76.8999 0 75.3999 1.5 75.3999 3.4C75.3999 5.3 76.8999 6.8 78.7999 6.8C79.7999 6.8 80.7999 6.3 81.3999 5.6C81.5999 5.8 81.7999 6 81.9999 6.2C81.1999 6.8 80.5999 7.8 80.5999 8.9C80.5999 10 81.1999 11 81.9999 11.6C81.1999 12.2 80.5999 13.2 80.5999 14.3C80.5999 16.2 82.0999 17.7 83.9999 17.7C85.8999 17.7 87.3999 16.2 87.3999 14.3C87.3999 13.2 86.7999 12.2 85.9999 11.6C86.7999 11 87.3999 10 87.3999 8.9C87.3999 7.8 86.7999 6.8 85.9999 6.2C86.1999 6 86.3999 5.8 86.5999 5.6C87.1999 6.3 88.0999 6.8 89.1999 6.8C91.0999 6.8 92.5999 5.3 92.5999 3.4C92.5999 1.5 90.9999 0 89.0999 0Z" fill="#F1EDE3"></path><path d="M55.0999 3.4C55.0999 1.5 53.5999 0 51.6999 0C49.7999 0 48.2999 1.5 48.2999 3.4C48.2999 4.5 48.8999 5.5 49.6999 6.1C48.8999 6.7 48.2999 7.7 48.2999 8.8C48.2999 9.9 48.8999 10.9 49.6999 11.5C49.4999 11.7 49.2999 11.9 49.0999 12.1C48.4999 11.4 47.5999 10.9 46.4999 10.9C45.3999 10.9 44.4999 11.4 43.8999 12.1C43.6999 11.9 43.4999 11.7 43.2999 11.5C44.0999 10.9 44.6999 9.9 44.6999 8.8C44.6999 7.7 44.0999 6.7 43.2999 6.1C44.0999 5.5 44.6999 4.5 44.6999 3.4C44.6999 1.5 43.1999 0 41.2999 0C39.3999 0 37.8999 1.5 37.8999 3.4C37.8999 4.5 38.4999 5.5 39.2999 6.1C38.4999 6.7 37.8999 7.7 37.8999 8.8C37.8999 9.9 38.4999 10.9 39.2999 11.5C38.4999 12.1 37.8999 13.1 37.8999 14.2C37.8999 16.1 39.3999 17.6 41.2999 17.6C42.2999 17.6 43.2999 17.1 43.8999 16.4C44.4999 17.1 45.3999 17.6 46.4999 17.6C47.5999 17.6 48.4999 17.1 49.0999 16.4C49.6999 17.1 50.5999 17.6 51.6999 17.6C53.5999 17.6 55.0999 16.1 55.0999 14.2C55.0999 13.1 54.4999 12.1 53.6999 11.5C54.4999 10.9 55.0999 9.9 55.0999 8.8C55.0999 7.7 54.4999 6.7 53.6999 6.1C54.4999 5.5 55.0999 4.5 55.0999 3.4Z" fill="#F1EDE3"></path><path d="M74.3999 3.4C74.3999 1.5 72.8999 0 70.9999 0C69.9999 0 68.9999 0.5 68.3999 1.2C67.7999 0.5 66.8999 0 65.8999 0C64.8999 0 63.8999 0.5 63.2999 1.2C62.6999 0.5 61.7999 0 60.7999 0C58.8999 0 57.3999 1.5 57.3999 3.4C57.3999 4.5 57.9999 5.5 58.7999 6.1C57.9999 6.7 57.3999 7.7 57.3999 8.8C57.3999 9.9 57.9999 10.9 58.7999 11.5C57.9999 12.1 57.3999 13.1 57.3999 14.2C57.3999 16.1 58.8999 17.6 60.7999 17.6C62.6999 17.6 64.1999 16.1 64.1999 14.2C64.1999 13.1 63.5999 12.1 62.7999 11.5C63.5999 10.9 64.1999 9.9 64.1999 8.8C64.1999 7.7 63.5999 6.7 62.7999 6.1C62.9999 5.9 63.1999 5.7 63.3999 5.5C63.9999 6.2 64.8999 6.7 65.9999 6.7C66.9999 6.7 67.9999 6.2 68.5999 5.5C68.7999 5.7 68.9999 5.9 69.1999 6.1C68.3999 6.7 67.7999 7.7 67.7999 8.8C67.7999 9.9 68.3999 10.9 69.1999 11.5C68.3999 12.1 67.7999 13.1 67.7999 14.2C67.7999 16.1 69.2999 17.6 71.1999 17.6C73.0999 17.6 74.5999 16.1 74.5999 14.2C74.5999 13.1 73.9999 12.1 73.1999 11.5C73.9999 10.9 74.5999 9.9 74.5999 8.8C74.5999 7.7 73.7999 6.7 72.9999 6.1C73.7999 5.5 74.3999 4.5 74.3999 3.4Z" fill="#F1EDE3"></path><path d="M36.1001 3.4C36.1001 1.5 34.6001 0 32.7001 0C31.7001 0 30.7001 0.5 30.1001 1.2C29.6001 0.5 28.7001 0 27.7001 0C26.7001 0 25.7001 0.5 25.1001 1.2C24.5001 0.5 23.6001 0 22.5001 0C20.6001 0 19.1001 1.5 19.1001 3.4C19.1001 4.5 19.7001 5.5 20.5001 6.1C19.7001 6.7 19.1001 7.7 19.1001 8.8C19.1001 9.9 19.7001 10.9 20.5001 11.5C19.7001 12.1 19.1001 13.1 19.1001 14.2C19.1001 16.1 20.6001 17.6 22.5001 17.6C23.5001 17.6 24.5001 17.1 25.1001 16.4C25.7001 17.1 26.6001 17.6 27.7001 17.6C28.7001 17.6 29.7001 17.1 30.3001 16.4C30.9001 17.1 31.8001 17.6 32.9001 17.6C34.8001 17.6 36.3001 16.1 36.3001 14.2C36.3001 13.1 35.7001 12.1 34.9001 11.5C35.7001 10.9 36.3001 9.9 36.3001 8.8C36.3001 7.7 35.7001 6.7 34.9001 6.1C35.6001 5.5 36.1001 4.5 36.1001 3.4ZM25.1001 12.1C24.9001 11.9 24.7001 11.7 24.5001 11.5C25.3001 10.9 25.9001 9.9 25.9001 8.8C25.9001 7.7 25.3001 6.7 24.5001 6.1C24.7001 5.9 24.9001 5.7 25.1001 5.5C25.7001 6.2 26.6001 6.7 27.7001 6.7C28.7001 6.7 29.7001 6.2 30.3001 5.5C30.5001 5.7 30.7001 5.9 30.9001 6.1C30.1001 6.7 29.5001 7.7 29.5001 8.8C29.5001 9.9 30.1001 10.9 30.9001 11.5C30.7001 11.7 30.5001 11.9 30.3001 12.1C29.7001 11.4 28.8001 10.9 27.7001 10.9C26.6001 10.8 25.7001 11.3 25.1001 12.1Z" fill="#F1EDE3"></path><path d="M5.9 5.5C6.5 6.2 7.4 6.7 8.5 6.7C9.6 6.7 10.5 6.2 11.1 5.5C11.7 6.2 12.6 6.7 13.7 6.7C15.6 6.7 17.1 5.2 17.1 3.3C17.1 1.4 15.5 0 13.6 0C12.6 0 11.6 0.5 11 1.2C10.4 0.5 9.5 0 8.5 0C7.5 0 6.5 0.5 5.9 1.2C5.3 0.5 4.4 0 3.4 0C1.5 0 0 1.5 0 3.4C0 4.5 0.6 5.5 1.4 6.1C0.6 6.7 0 7.7 0 8.8C0 9.9 0.6 10.9 1.4 11.5C0.6 12.1 0 13.1 0 14.2C0 16.1 1.5 17.6 3.4 17.6C4.4 17.6 5.4 17.1 6 16.4C6.6 17.1 7.5 17.6 8.6 17.6C9.7 17.6 10.6 17.1 11.2 16.4C11.8 17.1 12.7 17.6 13.8 17.6C15.7 17.6 17.2 16.1 17.2 14.2C17.2 12.3 15.7 10.8 13.8 10.8C12.8 10.8 11.8 11.3 11.2 12C10.6 11.3 9.7 10.8 8.6 10.8C7.5 10.8 6.6 11.3 6 12C5.8 11.8 5.6 11.6 5.4 11.4C6.2 10.8 6.8 9.8 6.8 8.7C6.8 7.6 6.2 6.7 5.3 6.1C5.5 5.9 5.7 5.7 5.9 5.5Z" fill="#F1EDE3"></path><path d="M126.5 0C125.5 0 124.5 0.5 123.9 1.2C123.3 0.5 122.4 0 121.3 0C120.2 0 119.3 0.5 118.7 1.2C118.1 0.5 117.2 0 116.1 0C114.2 0 112.7 1.5 112.7 3.4C112.7 4.5 113.3 5.5 114.1 6.1C113.3 6.7 112.7 7.7 112.7 8.8C112.7 9.9 113.3 10.9 114.1 11.5C113.3 12.1 112.7 13.1 112.7 14.2C112.7 16.1 114.2 17.6 116.1 17.6C118 17.6 119.5 16.1 119.5 14.2C119.5 13.1 118.9 12.1 118.1 11.5C118.9 10.9 119.5 9.9 119.5 8.8C119.5 7.7 118.9 6.7 118.1 6.1C118.3 5.9 118.5 5.7 118.7 5.5C119.3 6.2 120.2 6.7 121.3 6.7C122.4 6.7 123.3 6.2 123.9 5.5C124.5 6.2 125.4 6.7 126.5 6.7C128.4 6.7 129.9 5.2 129.9 3.3C129.9 1.4 128.3 0 126.5 0Z" fill="#F1EDE3"></path></svg> 