<?xml version="1.0" encoding="UTF-8"?> <svg xmlns="http://www.w3.org/2000/svg" width="36.417" height="17.895" viewBox="0 0 36.417 17.895"><title>fidget-spec2</title><g><path d="M3.766,8.216v.791a3.316,3.316,0,1,1-.9,0V8.216A2.509,2.509,0,1,1,5.385,4.33l.264-.924H7.316v.9H6.333l-.588,2.1H5.732A2.5,2.5,0,0,1,3.766,8.216ZM3.31,9.871a2.417,2.417,0,1,0,2.422,2.422A2.421,2.421,0,0,0,3.31,9.871Zm0-2.507a1.613,1.613,0,1,0,0-3.226,1.613,1.613,0,0,0,0,3.226Zm0,3.538a1.392,1.392,0,1,1-1.391,1.391A1.392,1.392,0,0,1,3.31,10.9Zm0,.9a.494.494,0,0,0-.492.491.5.5,0,0,0,.492.492.494.494,0,0,0,.492-.492A.486.486,0,0,0,3.31,11.8Z"></path><path d="M13.005,6.093l1.3,2.326h-.672A3.351,3.351,0,1,1,9.707,3.382a2.088,2.088,0,0,1-.516-1.343,2.027,2.027,0,1,1,4.054,0,1.988,1.988,0,0,1-2.039,2.015h-.324a2.453,2.453,0,1,0,0,4.9,2.4,2.4,0,0,0,2.063-1.175L11.482,5.217H15.2v.876ZM10.1,2.039a1.121,1.121,0,0,0,1.055,1.128,1.166,1.166,0,0,0,1.2-1.128A1.13,1.13,0,0,0,11.206.912,1.1,1.1,0,0,0,10.1,2.039Zm5.121,6.38v1.3H14.3v-1.3Z"></path><path d="M22.352,16.131a3.5,3.5,0,0,1-1.128,1.032,6.049,6.049,0,0,1-5.769,0,3.5,3.5,0,0,1-1.127-1.032,2.709,2.709,0,0,1-.468-1.559,2.767,2.767,0,0,1,.468-1.559,3.338,3.338,0,0,1,1.127-1.019,6.049,6.049,0,0,1,5.769,0,3.831,3.831,0,0,1,.7.5V8.827a3.311,3.311,0,1,1,0-4.557V3.406h.9V14.572A2.716,2.716,0,0,1,22.352,16.131Zm-.432-1.559a2.016,2.016,0,0,0-1.151-1.8,5.134,5.134,0,0,0-4.858,0,1.991,1.991,0,0,0,0,3.61,5.126,5.126,0,0,0,4.858,0A2.032,2.032,0,0,0,21.92,14.572Zm0-7.807v-.42a2.416,2.416,0,1,0,0,.42Z"></path><path d="M24.7,4.294V6.105h-.9V4.294ZM24.7,7V8.815h-.9V7Zm2.579-2.71H24.7V3.406h2.579ZM30.3,7H29.133V8.815h-.9V7H24.7v-.9h3.538V5.1h.9V6.105H30.3ZM24.7,8.815h3.538v.9H24.7Z"></path><path d="M36.417,9.715H32.339v2.051h-.9V8.815h3.25l-1.2-1.7a2.636,2.636,0,0,1-.444.048A1.955,1.955,0,1,1,35,5.205a1.98,1.98,0,0,1-.7,1.5ZM33.046,6.261a1.056,1.056,0,1,0-1.055-1.056A1.058,1.058,0,0,0,33.046,6.261Zm3.215-1.955H34.786v-.9h1.475Z"></path></g></svg> 