<?xml version="1.0" encoding="UTF-8"?> <svg xmlns="http://www.w3.org/2000/svg" width="164.31" height="67.31" viewBox="0 0 164.31 67.31"><title>fidget-spec1</title><g><path d="M18.14,3.238V9.547h-.9v-.9a3.317,3.317,0,1,1,0-4.521V3.238Zm-.9,3.155A2.417,2.417,0,1,0,14.818,8.8,2.423,2.423,0,0,0,17.24,6.393Zm-1.031,0a1.391,1.391,0,1,1-1.391-1.4A1.393,1.393,0,0,1,16.209,6.393Zm-.9,0a.492.492,0,1,0-.492.491A.5.5,0,0,0,15.31,6.393Z"></path><path d="M25.58,3.958V9.547h-.9V8.659A3.4,3.4,0,0,1,22.246,9.7a3.322,3.322,0,0,1,0-6.644v.9A2.423,2.423,0,1,0,24.68,6.393V4.857H22.246v-.9Z"></path><path d="M35.706,3.238V9.547h-.9V8.683a3.316,3.316,0,0,1-.84.5,7.854,7.854,0,0,1-3,.516,7.838,7.838,0,0,1-2.987-.516,3.049,3.049,0,0,1-1.115-.755A1.848,1.848,0,0,1,26.4,7.2a1.8,1.8,0,0,1,.468-1.235,2.917,2.917,0,0,1,1.115-.768,7.839,7.839,0,0,1,2.987-.515,7.855,7.855,0,0,1,3,.515,3.316,3.316,0,0,1,.84.5V4.138H27.551v-.9ZM34.651,7.2c0-.48-.348-.875-1.032-1.175a7.063,7.063,0,0,0-2.65-.444,7,7,0,0,0-2.639.444c-.684.3-1.031.7-1.031,1.175s.347.876,1.031,1.163a7,7,0,0,0,2.639.444,7.063,7.063,0,0,0,2.65-.444C34.3,8.072,34.651,7.676,34.651,7.2Z"></path><path d="M45.486,3.238V9.547h-.9v-1.1a3.721,3.721,0,0,1-.72.528,6.026,6.026,0,0,1-5.757,0,3.383,3.383,0,0,1-1.139-1.019,2.832,2.832,0,0,1,0-3.119A3.554,3.554,0,0,1,38.11,3.8a6.122,6.122,0,0,1,5.757,0,3.721,3.721,0,0,1,.72.528V3.238Zm-.911,3.155a2.053,2.053,0,0,0-1.152-1.811,5.239,5.239,0,0,0-4.869,0A2.052,2.052,0,0,0,37.4,6.393a2.034,2.034,0,0,0,1.151,1.8,5.148,5.148,0,0,0,4.869,0A2.035,2.035,0,0,0,44.575,6.393Z"></path><path d="M51.716,3.238V9.547h-.9V8.708A2.517,2.517,0,0,1,46.3,7.2a2.6,2.6,0,0,1,2.519-2.518,2.5,2.5,0,0,1,2,1.007V4.138H47.135v-.9ZM50.421,7.2A1.613,1.613,0,1,0,48.814,8.8,1.618,1.618,0,0,0,50.421,7.2Z"></path><path d="M59.144,3.238V9.547h-.9v-.9a3.317,3.317,0,1,1,0-4.521V3.238Zm-.9,3.155A2.417,2.417,0,1,0,55.821,8.8,2.424,2.424,0,0,0,58.244,6.393Z"></path><path d="M66.763,6.393a3.317,3.317,0,0,1-5.744,2.254v.9h-.9V0h.9V4.126a3.317,3.317,0,0,1,5.744,2.267Zm-.9,0A2.417,2.417,0,1,0,63.453,8.8,2.422,2.422,0,0,0,65.864,6.393Z"></path><path d="M74.312,6.393a3.309,3.309,0,0,1-5.733,2.254v.9h-.9V0h.9V4.126a3.309,3.309,0,0,1,5.733,2.267Zm-.9,0A2.417,2.417,0,1,0,71,8.8,2.421,2.421,0,0,0,73.412,6.393ZM72.369,6.38a1.392,1.392,0,1,0-1.392,1.4A1.393,1.393,0,0,0,72.369,6.38Zm-.9,0a.5.5,0,0,1-.492.5.5.5,0,0,1,0-1A.494.494,0,0,1,71.469,6.38Z"></path><path d="M84.21,6.393a2.741,2.741,0,0,1-.468,1.559A3.374,3.374,0,0,1,82.6,8.971a5.828,5.828,0,0,1-2.879.732,5.907,5.907,0,0,1-2.89-.732,3.51,3.51,0,0,1-.708-.528v1.1h-.9V0h.9V4.33a4.027,4.027,0,0,1,.708-.528,6.041,6.041,0,0,1,2.89-.732A5.959,5.959,0,0,1,82.6,3.8a3.544,3.544,0,0,1,1.139,1.031A2.715,2.715,0,0,1,84.21,6.393Zm-.9,0a2.053,2.053,0,0,0-1.152-1.811,5.148,5.148,0,0,0-4.869,0,2,2,0,0,0,0,3.622,5.156,5.156,0,0,0,2.434.6,5.193,5.193,0,0,0,2.435-.6A2.068,2.068,0,0,0,83.311,6.393Z"></path><path d="M91.771,6.393A3.319,3.319,0,0,1,88.449,9.7a3.272,3.272,0,0,1-2.41-1.044v.888h-.9V0h.9V3.958h2.41v.9h-2.41V6.393a2.416,2.416,0,1,0,2.41-2.435V3.07A3.322,3.322,0,0,1,91.771,6.393Z"></path><path d="M98.275,6.836l.9.012a3.306,3.306,0,0,1-3.262,2.819,3.434,3.434,0,0,1-2.363-1,3.316,3.316,0,0,1,.06-4.677,3.256,3.256,0,0,1,2.3-.935,3.324,3.324,0,0,1,3.274,2.89l-.9-.012a2.311,2.311,0,0,0-2.375-1.979,2.4,2.4,0,0,0-2.4,2.375,2.356,2.356,0,0,0,.684,1.7,2.4,2.4,0,0,0,4.077-1.2Z"></path><path d="M105.787,9.547H100.1V4.138h2.9v.9h-2V8.647h4.786Zm0-5.409h-2.782v-.9h2.782Z"></path><path d="M109.544,9.7a3.317,3.317,0,1,1,2.615-5.337l-.708.551a2.416,2.416,0,1,0,.156,2.711l.779.455A3.469,3.469,0,0,1,111.2,9.259,3.284,3.284,0,0,1,109.544,9.7Z"></path><path d="M117.692,9.7a5.908,5.908,0,0,1-2.891-.732,3.371,3.371,0,0,1-1.128-1.031,2.763,2.763,0,0,1,0-3.107A3.262,3.262,0,0,1,114.8,3.8a5.908,5.908,0,0,1,2.891-.732,6.107,6.107,0,0,1,1.739.252,4.5,4.5,0,0,1,1.643.816l-.564.7a4.8,4.8,0,0,0-2.818-.863,5.052,5.052,0,0,0-2.435.612,2.064,2.064,0,0,0-1.164,1.8,2.067,2.067,0,0,0,1.164,1.811,5.052,5.052,0,0,0,2.435.612,4.8,4.8,0,0,0,2.818-.863l.564.695a4.5,4.5,0,0,1-1.643.816A6.107,6.107,0,0,1,117.692,9.7Z"></path><path d="M130.373,0V9.547h-.9V8.456a4.14,4.14,0,0,1-.721.515,5.822,5.822,0,0,1-2.878.732,5.907,5.907,0,0,1-2.89-.732,3.329,3.329,0,0,1-1.127-1.019,2.832,2.832,0,0,1,0-3.119A3.5,3.5,0,0,1,122.985,3.8a6.041,6.041,0,0,1,2.89-.732,5.952,5.952,0,0,1,2.878.732,4.138,4.138,0,0,1,.721.528V0Zm-.912,6.393a2.052,2.052,0,0,0-1.151-1.811,5.148,5.148,0,0,0-4.869,0,2,2,0,0,0,0,3.622,5.159,5.159,0,0,0,2.434.6,5.2,5.2,0,0,0,2.435-.6A2.054,2.054,0,0,0,129.461,6.393Z"></path><path d="M137.863,0V9.547h-.9V8.659a3.272,3.272,0,0,1-2.41,1.044,3.317,3.317,0,1,1,0-6.633v.888a2.423,2.423,0,1,0,2.41,2.435V4.857h-2.41v-.9h2.41V0Z"></path><path d="M145.362,0V9.547h-.9v-.9a3.317,3.317,0,1,1,0-4.521V0Zm-.911,6.38A2.417,2.417,0,1,0,142.028,8.8,2.413,2.413,0,0,0,144.451,6.38Zm-1.008,0a1.391,1.391,0,1,0-1.391,1.392A1.392,1.392,0,0,0,143.443,6.38Zm-.9,0a.492.492,0,1,1-.491-.491A.487.487,0,0,1,142.543,6.38Z"></path><path d="M152.8,0V9.547h-.9V8.635a3.311,3.311,0,1,1,0-4.509V0Zm-.912,6.38a2.417,2.417,0,1,0-2.422,2.412A2.421,2.421,0,0,0,151.89,6.38Z"></path><path d="M8.1,22.136v.911H12.29v.9H7.205V18.37H9.987v-.9a3.319,3.319,0,0,1,3.31,3.322v.444H9.987v.9Zm0-2.866v1.966H9.987v-.9h2.375A2.43,2.43,0,0,0,9.987,18.37v.9Z"></path><path d="M19.526,23.947H14.105l.036-3.6a2.775,2.775,0,0,1,2.95-2.879,2.83,2.83,0,0,1,1.823.636,2.081,2.081,0,0,1,.78,1.607,1.967,1.967,0,0,1-.972,1.823,5.2,5.2,0,0,1-1.787.576,5.423,5.423,0,0,0-1.367.408.911.911,0,0,0-.492.527h4.45ZM17.091,18.37a2.074,2.074,0,0,0-1.535.575,1.992,1.992,0,0,0-.516,1.416l-.012,1.427a1.055,1.055,0,0,1,.12-.072,5.952,5.952,0,0,1,1.607-.48c1.307-.264,2.039-.467,2.039-1.523a1.226,1.226,0,0,0-.467-.923A1.922,1.922,0,0,0,17.091,18.37Z"></path><path d="M23.763,24.1a3.225,3.225,0,0,1-2.326-.972,3.358,3.358,0,0,1,0-4.677,3.256,3.256,0,0,1,4.665,0,3.314,3.314,0,0,1,.947,2.338v.444H21.424a2.46,2.46,0,0,0,.66,1.271,2.367,2.367,0,0,0,1.679.7,2.478,2.478,0,0,0,2.015-1.031l.732.528A3.4,3.4,0,0,1,23.763,24.1Zm-2.339-3.766h4.69a2.463,2.463,0,0,0-.66-1.259,2.359,2.359,0,0,0-3.37,0A2.471,2.471,0,0,0,21.424,20.337Z"></path><path d="M32.414,24.1a5.542,5.542,0,0,1-3.178-.924,3.444,3.444,0,0,1-1.007-1.043,2.6,2.6,0,0,1-.384-1.344,2.638,2.638,0,0,1,.384-1.355,3.455,3.455,0,0,1,1.007-1.043,5.948,5.948,0,0,1,6.368,0,3.471,3.471,0,0,1,1.008,1.043A2.638,2.638,0,0,1,37,20.792v.444H28.8c.324,1.116,1.823,1.967,3.61,1.967a4.653,4.653,0,0,0,3.154-1.091l.624.647A5.574,5.574,0,0,1,32.414,24.1ZM28.8,20.337h7.232c-.324-1.116-1.823-1.967-3.622-1.967S29.128,19.221,28.8,20.337Z"></path><path d="M38.812,23.047h3.466v.9H37.913V19.881a2.4,2.4,0,1,1,2.41,2.411,2.363,2.363,0,0,1-1.511-.528Zm0-3.166a1.505,1.505,0,1,0,1.511-1.511A1.5,1.5,0,0,0,38.812,19.881Z"></path><path d="M52.9,19.989a1.858,1.858,0,0,1-.468,1.247,3.148,3.148,0,0,1-1.116.756,8.949,8.949,0,0,1-5.984,0,3.062,3.062,0,0,1-.684-.384v1.439h7.484v.9H43.745V19.989a1.847,1.847,0,0,1,.467-1.236A3.159,3.159,0,0,1,45.328,18a8.932,8.932,0,0,1,5.984,0,3.159,3.159,0,0,1,1.116.755A1.853,1.853,0,0,1,52.9,19.989Zm-.9,0c0-.48-.348-.876-1.032-1.163a8.1,8.1,0,0,0-5.289,0c-.683.287-1.031.683-1.031,1.163s.348.875,1.031,1.176a8.115,8.115,0,0,0,5.289,0C51.648,20.864,52,20.48,52,19.989Z"></path><path d="M59.461,23A3.267,3.267,0,0,1,57,24.1a3.317,3.317,0,1,1,2.387-5.625l-.648.624A2.412,2.412,0,0,0,55,19.449h2.578v.9H54.627a2.736,2.736,0,0,0-.035.432A2.413,2.413,0,0,0,57,23.2a2.369,2.369,0,0,0,1.8-.815Z"></path><path d="M62.307,16.367v2.171h2.507v.9H62.307v3.61h2.507v.9H60.137v-.9h1.271v-3.61H60.137v-.9h1.271V14.4h.9a1.691,1.691,0,1,0,3.382,0h.9A2.6,2.6,0,0,1,64,16.991,2.625,2.625,0,0,1,62.307,16.367Z"></path><path d="M67.12,18.07v1.355h1.667v3.622h1.7v.9H66.2v-.9h1.691V20.325H66.221V18.07a3.776,3.776,0,0,1,1.019-2.554,3.4,3.4,0,0,1,2.5-1.116h.755v.9h-.755a2.518,2.518,0,0,0-1.836.828A2.836,2.836,0,0,0,67.12,18.07Zm3.37,1.355h-1.7v-.887h1.7Z"></path><path d="M78.756,14.4v2.327h-.9V15.3H76.394L74.1,16.931v1.607h2.279v.9H74.1v3.61h2.506v.9H71.477v-.9H73.2v-3.61h-1.26v-.9H73.2V16.463L76.118,14.4Z"></path><path d="M79.648,16.139v3.286h1.667v3.622h1.7v.9H78.725v-.9h1.691V20.325H78.749V16.139Zm1.775,0H79.648v-.9h1.775Zm1.595,3.286h-1.7v-.887h1.7Zm.4-4.185H81.423V14.4h1.991Z"></path><path d="M89.137,23.947H85.06V26h-.9V23.047h3.25l-1.2-1.7a2.624,2.624,0,0,1-.443.048,1.955,1.955,0,1,1,1.955-1.955,1.98,1.98,0,0,1-.695,1.5Zm-3.37-3.454a1.056,1.056,0,1,0-1.055-1.056A1.058,1.058,0,0,0,85.767,20.493Zm3.215-1.955H87.506v-.9h1.476Z"></path><path d="M95.3,27.737a1.8,1.8,0,0,1-.469,1.235,3.005,3.005,0,0,1-1.115.768,8.949,8.949,0,0,1-5.984,0,3.005,3.005,0,0,1-1.115-.768,1.8,1.8,0,0,1-.468-1.235,1.843,1.843,0,0,1,.468-1.236,3.145,3.145,0,0,1,1.115-.755,7.832,7.832,0,0,1,2.986-.516,9.572,9.572,0,0,1,1.8.156c.252.048.5.12.732.18V21.692a2.4,2.4,0,0,1-1.463.5,2.363,2.363,0,1,1,2.362-2.351v6.116a1.416,1.416,0,0,1,.252.168A1.943,1.943,0,0,1,95.3,27.737Zm-.9,0a1.05,1.05,0,0,0-.516-.876,3.8,3.8,0,0,0-1.547-.588,8.637,8.637,0,0,0-1.619-.144,7.026,7.026,0,0,0-2.639.444c-.683.288-1.031.684-1.031,1.164s.348.875,1.031,1.175a8.1,8.1,0,0,0,5.29,0C94.056,28.612,94.4,28.216,94.4,27.737Zm-1.151-7.9A1.464,1.464,0,1,0,91.79,21.3,1.469,1.469,0,0,0,93.253,19.833Z"></path><path d="M99.925,23.947H95.14v-.9h3.886v-1.3a2.368,2.368,0,0,1-1.511.54,2.411,2.411,0,1,1,2.41-2.411Zm-.9-4.066a1.512,1.512,0,0,0-3.023,0,1.512,1.512,0,0,0,3.023,0Z"></path><path d="M106.931,30.363A3.488,3.488,0,0,1,105.8,31.4a6.057,6.057,0,0,1-5.769,0,3.488,3.488,0,0,1-1.127-1.032,2.709,2.709,0,0,1-.467-1.559,2.766,2.766,0,0,1,.467-1.559,3.319,3.319,0,0,1,1.127-1.019,6.049,6.049,0,0,1,5.769,0,3.831,3.831,0,0,1,.7.5v-3.67a3.311,3.311,0,1,1,0-4.557v-.864h.9V28.8A2.7,2.7,0,0,1,106.931,30.363ZM106.5,28.8a2.014,2.014,0,0,0-1.151-1.8,5.132,5.132,0,0,0-4.857,0,1.989,1.989,0,0,0,0,3.61,5.124,5.124,0,0,0,4.857,0A2.031,2.031,0,0,0,106.5,28.8Zm0-7.807v-.42a2.416,2.416,0,1,0,0,.42Z"></path><path d="M111.722,22.448v.791a3.316,3.316,0,1,1-.9,0v-.791a2.509,2.509,0,1,1,2.518-3.886l.264-.924h1.668v.9h-.984l-.588,2.1h-.012A2.5,2.5,0,0,1,111.722,22.448Zm-.455,1.655a2.417,2.417,0,1,0,2.422,2.422A2.42,2.42,0,0,0,111.267,24.1Zm0-2.507a1.613,1.613,0,1,0,0-3.226,1.613,1.613,0,0,0,0,3.226Zm0,3.538a1.392,1.392,0,1,1-1.392,1.391A1.392,1.392,0,0,1,111.267,25.134Zm0,.9a.493.493,0,0,0-.492.491.5.5,0,0,0,.492.492.494.494,0,0,0,.491-.492A.486.486,0,0,0,111.267,26.034Z"></path><path d="M125.219,23.947H116.14v-.9h8.18V21.608a3.644,3.644,0,0,1-.684.372,8.932,8.932,0,0,1-5.984,0,3.084,3.084,0,0,1-1.1-.756,1.844,1.844,0,0,1,0-2.482,3.084,3.084,0,0,1,1.1-.756,8.932,8.932,0,0,1,5.984,0,3.029,3.029,0,0,1,1.115.756,1.846,1.846,0,0,1,.468,1.235Zm-.9-3.958c0-.492-.348-.876-1.031-1.176a8.082,8.082,0,0,0-5.278,0c-.695.3-1.043.684-1.043,1.176s.348.875,1.043,1.163a8.065,8.065,0,0,0,5.278,0C123.972,20.864,124.32,20.469,124.32,19.989Z"></path><path d="M132.289,20.781v3.166h-.9V20.781a2.41,2.41,0,0,0-2.411-2.411v.887H127.1v4.69h-.9V14.4h.9v3.958h1.883V17.47A3.318,3.318,0,0,1,132.289,20.781Z"></path><path d="M142.259,20.792v3.155h-.9V20.792a2.055,2.055,0,0,0-1.152-1.811,5.156,5.156,0,0,0-4.869,0,2.034,2.034,0,0,0-1.151,1.811v3.155h-.9V14.4h.9v4.318a3.908,3.908,0,0,1,.7-.516,5.911,5.911,0,0,1,2.891-.732,5.825,5.825,0,0,1,2.878.732,3.416,3.416,0,0,1,1.14,1.031A2.721,2.721,0,0,1,142.259,20.792Z"></path><path d="M149.5,17.638v6.309h-.9V18.538h-4.461v5.409h-.9V14.388h.9v3.25Z"></path><path d="M157.1,20.781v3.166h-.9V20.781a2.415,2.415,0,0,0-4.821-.193v3.359h-.9V14.4h.9v4.1a3.317,3.317,0,0,1,5.721,2.279Z"></path><path d="M4.36,37.447v.9H.618v-.9H2.057V35.828H.654v-.9h2.3v2.518ZM.978,32.494a1.391,1.391,0,1,1,1.391,1.391A1.392,1.392,0,0,1,.978,32.494Zm.9,0a.494.494,0,0,0,.492.492.492.492,0,1,0,0-.984A.494.494,0,0,0,1.877,32.494Z"></path><path d="M7.625,37.447H9.064v.9H5.322v-.9h1.4V32.47a1.949,1.949,0,1,1,.9,0Zm-.444-5.829a1.049,1.049,0,1,0-1.056-1.043A1.044,1.044,0,0,0,7.181,31.618Z"></path><path d="M13.66,37.447v.9H9.918v-.9h1.4V32.938h-1.4v-.9h2.3v5.409Zm-.4-7.94a1.643,1.643,0,0,0-1.655-1.654,1.637,1.637,0,1,0,1.655,1.654Z"></path><path d="M16.216,32.47v8.563H16.2a3.314,3.314,0,0,1-3.31,3.215v-.9a2.42,2.42,0,0,0,2.422-2.411V32.47a1.949,1.949,0,1,1,.9,0Zm.6-1.895a1.056,1.056,0,1,0-1.056,1.043A1.057,1.057,0,0,0,16.816,30.575Z"></path><path d="M20.489,42.305h-.9V32.938h-1.4v-.9h2.3Zm-.456-10.89a1.4,1.4,0,1,1,1.391-1.392A1.392,1.392,0,0,1,20.033,31.415Zm0-1.895a.5.5,0,0,0,0,1,.5.5,0,0,0,0-1Z"></path><path d="M25.156,37.447h1.7v.9H24.712l-1.595-1.991v1.991h-.9V28.8h.9v3.6a2.36,2.36,0,1,1,1.463,4.209h-.108Zm-2.039-3.2a1.463,1.463,0,1,0,1.463-1.463A1.469,1.469,0,0,0,23.117,34.245Z"></path><path d="M34.262,38.347h-1.2l-4.149-4.7v4.7h-.9V28.8h.9v3.238h4.9v.9H29.489Z"></path><path d="M40.178,37.447h4.114v.9H39.938l-3.8-2.159v2.159h-.9V28.8h.9v3.958a3.921,3.921,0,0,1,.671-.372,8.97,8.97,0,0,1,6,0,3.088,3.088,0,0,1,1.1.756,1.844,1.844,0,0,1,0,2.482,3.088,3.088,0,0,1-1.1.756,7.92,7.92,0,0,1-3,.516c-.216,0-.432-.013-.636-.024Zm-4.041-3.07c0,.492.347.875,1.031,1.175a8.062,8.062,0,0,0,5.277,0c.7-.3,1.044-.683,1.044-1.175s-.348-.876-1.044-1.164a8.079,8.079,0,0,0-5.277,0C36.484,33.5,36.137,33.9,36.137,34.377Z"></path><path d="M49.047,37.447v.9H45.306v-.9h1.4V29.7h-1.4v-.9h2.3v8.647Z"></path><path d="M49.9,36.56h.9v1.787h-.9Zm1.8-7.76v7.76h-.9V28.8Z"></path><path d="M55.683,38.347a3.677,3.677,0,0,1-2.063-.54,2.22,2.22,0,0,1-.935-1.9L52.673,28.8h.9l.012,7.112a1.3,1.3,0,0,0,.552,1.151,2.729,2.729,0,0,0,1.547.384Z"></path><path d="M59.583,32.038v.9h-2.2v5.409h-.9V32.938h.887v-.9Zm2.314.9h.9v3.5H59.583v-3.5h.9v2.6H61.9Zm3.995,0v5.409h-.9V32.938H62.8v-.9H65v.9Z"></path><path d="M75.648,34.281v4.066h-.9V34.281a1.511,1.511,0,1,0-3.022,0v4.066h-.9V34.281a1.512,1.512,0,0,0-3.023,0v4.066h-.9V34.281a2.407,2.407,0,0,1,4.365-1.4,2.416,2.416,0,0,1,4.378,1.4Z"></path><path d="M88.99,35.18v3.167h-.9V35.18a2.411,2.411,0,0,0-4.821,0v3.167h-.9V35.18a2.417,2.417,0,0,0-4.833,0v3.167h-.9V35.18a3.31,3.31,0,0,1,6.176-1.655A3.31,3.31,0,0,1,88.99,35.18Z"></path><path d="M100.294,35.192v3.155h-.9V35.192a2.41,2.41,0,0,0-1.967-2.374v.839H95.521a3.336,3.336,0,0,1,.372,1.535v3.155h-.9V35.192a2.421,2.421,0,0,0-2.411-2.422v.887h-1.7v4.69h-.9V32.758h2.6V31.87a3.3,3.3,0,0,1,2.254.888h1.692V31.87h.443A3.321,3.321,0,0,1,100.294,35.192Z"></path><path d="M111.827,34.4v3.946h-.9V34.4a1.6,1.6,0,0,0-.672-1.367,1.771,1.771,0,0,0-1.619-.12l-1,.419a2.692,2.692,0,1,1-2.194,0l-1-.419a1.774,1.774,0,0,0-1.619.12,1.618,1.618,0,0,0-.661,1.367v3.946h-.9V34.4a2.515,2.515,0,0,1,1.055-2.111,2.676,2.676,0,0,1,2.459-.216l1.762.756,1.763-.756a2.683,2.683,0,0,1,2.447.216A2.526,2.526,0,0,1,111.827,34.4Zm-5.278-.4a1.793,1.793,0,1,0,1.787,1.787A1.795,1.795,0,0,0,106.549,34.005Z"></path><path d="M119.437,38.347h-.9V35.18a2.416,2.416,0,0,0-4.832,0v3.167h-.9V35.18a3.317,3.317,0,0,1,6.633,0Z"></path><path d="M125.234,38.347h-.9V34.281a1.511,1.511,0,1,0-3.021,0v4.066h-.9V34.281a2.411,2.411,0,0,1,4.822,0Z"></path><path d="M126.208,32.77h2.422v.9h-1.523v4.678h-.9Zm5.733,2.422v3.155h-.9V35.192a2.42,2.42,0,0,0-2.411-2.422v-.9A3.319,3.319,0,0,1,131.941,35.192Z"></path><path d="M136.058,38.5a3.316,3.316,0,1,1,3.322-3.31A3.316,3.316,0,0,1,136.058,38.5Zm0-5.732a2.417,2.417,0,1,0,2.422,2.422A2.412,2.412,0,0,0,136.058,32.77Zm0,3.813a1.4,1.4,0,1,1,1.4-1.391A1.392,1.392,0,0,1,136.058,36.583Zm0-1.895a.5.5,0,1,0,.5.5A.505.505,0,0,0,136.058,34.688Z"></path><path d="M144.685,38.5a5.914,5.914,0,0,1-2.891-.731,3.267,3.267,0,0,1-1.127-1.031,2.822,2.822,0,0,1,0-3.107,3.258,3.258,0,0,1,1.127-1.031,6.075,6.075,0,0,1,5.782,0,3.24,3.24,0,0,1,1.127,1.031,2.812,2.812,0,0,1,0,3.107,3.249,3.249,0,0,1-1.127,1.031A5.908,5.908,0,0,1,144.685,38.5Zm0-5.732a5.062,5.062,0,0,0-2.434.611,1.99,1.99,0,0,0,0,3.61,5.15,5.15,0,0,0,4.87,0,1.992,1.992,0,0,0,0-3.61A5.073,5.073,0,0,0,144.685,32.77Z"></path><path d="M156.264,32.038v5.409h-.9V32.938h-2.326v.887h-2v3.622h4.33v.9h-5.229V32.926h2.9v-.888Z"></path><path d="M160.37,38.5a3.316,3.316,0,1,1,3.322-3.31A3.315,3.315,0,0,1,160.37,38.5Zm0-5.732a2.417,2.417,0,1,0,2.422,2.422A2.414,2.414,0,0,0,160.37,32.77Z"></path><path d="M.9,51.848H2.77v.9H.9v3.238H0V47.17H2.77v.912H.9Zm5.193-2.255v2.255H2.77v-.9H5.193V49.593A2.432,2.432,0,0,0,2.77,47.17v-.9A3.322,3.322,0,0,1,6.092,49.593Z"></path><path d="M13.688,49.593a3.309,3.309,0,0,1-5.721,2.279V56h-.9V46.438h.9v.888a3.309,3.309,0,0,1,5.721,2.267Zm-.9,0a2.414,2.414,0,0,0-4.822-.18v.372a2.414,2.414,0,0,0,4.822-.192Zm-1.02,0A1.391,1.391,0,1,1,10.378,48.2,1.392,1.392,0,0,1,11.769,49.593Zm-.9,0a.492.492,0,0,0-.984,0,.492.492,0,0,0,.984,0Z"></path><path d="M21.248,49.593a3.317,3.317,0,0,1-3.31,3.31,3.276,3.276,0,0,1-2.411-1.044v4.126h-.9V46.438h.9v.876a3.309,3.309,0,0,1,5.721,2.279Zm-.9,0a2.414,2.414,0,0,0-4.822-.192v.372a2.415,2.415,0,0,0,4.822-.18Z"></path><path d="M31.159,49.593a2.794,2.794,0,0,1-.468,1.547,3.386,3.386,0,0,1-1.14,1.031,5.822,5.822,0,0,1-2.878.732,5.9,5.9,0,0,1-2.89-.732,4.023,4.023,0,0,1-.708-.527v4.341h-.9V46.438h.9V47.53A4.027,4.027,0,0,1,23.783,47a6.037,6.037,0,0,1,2.89-.731A5.952,5.952,0,0,1,29.551,47a3.528,3.528,0,0,1,1.14,1.032A2.8,2.8,0,0,1,31.159,49.593Zm-.9,0a2.055,2.055,0,0,0-1.151-1.811,5.15,5.15,0,0,0-4.87,0,1.991,1.991,0,0,0,0,3.61,5.158,5.158,0,0,0,4.87,0A2.039,2.039,0,0,0,30.259,49.593Z"></path><path d="M35.277,46.283a3.31,3.31,0,0,1,2.411,1.031v-.876h.9V56h-.9V51.872a3.313,3.313,0,1,1-2.411-5.589Zm0,5.72a2.42,2.42,0,0,0,2.411-2.23V49.4A2.414,2.414,0,1,0,35.277,52Z"></path><path d="M46.507,51.848v.9H42.6a3.213,3.213,0,1,1,2.231-.9Zm-3.91,0a2.315,2.315,0,1,0-2.314-2.315A2.324,2.324,0,0,0,42.6,51.848Z"></path><path d="M49.75,46.438v.9A1.469,1.469,0,0,0,48.287,48.8v3.946h-.9V48.8A2.36,2.36,0,0,1,49.75,46.438Zm2.207.9v.9H49.75v-.9Z"></path><path d="M53.722,47.338v4.51h1.691v.9H51.671v-.9h1.151v-5.41h3.49v.9Z"></path><path d="M58.305,49.761v2.087h1.464v.9H56.027v-.9h1.379V49.761a3.32,3.32,0,0,1,3.31-3.323v.9A2.421,2.421,0,0,0,58.305,49.761Z"></path><path d="M62.422,52.747h-.9V46.438h4.246v.9H62.422Z"></path><path d="M66.8,46.438h.9a1.505,1.505,0,0,0,3.01,0h.9a2.4,2.4,0,0,1-2.4,2.4A2.362,2.362,0,0,1,67.7,48.31v4.437h-.9Z"></path><path d="M75.4,52.939a4.816,4.816,0,0,1-2.386-.492,2.056,2.056,0,0,1-1.043-1.871h.935a1.107,1.107,0,0,0,.575,1.056A3.863,3.863,0,0,0,75.4,52c1.068,0,1.944-.42,1.944-.923,0-.384-.252-.539-.528-.66A7.48,7.48,0,0,0,75.1,50a8.278,8.278,0,0,1-1.846-.443,1.831,1.831,0,0,1-.744-.516,1.367,1.367,0,0,1-.324-.912A1.649,1.649,0,0,1,73.1,46.69a3.976,3.976,0,0,1,1.907-.419h.012a3.92,3.92,0,0,1,2.327.611,2.058,2.058,0,0,1,.887,1.751H77.3c0-.431-.216-1.427-2.278-1.427h-.012a3.059,3.059,0,0,0-1.44.3.754.754,0,0,0-.443.623c0,.552.839.732,2.123.948a8.446,8.446,0,0,1,1.955.48,2.223,2.223,0,0,1,.755.551,1.508,1.508,0,0,1,.324.972,1.635,1.635,0,0,1-.948,1.415A3.957,3.957,0,0,1,75.4,52.939Z"></path><path d="M83.288,52.423a2.276,2.276,0,0,1-1.5.516,2.517,2.517,0,0,1-2.7-2.363h.935A1.605,1.605,0,0,0,81.789,52a1.46,1.46,0,0,0,.912-.3.849.849,0,0,0,.323-.624c0-.6-.323-.756-1.415-.972-.42-.084-2.231-.252-2.231-1.979a1.764,1.764,0,0,1,.648-1.343,2.292,2.292,0,0,1,1.487-.515,2.282,2.282,0,0,1,2.423,2.362H83a1.431,1.431,0,0,0-.372-1.019,1.53,1.53,0,0,0-1.115-.408,1.389,1.389,0,0,0-.887.3.813.813,0,0,0-.312.623c0,.6.276.816,1.487,1.068a4.409,4.409,0,0,1,1.379.432,1.573,1.573,0,0,1,.78,1.451A1.713,1.713,0,0,1,83.288,52.423Z"></path><path d="M89.5,51.08a1.738,1.738,0,0,1-.66,1.355,2.363,2.363,0,0,1-1.5.516,3.006,3.006,0,0,1-1.631-.456,2.36,2.36,0,0,1-.948-1.175l-.012-.024.888-.3.012.024a1.743,1.743,0,0,0,1.679,1,1.4,1.4,0,0,0,.911-.312.806.806,0,0,0,.324-.624v-.012a.621.621,0,0,0-.324-.624,3.756,3.756,0,0,0-1.078-.323,4.518,4.518,0,0,1-1.44-.456,1.69,1.69,0,0,1-.8-1.523A1.73,1.73,0,0,1,85.57,46.8a2.3,2.3,0,0,1,1.5-.527,2.421,2.421,0,0,1,1.787.707,2.237,2.237,0,0,1,.491.816v.024l-.887.3v-.013a1.147,1.147,0,0,0-.288-.479,1.493,1.493,0,0,0-1.115-.408,1.368,1.368,0,0,0-.888.3.857.857,0,0,0-.312.624c0,.7.433.851,1.488,1.055a4.409,4.409,0,0,1,1.379.432A1.587,1.587,0,0,1,89.5,51.08Z"></path><path d="M95.6,52.747H90.417v-.828h4.342V50H90.417V46.438H95.6v.828H91.246v1.9H95.6Z"></path><path d="M96.73,46.438l3.131-.011.491.011v.936H97.666v.755c0,.6.275.816,1.487,1.068a4.409,4.409,0,0,1,1.379.432,1.575,1.575,0,0,1,.78,1.451,1.713,1.713,0,0,1-.672,1.343,2.279,2.279,0,0,1-1.5.516,2.516,2.516,0,0,1-2.7-2.363h.934A1.606,1.606,0,0,0,99.14,52a1.46,1.46,0,0,0,.912-.3.85.85,0,0,0,.324-.624c0-.6-.324-.756-1.416-.972-.419-.084-2.23-.252-2.23-1.979Zm3.622,2.016v-1.08h.9v1.08Z"></path><path d="M103.9,47.338v4.51h1.428v.9h-3.407v-.9h1.08v-7.58h.9v2.17h1.9v.9Z"></path><path d="M111.378,47.338h-1.942v5.409h-.9V47.338h-1.944v-.9h1.944v-2.17h.9v2.17h1.942Z"></path><path d="M113.133,47.338v3.13a1.4,1.4,0,0,0,1.463,1.38v.9a2.29,2.29,0,0,1-2.362-2.279v-6.2h.9v2.17h2.519v.9Z"></path><path d="M125.609,46.438v2.987a2.943,2.943,0,0,1-.432,1.559,3.425,3.425,0,0,1-1.068,1.092,5.48,5.48,0,0,1-2.986.839,5.575,5.575,0,0,1-2.974-.839,3.6,3.6,0,0,1-1.079-1.092,3.026,3.026,0,0,1-.42-1.559V46.438h.9v2.987a2.089,2.089,0,0,0,.3,1.1,2.649,2.649,0,0,0,.791.8,4.692,4.692,0,0,0,2.483.684,4.628,4.628,0,0,0,2.483-.684,2.566,2.566,0,0,0,.8-.8,2.214,2.214,0,0,0,.3-1.1V46.438Z"></path><path d="M129.9,51.848v.9a3.317,3.317,0,0,1-3.311-3.31v-3h.9v3A2.411,2.411,0,0,0,129.9,51.848Zm2.422-5.41v5.41H129.9v-.9h1.522v-4.51Z"></path><path d="M139.914,46.438v6.309h-.9v-.9a3.3,3.3,0,0,1-5.721-2.267V46.438h.9v3.143a2.411,2.411,0,1,0,4.821,0V46.438Z"></path><path d="M149.333,46.438h1.09l-4.341,6.309h-1.127l-4.342-6.309h1.092l3.814,5.541Z"></path><path d="M156.451,46.438h.97l-2.3,5.4h-.971l.012.037.382.875h-.982l-2.7-6.309h.984l2.3,5.386Z"></path><path d="M163.326,46.438h.984l-2.7,6.309h-.984l-2.7-6.309h.984l2.206,5.182Z"></path><path d="M30.029,64.784V60.838h.9v3.946a1.6,1.6,0,0,0,.671,1.367,1.771,1.771,0,0,0,1.619.12l1-.419a2.693,2.693,0,1,1,2.195,0l1,.419a1.774,1.774,0,0,0,1.619-.12,1.617,1.617,0,0,0,.66-1.367V60.838h.9v3.946A2.515,2.515,0,0,1,39.528,66.9a2.676,2.676,0,0,1-2.459.216l-1.763-.756-1.763.756A2.681,2.681,0,0,1,31.1,66.9,2.526,2.526,0,0,1,30.029,64.784Zm5.277.4a1.793,1.793,0,1,0-1.787-1.787A1.794,1.794,0,0,0,35.306,65.18Z"></path><path d="M51.611,60.838l-2.7,6.309H47.75l-1.308-3.058-1.307,3.058H43.972l-2.7-6.309h.984l2.29,5.386,2.3-5.386h.983l-.9,2.111,1.391,3.275,2.3-5.386Z"></path><path d="M53.32,66.248h-.9v-5.41h.9Zm2.207.9H53.32v-.9h2.207Zm3.226-.9h-.9v-2.6H56.426v2.6h-.9v-3.5h3.226Zm2.171.9H58.753v-.9h2.171Zm.9-.9h-.9v-5.41h.9Z"></path><path d="M64.252,63.981,62.5,60.838H63.52l1.763,3.143ZM69.1,67.147H68.066L66.3,63.993v-.012L64.54,67.147H63.52l3.514-6.309h1.02L66.3,63.981h1.019Z"></path><path d="M75.542,60.838l-2.387,3.179,2.326,3.13H74.366L72.591,64.76l-1.8,2.387H69.665l2.362-3.142-2.338-3.167H70.8l1.8,2.423,1.811-2.423Z"></path><path d="M81.182,67.147H76.361v-.9h3.922v-1.08a2.459,2.459,0,0,1-1.512.528,2.411,2.411,0,0,1-2.41-2.411V60.838h.9v2.447a1.512,1.512,0,0,0,3.023,0V60.838h.9Z"></path><path d="M87.793,60.838l-2.662,6.309H81.977v-.9h2.566l.384-.936,1.883-4.474Zm-4.773,0,1.907,4.474h-.971l-1.919-4.474Z"></path><path d="M98.135,67.135H88.6v-.9h8.635V64.688a4.6,4.6,0,0,1-.684.372,8.932,8.932,0,0,1-5.984,0,3.045,3.045,0,0,1-1.116-.755,1.848,1.848,0,0,1-.468-1.236V60.838h.9v2.231c0,.48.348.876,1.032,1.163a6.977,6.977,0,0,0,2.638.444,7.052,7.052,0,0,0,2.651-.444c.683-.287,1.031-.683,1.031-1.163V60.838h.9Z"></path><path d="M100.7,64.2l-1.883-3.359h1.031l1.883,3.359Zm1.931,0a2.915,2.915,0,0,1-.144.923,3.073,3.073,0,0,1-.707,1.164,2.942,2.942,0,0,1-2.087.863v-.9a2.04,2.04,0,0,0,1.451-.6,2.006,2.006,0,0,0,.372-.528,3.767,3.767,0,0,0,.215-.923Zm0-3.359h.9V64.2h-.9Z"></path><path d="M109.814,63.981h-2.436v-.9h2.436V61.738h-5.3v-.9h6.2v2.255h-.9Zm-4.33.9v1.368h4.785v.9h-5.685V63.981h2.794v.9Z"></path><path d="M111.689,65.228l6.7-3.49v1.008l-6.7,3.5Zm6.7,1.919h-6.7v-.9h6.7Zm0-6.309v.9H111.7v-.9Z"></path><path d="M124.513,66.248v.9h-5.144V66.056l4.209-4.318h-4.2v-.9h5.133v1.224l-4.077,4.186Z"></path><path d="M134.279,62.266l-7.844,3.982h7.844v.9h-8.791V65.72l7.855-3.982h-7.855v-.9h8.791Z"></path></g></svg> 