<?xml version="1.0" encoding="UTF-8"?> <svg xmlns="http://www.w3.org/2000/svg" width="332" height="279" viewBox="0 0 332 279" fill="#0000ff"><path d="M331.932 273.009L325.969 157.439C287.939 157.439 274.556 131.552 257.595 77.7951C240.502 24.0386 183.921 0 128.002 0C51.943 0 18.9486 21.9253 18.9486 21.9253V78.7197C60.556 78.7197 87.4551 85.4558 107.464 99.7204C50.3529 107.777 0 132.476 0 188.346C0 249.103 51.943 278.028 110.909 278.028C151.456 278.028 182.331 263.764 201.677 246.99C221.818 267.462 245.934 278.028 277.604 278.028C310.863 278.028 331.932 273.009 331.932 273.009ZM106.271 183.327C106.271 163.911 123.895 155.062 148.674 155.062C151.721 161.402 154.769 168.138 157.817 175.402C161.394 183.855 165.105 191.78 168.815 199.045C164.045 203.007 156.094 206.177 142.843 206.177C121.642 206.309 106.271 198.912 106.271 183.327Z" fill="#040D00"></path></svg> 