<?xml version="1.0" encoding="UTF-8"?> <svg xmlns="http://www.w3.org/2000/svg" width="422.056" height="314.027" viewBox="0 0 422.056 314.027"><title>manifest-spec2</title><g><path d="M5.854,71.221H25.367V83.514c3.122-7.22,11.318-12.293,19.513-12.293V90.733H25.367v58.539H5.854Z" transform="translate(-4.878 -36.878)"></path><path d="M110.832,121.174v9.366a19.57,19.57,0,0,1-19.513,19.513H73.367c-10.732,0-21.074-8.781-21.074-19.513V89.953c0-10.732,10.342-19.513,21.074-19.513H91.319a19.57,19.57,0,0,1,19.513,19.513v24.2H71.807V129.76H91.319v-8.586ZM71.807,90.733v9.757H91.319V90.733Z" transform="translate(-4.878 -36.878)"></path><path d="M121.562,36.878h19.513V56.391H121.562Zm0,34.343h19.513V188.3H121.562Z" transform="translate(-4.878 -36.878)"></path><path d="M210.343,121.174v9.366a19.571,19.571,0,0,1-19.513,19.513H172.878c-10.732,0-21.074-8.781-21.074-19.513V89.953c0-10.732,10.342-19.513,21.074-19.513H190.83a19.571,19.571,0,0,1,19.513,19.513v24.2H171.317V129.76H190.83v-8.586ZM171.317,90.733v9.757H190.83V90.733Z" transform="translate(-4.878 -36.878)"></path><path d="M259.123,129.76V120h19.513V130.54a19.571,19.571,0,0,1-19.513,19.513H241.171c-10.927,0-21.074-8.781-21.074-19.513V90.733C220.1,80,230.244,70.44,241.171,70.44h17.952c10.731,0,19.513,9.562,19.513,20.293v9.757H259.123V90.733H239.61V129.76Z" transform="translate(-4.878 -36.878)"></path><path d="M299.709,149.272V90.538H286.05V71.221h13.659V52.1h19.513V71.221h13.659V90.733H319.222v58.539Z" transform="translate(-4.878 -36.878)"></path><path d="M24.392,312.659c-10.733,0-19.514-8.195-19.514-18.928V251.975c0-10.733,8.781-18.928,19.514-18.928,8.2,0,16.39,5.268,19.512,12.488V233.827H63.417v78.052H43.9V300.171C40.782,307.391,32.587,312.659,24.392,312.659ZM43.9,292.366V253.34H24.392v39.026Z" transform="translate(-4.878 -36.878)"></path><path d="M133.662,253.34v39.026a19.57,19.57,0,0,1-19.513,19.513H94.637v29.269H75.123V233.827h39.026A19.445,19.445,0,0,1,133.662,253.34ZM94.637,292.366h19.512V253.34H94.637Z" transform="translate(-4.878 -36.878)"></path><path d="M162.931,312.659c-10.733,0-19.514-8.195-19.514-18.928V251.975c0-10.733,8.781-18.928,19.514-18.928,8.195,0,16.39,5.268,19.512,12.488V233.827h19.513v78.052H182.443V300.171C179.321,307.391,171.126,312.659,162.931,312.659Zm19.512-20.293V253.34H162.931v39.026Z" transform="translate(-4.878 -36.878)"></path><path d="M225.369,311.879V253.145H211.71V233.827h13.659V214.7h19.513v19.123h13.659V253.34H244.882v58.539Z" transform="translate(-4.878 -36.878)"></path><path d="M326.836,253.535v58.344H307.323V253.73H287.811v58.149H268.3v-108.1h19.514v30.441h19.512A19.4,19.4,0,0,1,326.836,253.535Z" transform="translate(-4.878 -36.878)"></path><path d="M332.688,233.827H352.2l13.659,45.856,13.66-45.856h19.512L364.3,350.905H344.786L356.3,311.879Z" transform="translate(-4.878 -36.878)"></path><path d="M426.934,311.879H407.42V292.366h19.514Z" transform="translate(-4.878 -36.878)"></path></g></svg> 