<?xml version="1.0" encoding="UTF-8"?> <svg xmlns="http://www.w3.org/2000/svg" width="306.353" height="32.519" viewBox="0 0 306.353 32.519"><title>manifest-hero</title><g><path d="M16.079,37.62h-5.04L7.8,25.081V45.9h-6V14.1h9.059l2.7,10.32,2.7-10.32h9.059V45.9h-6V25.081Z" transform="translate(-1.8 -13.741)"></path><path d="M46.919,20.041V45.9h-6v-9h-6v9h-6V20.041a5.929,5.929,0,0,1,6-5.94h6A5.966,5.966,0,0,1,46.919,20.041Zm-6,.06h-6V30.9h6Z" transform="translate(-1.8 -13.741)"></path><path d="M63.778,38.1,56.519,25.381V45.9h-6V14.1h6l7.2,12.66V14.1h6V45.9h-6V38.1Z" transform="translate(-1.8 -13.741)"></path><path d="M73.318,14.1h6V45.9h-6Z" transform="translate(-1.8 -13.741)"></path><path d="M88.917,32.581V45.9h-6V14.1H99.956v6H88.917v6.48h9.119v6Z" transform="translate(-1.8 -13.741)"></path><path d="M108.957,32.581V39.9h12v6h-18V14.1h18v6h-12v6.48h9.48v6Z" transform="translate(-1.8 -13.741)"></path><path d="M135.776,46.26h-6.119a6.018,6.018,0,0,1-6-6v-3h6v3h6V33.48h-6c-3.48,0-6-2.4-6-5.52V19.621c0-3.3,3.3-5.88,6.6-5.88h4.92a6.018,6.018,0,0,1,6,6V23.1h-6v-3h-5.52V27.96h6.119a5.592,5.592,0,0,1,5.88,5.52V40.2A5.93,5.93,0,0,1,135.776,46.26Z" transform="translate(-1.8 -13.741)"></path><path d="M149.756,45.9V20.1h-6v-6h18v6h-6V45.9Z" transform="translate(-1.8 -13.741)"></path><path d="M195.354,20.041v19.8a5.979,5.979,0,0,1-5.939,6.06h-12.06V14.1h11.581C192.235,14.1,195.354,16.741,195.354,20.041Zm-6,19.859V20.1h-6V39.9Z" transform="translate(-1.8 -13.741)"></path><path d="M198.655,14.1h6V45.9h-6Z" transform="translate(-1.8 -13.741)"></path><path d="M220.074,46.26h-6.119a6.018,6.018,0,0,1-6-6v-3h6v3h6V33.48h-6c-3.48,0-6-2.4-6-5.52V19.621c0-3.3,3.3-5.88,6.6-5.88h4.92a6.018,6.018,0,0,1,6,6V23.1h-6v-3h-5.52V27.96h6.119a5.593,5.593,0,0,1,5.88,5.52V40.2A5.93,5.93,0,0,1,220.074,46.26Z" transform="translate(-1.8 -13.741)"></path><path d="M247.253,20.041v12a6.03,6.03,0,0,1-6,6.059h-6v7.8h-6V14.1h12A5.966,5.966,0,0,1,247.253,20.041Zm-6,12.06v-12h-6v12Z" transform="translate(-1.8 -13.741)"></path><path d="M256.554,14.1V39.9h7.979v6H250.554V14.1Z" transform="translate(-1.8 -13.741)"></path><path d="M285.233,20.041V45.9h-6v-9h-6v9h-6V20.041a5.929,5.929,0,0,1,6-5.94h6A5.966,5.966,0,0,1,285.233,20.041Zm-6,.06h-6V30.9h6Z" transform="translate(-1.8 -13.741)"></path><path d="M294.593,35.22,287.033,14.1h6l4.56,12.66,4.559-12.66h6L300.593,35.22V45.9h-6Z" transform="translate(-1.8 -13.741)"></path></g></svg> 