<?xml version="1.0" encoding="UTF-8"?> <svg xmlns="http://www.w3.org/2000/svg" width="532.364" height="182.52" viewBox="0 0 532.364 182.52"><title>manifest-spec1</title><g><path d="M45.987,45.9V20.1h-6v-6h18v6h-6V45.9Z" transform="translate(-1.8 -13.74)"></path><path d="M66.987,32.581V45.9h-6V14.1h6v12.48h6V14.1h6V45.9h-6V32.581Z" transform="translate(-1.8 -13.74)"></path><path d="M88.587,32.581V39.9h12v6h-18V14.1h18v6h-12v6.48h9.479v6Z" transform="translate(-1.8 -13.74)"></path><path d="M128.005,46.26h-6.119a6.018,6.018,0,0,1-6-6v-3h6v3h6V33.48h-6c-3.481,0-6-2.4-6-5.52V19.621c0-3.3,3.3-5.88,6.6-5.88h4.92a6.018,6.018,0,0,1,6,6V23.1h-6v-3h-5.519V27.96h6.119a5.593,5.593,0,0,1,5.88,5.52V40.2A5.93,5.93,0,0,1,128.005,46.26Z" transform="translate(-1.8 -13.74)"></path><path d="M149.245,46.26h-5.519c-3.3,0-6.54-2.7-6.54-6.06V14.1h6V40.26h6V14.1h6V40.2A5.98,5.98,0,0,1,149.245,46.26Z" transform="translate(-1.8 -13.74)"></path><path d="M173.063,37.62h-5.039l-3.24-12.539V45.9h-6V14.1h9.06l2.7,10.32,2.7-10.32h9.06V45.9h-6V25.081Z" transform="translate(-1.8 -13.74)"></path><path d="M216.2,19.681V40.2c0,3.36-3.18,6.06-6.479,6.06H204.2a6.031,6.031,0,0,1-6-6.06V19.681c0-3.3,3.18-6,6.48-5.94H210.2A5.967,5.967,0,0,1,216.2,19.681Zm-6,20.579V20.1h-6V40.26Z" transform="translate(-1.8 -13.74)"></path><path d="M225.5,32.581V45.9h-6V14.1h17.039v6H225.5v6.48h9.119v6Z" transform="translate(-1.8 -13.74)"></path><path d="M270.142,20.041V45.9h-6v-9h-6v9h-6V20.041a5.928,5.928,0,0,1,6-5.94h6A5.966,5.966,0,0,1,270.142,20.041Zm-6,.06h-6V30.9h6Z" transform="translate(-1.8 -13.74)"></path><path d="M279.741,14.1V39.9h7.98v6h-13.98V14.1Z" transform="translate(-1.8 -13.74)"></path><path d="M296.422,14.1V39.9H304.4v6H290.422V14.1Z" transform="translate(-1.8 -13.74)"></path><path d="M325.1,45.9V20.1h-6v-6h18v6h-6V45.9Z" transform="translate(-1.8 -13.74)"></path><path d="M346.1,32.581V45.9h-6V14.1h6v12.48h6V14.1h6V45.9h-6V32.581Z" transform="translate(-1.8 -13.74)"></path><path d="M367.7,32.581V39.9h12v6h-18V14.1h18v6h-12v6.48h9.48v6Z" transform="translate(-1.8 -13.74)"></path><path d="M407.118,46.26H401a6.018,6.018,0,0,1-6-6v-3h6v3h6V33.48h-6c-3.48,0-6-2.4-6-5.52V19.621c0-3.3,3.3-5.88,6.6-5.88h4.92a6.018,6.018,0,0,1,6,6V23.1h-6v-3H401V27.96h6.119A5.593,5.593,0,0,1,413,33.48V40.2A5.93,5.93,0,0,1,407.118,46.26Z" transform="translate(-1.8 -13.74)"></path><path d="M430.578,37.62h-5.04L422.3,25.081V45.9h-6V14.1h9.059l2.7,10.32,2.7-10.32h9.059V45.9h-6V25.081Z" transform="translate(-1.8 -13.74)"></path><path d="M461.417,20.041V45.9h-6v-9h-6v9h-6V20.041a5.929,5.929,0,0,1,6-5.94h6A5.966,5.966,0,0,1,461.417,20.041Zm-6,.06h-6V30.9h6Z" transform="translate(-1.8 -13.74)"></path><path d="M471.018,14.1V39.9H479v6H465.018V14.1Z" transform="translate(-1.8 -13.74)"></path><path d="M487.7,14.1V39.9h7.98v6H481.7V14.1Z" transform="translate(-1.8 -13.74)"></path><path d="M13.859,96.26H8.34c-3.3,0-6.54-2.7-6.54-6.06V64.1h6V90.26h6V64.1h6V90.2A5.98,5.98,0,0,1,13.859,96.26Z" transform="translate(-1.8 -13.74)"></path><path d="M36.658,88.1,29.4,75.381V95.9h-6V64.1h6l7.2,12.66V64.1h6V95.9h-6V88.1Z" transform="translate(-1.8 -13.74)"></path><path d="M52.2,82.581V89.9h12v6h-18V64.1h18v6h-12v6.48h9.48v6Z" transform="translate(-1.8 -13.74)"></path><path d="M73.438,95.9h-6.96L74.817,80,66.478,64.1h6.96l4.8,9.9,4.8-9.9H90L81.657,80,90,95.9H83.037l-4.8-9.3Z" transform="translate(-1.8 -13.74)"></path><path d="M110.876,70.041V95.9h-6v-9h-6v9h-6V70.041a5.929,5.929,0,0,1,6-5.94h6A5.966,5.966,0,0,1,110.876,70.041Zm-6,.06h-6V80.9h6Z" transform="translate(-1.8 -13.74)"></path><path d="M128.756,87.62h-5.04l-3.239-12.539V95.9h-6V64.1h9.059l2.7,10.32,2.7-10.32H138V95.9h-6V75.081Z" transform="translate(-1.8 -13.74)"></path><path d="M141.6,64.1h6V95.9h-6Z" transform="translate(-1.8 -13.74)"></path><path d="M164.455,88.1,157.2,75.381V95.9h-6V64.1h6l7.2,12.66V64.1h6V95.9h-6V88.1Z" transform="translate(-1.8 -13.74)"></path><path d="M180,82.581V89.9h12v6H174V64.1h18v6H180v6.48h9.48v6Z" transform="translate(-1.8 -13.74)"></path><path d="M212.993,70.041v19.8a5.979,5.979,0,0,1-5.939,6.06h-12.06V64.1h11.58C209.874,64.1,212.993,66.741,212.993,70.041Zm-6,19.859V70.1h-6V89.9Z" transform="translate(-1.8 -13.74)"></path><path d="M240.593,90.26V86.9h6v3.3a6.03,6.03,0,0,1-6,6.06h-5.52c-3.3,0-6.479-2.7-6.479-6.06V70.041a6.708,6.708,0,0,1,6.479-6.3h5.52a6.281,6.281,0,0,1,6,6.3v3.42h-6V70.1h-6V90.26Z" transform="translate(-1.8 -13.74)"></path><path d="M255.893,82.581V95.9h-6V64.1h6v12.48h6V64.1h6V95.9h-6V82.581Z" transform="translate(-1.8 -13.74)"></path><path d="M289.191,69.681V90.2c0,3.36-3.179,6.06-6.479,6.06h-5.52a6.031,6.031,0,0,1-6-6.06V69.681c0-3.3,3.18-6,6.48-5.94h5.519A5.967,5.967,0,0,1,289.191,69.681Zm-6,20.579V70.1h-6V90.26Z" transform="translate(-1.8 -13.74)"></path><path d="M292.491,64.1h6V95.9h-6Z" transform="translate(-1.8 -13.74)"></path><path d="M313.79,90.26V86.9h6v3.3a6.03,6.03,0,0,1-6,6.06h-5.519c-3.3,0-6.48-2.7-6.48-6.06V70.041a6.709,6.709,0,0,1,6.48-6.3h5.519a6.281,6.281,0,0,1,6,6.3v3.42h-6V70.1h-6V90.26Z" transform="translate(-1.8 -13.74)"></path><path d="M329.091,82.581V89.9h12v6h-18V64.1h18v6h-12v6.48h9.479v6Z" transform="translate(-1.8 -13.74)"></path><path d="M355.909,96.26H349.79a6.018,6.018,0,0,1-6-6v-3h6v3h6V83.48h-6c-3.48,0-6-2.4-6-5.52V69.621c0-3.3,3.3-5.88,6.6-5.88h4.92a6.018,6.018,0,0,1,6,6V73.1h-6v-3h-5.52V77.96h6.119a5.593,5.593,0,0,1,5.88,5.52V90.2A5.93,5.93,0,0,1,355.909,96.26Z" transform="translate(-1.8 -13.74)"></path><path d="M390.769,95.9h-8.46l-5.7-31.8h6.6l3.6,21.659,3.3-21.659h6.18l3.239,21.659,3.6-21.659h6.6l-5.64,31.8h-8.521l-2.4-13.98Z" transform="translate(-1.8 -13.74)"></path><path d="M418.248,82.581V89.9h12v6h-18V64.1h18v6h-12v6.48h9.48v6Z" transform="translate(-1.8 -13.74)"></path><path d="M460.126,87.62h-5.039l-3.24-12.539V95.9h-6V64.1h9.059l2.7,10.32,2.7-10.32h9.059V95.9h-6V75.081Z" transform="translate(-1.8 -13.74)"></path><path d="M490.966,70.041V95.9h-6v-9h-6v9h-6V70.041a5.928,5.928,0,0,1,6-5.94h6A5.966,5.966,0,0,1,490.966,70.041Zm-6,.06h-6V80.9h6Z" transform="translate(-1.8 -13.74)"></path><path d="M510.406,82.7a5.663,5.663,0,0,1,2.159,4.38V95.9h-6V86.12h-6V95.9h-6V64.1h6v16.02h6V64.1h6v13.98A5.962,5.962,0,0,1,510.406,82.7Z" transform="translate(-1.8 -13.74)"></path><path d="M522.165,82.581V89.9h12v6h-18V64.1h18v6h-12v6.48h9.48v6Z" transform="translate(-1.8 -13.74)"></path><path d="M68.128,132.581V139.9h12v6h-18V114.1h18v6h-12v6.48h9.479v6Z" transform="translate(-1.8 -13.74)"></path><path d="M94.286,136.061l5.34-21.96h6.6l-8.581,31.8H90.927l-8.52-31.8h6.6Z" transform="translate(-1.8 -13.74)"></path><path d="M115.107,132.581V139.9h12v6h-18V114.1h18v6h-12v6.48h9.48v6Z" transform="translate(-1.8 -13.74)"></path><path d="M142.526,136.9l5.579,9h-6.719l-5.28-8.52v8.52h-6V114.1h12a5.966,5.966,0,0,1,6,5.94v10.8A6.037,6.037,0,0,1,142.526,136.9Zm-6.42-6h6V120.1h-6Z" transform="translate(-1.8 -13.74)"></path><path d="M157.466,135.22l-7.56-21.119h6l4.56,12.66,4.559-12.66h6l-7.559,21.119V145.9h-6Z" transform="translate(-1.8 -13.74)"></path><path d="M203.424,120.041v19.8a5.98,5.98,0,0,1-5.94,6.06H185.425V114.1h11.58C200.305,114.1,203.424,116.741,203.424,120.041Zm-6,19.859V120.1h-6v19.8Z" transform="translate(-1.8 -13.74)"></path><path d="M224.724,120.041V145.9h-6v-9h-6v9h-6V120.041a5.928,5.928,0,0,1,6-5.94h6A5.966,5.966,0,0,1,224.724,120.041Zm-6,.06h-6v10.8h6Z" transform="translate(-1.8 -13.74)"></path><path d="M234.083,135.22l-7.56-21.119h6l4.56,12.66,4.56-12.66h6l-7.56,21.119V145.9h-6Z" transform="translate(-1.8 -13.74)"></path><path d="M275.122,145.9h-8.459l-5.7-31.8h6.6l3.6,21.659,3.3-21.659h6.18l3.239,21.659,3.6-21.659h6.6l-5.64,31.8h-8.519l-2.4-13.98Z" transform="translate(-1.8 -13.74)"></path><path d="M296.6,114.1h6v31.8h-6Z" transform="translate(-1.8 -13.74)"></path><path d="M312.2,114.1v25.8h7.98v6H306.2V114.1Z" transform="translate(-1.8 -13.74)"></path><path d="M328.881,114.1v25.8h7.979v6H322.881V114.1Z" transform="translate(-1.8 -13.74)"></path><path d="M370.159,135.041v4.319c0,3.36-2.7,6.54-6,6.54h-12V114.1h11.279a5.967,5.967,0,0,1,6,5.94V124a6.764,6.764,0,0,1-2.939,5.52A6.054,6.054,0,0,1,370.159,135.041Zm-12-14.94v6.48h5.279V120.1Zm6,12.48h-6V139.9h6Z" transform="translate(-1.8 -13.74)"></path><path d="M385.52,146.26H380c-3.3,0-6.54-2.7-6.54-6.06V114.1h6V140.26h6V114.1h6v26.1A5.98,5.98,0,0,1,385.52,146.26Z" transform="translate(-1.8 -13.74)"></path><path d="M395.06,114.1h6v31.8h-6Z" transform="translate(-1.8 -13.74)"></path><path d="M410.659,114.1v25.8h7.98v6h-13.98V114.1Z" transform="translate(-1.8 -13.74)"></path><path d="M439.338,120.041v19.8a5.98,5.98,0,0,1-5.94,6.06H421.339V114.1h11.58C436.219,114.1,439.338,116.741,439.338,120.041Zm-6,19.859V120.1h-6v19.8Z" transform="translate(-1.8 -13.74)"></path><path d="M473.237,120.041V145.9h-6v-9h-6v9h-6V120.041a5.929,5.929,0,0,1,6-5.94h6A5.966,5.966,0,0,1,473.237,120.041Zm-6,.06h-6v10.8h6Z" transform="translate(-1.8 -13.74)"></path><path d="M75.357,187.62h-5.04l-3.239-12.539V195.9h-6V164.1h9.06l2.7,10.32,2.7-10.32H84.6v31.8h-6V175.081Z" transform="translate(-1.8 -13.74)"></path><path d="M105.9,169.681V190.2c0,3.36-3.179,6.06-6.479,6.06H93.9a6.031,6.031,0,0,1-6-6.06V169.681c0-3.3,3.18-6,6.48-5.94H99.9A5.966,5.966,0,0,1,105.9,169.681Zm-6,20.579V170.1h-6V190.26Z" transform="translate(-1.8 -13.74)"></path><path d="M123.477,187.62h-5.04l-3.24-12.539V195.9h-6V164.1h9.06l2.7,10.32,2.7-10.32h9.06v31.8h-6V175.081Z" transform="translate(-1.8 -13.74)"></path><path d="M142.317,182.581V189.9h12v6h-18V164.1h18v6h-12v6.48h9.48v6Z" transform="translate(-1.8 -13.74)"></path><path d="M170.576,188.1l-7.26-12.719V195.9h-6V164.1h6l7.2,12.66V164.1h6v31.8h-6v-7.8Z" transform="translate(-1.8 -13.74)"></path><path d="M185.517,195.9V170.1h-6v-6h18v6h-6v25.8Z" transform="translate(-1.8 -13.74)"></path><path d="M212.575,196.26h-5.519c-3.3,0-6.54-2.7-6.54-6.06V164.1h6V190.26h6V164.1h6v26.1A5.98,5.98,0,0,1,212.575,196.26Z" transform="translate(-1.8 -13.74)"></path><path d="M236.4,187.62h-5.041l-3.239-12.539V195.9h-6V164.1h9.06l2.7,10.32,2.7-10.32h9.06v31.8h-6V175.081Z" transform="translate(-1.8 -13.74)"></path><path d="M261.834,164.1h6v31.8h-6Z" transform="translate(-1.8 -13.74)"></path><path d="M284.693,188.1l-7.259-12.719V195.9h-6V164.1h6l7.2,12.66V164.1h6v31.8h-6v-7.8Z" transform="translate(-1.8 -13.74)"></path><path d="M324.531,169.681V190.2c0,3.36-3.179,6.06-6.479,6.06h-5.52a6.031,6.031,0,0,1-6-6.06V169.681c0-3.3,3.18-6,6.48-5.94h5.519A5.967,5.967,0,0,1,324.531,169.681Zm-6,20.579V170.1h-6V190.26Z" transform="translate(-1.8 -13.74)"></path><path d="M339.892,196.26h-5.52c-3.3,0-6.54-2.7-6.54-6.06V164.1h6V190.26h6V164.1h6v26.1A5.98,5.98,0,0,1,339.892,196.26Z" transform="translate(-1.8 -13.74)"></path><path d="M361.851,186.9l5.579,9h-6.72l-5.279-8.52v8.52h-6V164.1h12a5.966,5.966,0,0,1,6,5.94v10.8A6.038,6.038,0,0,1,361.851,186.9Zm-6.42-6h6V170.1h-6Z" transform="translate(-1.8 -13.74)"></path><path d="M389.629,164.1v25.8h7.979v6H383.629V164.1Z" transform="translate(-1.8 -13.74)"></path><path d="M400.31,164.1h6v31.8h-6Z" transform="translate(-1.8 -13.74)"></path><path d="M421.067,186.061l5.34-21.96h6.6l-8.58,31.8h-6.72l-8.52-31.8h6.6Z" transform="translate(-1.8 -13.74)"></path><path d="M441.889,182.581V189.9h12v6h-18V164.1h18v6h-12v6.48h9.479v6Z" transform="translate(-1.8 -13.74)"></path><path d="M468.707,196.26h-6.119a6.018,6.018,0,0,1-6-6v-3h6v3h6v-6.78h-6c-3.481,0-6-2.4-6-5.52v-8.339c0-3.3,3.3-5.88,6.6-5.88h4.919a6.018,6.018,0,0,1,6,6v3.36h-6v-3h-5.519v7.859h6.119a5.593,5.593,0,0,1,5.88,5.52v6.72A5.93,5.93,0,0,1,468.707,196.26Z" transform="translate(-1.8 -13.74)"></path></g></svg> 