<?xml version="1.0" encoding="UTF-8"?> <svg xmlns="http://www.w3.org/2000/svg" width="329" height="331" viewBox="0 0 329 331" fill="none"><path d="M271.531 10.6131C272.741 11.218 272.741 11.8229 273.432 12.5143C274.037 13.7242 274.642 13.1192 275.333 14.4155C276.543 15.0205 275.938 15.6254 276.543 16.9217L278.358 18.7365C279.568 19.9464 279.568 19.3415 280.864 19.9464C281.469 21.1563 282.074 21.1563 282.765 21.8476C283.975 23.0575 283.37 23.0575 284.667 24.3538L286.568 25.5637C287.173 26.7736 287.173 26.7736 288.469 27.4649L289.593 29.9711C290.802 30.576 291.494 30.576 292.099 31.181C293.309 32.3908 293.309 31.7859 294 33.0822C295.21 33.6871 294.605 34.2921 295.21 35.5884C296.42 36.1933 296.42 36.1933 297.111 37.4896C298.321 38.0946 298.321 38.0946 299.617 39.3908L301.518 40.6007C302.123 41.8106 302.123 41.8106 303.42 42.502C304.025 43.7118 303.42 44.4032 304.63 45.0081C305.235 46.218 305.839 45.6131 307.136 46.218C307.741 47.4279 307.741 47.4279 309.037 48.1192C309.642 49.3291 309.037 50.0205 310.247 50.6254C310.852 51.8353 311.457 51.2304 312.148 52.5266C313.358 53.1316 312.753 53.7365 314.049 54.4279C314.654 55.6378 315.259 55.0328 316.556 55.6378C317.16 56.8476 316.556 57.539 317.765 58.1439C318.37 59.3538 318.37 59.3538 319.667 60.0452C320.272 61.255 320.877 60.6501 321.568 61.255C322.173 62.4649 322.778 63.1563 323.469 63.7612C324.074 64.9711 324.074 65.6625 324.679 66.2674C325.284 66.8723 326.58 67.4773 326.58 68.1686C327.185 69.3785 327.185 70.0699 327.185 71.2797C327.79 71.8847 327.185 73.181 327.79 73.7859C327.79 74.9958 328.395 75.6871 328.395 76.2921C328.395 77.502 327.79 78.1933 327.79 79.4032C327.79 80.6131 328.395 80.6131 328.395 81.9094C328.395 83.2057 329 83.1192 329 84.4155C329 85.6254 327.79 85.6254 327.79 87.5266C327.79 88.7365 328.395 88.7365 328.395 90.0328V92.539C328.395 93.7489 327.79 93.7489 327.79 95.0452C327.79 96.255 328.395 96.255 328.395 97.5513C328.395 99.4526 327.79 99.4526 327.79 100.662C327.79 101.872 329 101.872 329 103.169C329 104.465 328.395 104.378 328.395 105.675V108.181V111.292C328.395 112.502 327.79 112.502 327.79 113.798C327.79 115.095 328.395 115.008 328.395 116.304C328.395 117.514 329 117.514 329 118.811C329 120.02 328.395 120.02 328.395 121.922V124.428C328.395 125.638 329 125.638 329 126.934C329 128.23 328.395 128.144 328.395 129.44V131.946C328.395 133.848 327.79 133.848 327.79 135.058C327.79 136.267 329 136.267 329 137.564V140.07C329 141.28 327.79 141.28 327.79 142.576C327.79 143.786 328.395 143.786 328.395 145.687V148.193V150.699C328.395 151.909 329 151.909 329 153.206V155.712V158.823C329 160.033 327.79 160.033 327.79 161.329V163.835C327.79 165.045 329 165.045 329 166.341C329 167.638 328.395 167.551 328.395 169.453C328.395 170.662 327.79 170.662 327.79 171.959V174.465C327.79 175.675 329 175.675 329 176.971V179.477C329 181.378 328.395 181.378 328.395 182.588V185.095V187.601C328.395 188.811 327.79 188.811 327.79 190.107C327.79 191.403 328.395 191.317 328.395 193.218C328.395 194.428 329 194.428 329 195.724C329 196.934 328.395 196.934 328.395 198.23C328.395 199.527 329 199.44 329 200.737C329 201.946 328.395 201.946 328.395 203.243C328.395 205.144 329 205.144 329 206.354C329 207.564 328.395 207.564 328.395 208.86V211.366C328.395 212.576 329 212.576 329 213.872C329 215.169 328.395 215.082 328.395 216.983C328.395 218.193 327.79 218.193 327.79 219.49C327.79 220.786 329 220.699 329 221.996C329 223.206 328.395 223.206 328.395 224.502V227.008V230.119C328.395 231.329 329 231.329 329 232.625C329 233.835 327.79 233.835 327.79 235.132V237.638C327.79 238.848 329 238.848 329 240.749V243.255C329 244.465 328.395 244.465 328.395 245.761V248.267C328.395 249.477 329 249.477 329 250.774C329 252.675 328.395 252.675 328.395 253.885V256.391V258.897C328.395 260.107 327.79 260.107 327.79 261.403C327.79 262.613 328.395 262.613 328.395 264.514C328.395 265.724 329 265.724 329 267.02C329 268.23 327.79 268.23 327.79 269.527C327.79 270.737 328.395 270.737 328.395 272.033C328.395 273.329 329 273.243 329 275.144V277.65C329 278.86 328.395 278.86 328.395 280.156V282.662V285.169C328.395 287.07 327.79 287.07 327.79 288.28C327.79 289.49 328.395 289.49 328.395 290.786V293.292V295.798V298.909C328.395 300.119 329 300.119 329 301.416C329 302.625 327.79 302.625 327.79 303.922V306.428C327.79 307.638 328.395 307.638 328.395 308.934V312.045V314.551C328.395 315.761 329 315.761 329 317.058C329 318.267 328.395 318.267 328.395 319.564C328.395 320.774 329 320.774 329 322.675L328.395 325.181C327.79 326.391 327.185 327.687 326.494 328.292C325.889 328.897 324.593 328.292 323.383 328.897C322.778 329.502 322.173 330.107 320.877 330.107C319.667 330.107 318.975 329.502 318.37 328.897C317.16 328.897 315.864 328.292 315.259 327.687C314.654 327.082 314.654 325.786 314.049 325.181L313.444 322.675C313.444 320.774 312.839 320.774 312.839 319.564V317.058V314.551C312.839 312.65 313.444 312.65 313.444 311.44V308.934C313.444 307.724 312.839 307.724 312.839 306.428V303.317C312.839 302.107 313.444 302.107 313.444 300.811C313.444 299.601 312.839 299.601 312.839 298.304V295.193V292.687C312.839 291.477 313.444 291.477 313.444 290.181V287.07C313.444 285.86 312.839 285.86 312.839 284.564C312.839 283.354 314.049 283.354 314.049 282.058C314.049 281.453 313.444 280.156 312.839 279.551C312.839 278.341 313.444 277.65 312.839 277.045C312.839 275.835 312.235 275.144 311.63 274.539L311.025 272.033C310.42 271.428 309.123 271.428 308.518 270.823C307.914 270.218 307.914 269.613 306.617 268.922C306.012 268.317 305.407 268.317 304.716 268.317C303.506 267.712 303.506 266.416 302.21 266.416L299.704 267.02H297.198C295.988 267.02 295.988 265.811 294.691 265.811C293.481 265.811 293.481 266.416 292.185 266.416H289.074H286.568H284.062H281.556C280.346 266.416 280.346 267.02 279.049 267.02C277.839 267.02 277.84 265.811 276.543 265.811C274.642 265.811 274.642 266.416 273.432 266.416H270.926H268.42C267.21 266.416 266.518 266.416 265.309 267.02C264.704 267.02 264.099 267.625 262.802 268.23C262.198 268.835 261.593 268.835 260.296 269.44L258.395 270.65C257.185 271.86 257.185 271.86 256.494 273.156L253.988 274.366L252.086 276.267L250.185 278.169C248.975 279.379 249.58 279.379 248.284 280.675L247.074 282.576C245.864 283.786 245.173 283.181 244.568 283.786C243.358 284.996 243.963 285.687 243.358 286.292C242.148 287.502 242.148 286.897 240.852 288.193C240.247 288.798 240.247 289.403 238.951 290.095L237.741 291.996C236.531 293.206 236.531 293.206 235.235 293.897L234.025 296.403C232.815 297.008 232.123 296.403 231.519 297.008C230.309 298.218 230.914 298.909 230.309 300.119C229.099 300.724 228.407 300.119 227.198 300.724C226.593 301.934 227.198 302.625 225.988 303.23C225.383 304.44 225.383 304.44 224.086 305.132C223.481 306.341 223.481 306.341 222.185 307.638C221.58 308.243 220.975 307.638 220.284 308.848C219.074 309.453 219.679 310.057 218.383 310.749C217.778 311.959 217.778 311.959 216.481 312.65C215.877 313.86 215.272 313.86 214.58 314.551C213.37 315.761 213.975 315.761 212.679 317.058L210.778 318.267C210.173 319.477 209.568 319.477 208.877 320.169L206.975 322.07L205.074 324.576C204.469 325.181 203.173 324.576 202.568 325.181C201.358 325.786 200.667 326.391 200.062 326.391C199.457 326.996 198.16 326.996 197.556 326.996C196.346 327.601 195.654 328.206 195.049 328.897H191.938C191.333 328.897 190.728 329.502 189.432 329.502C188.222 329.502 188.222 328.897 186.926 328.897H184.42C183.21 328.897 183.21 328.292 181.309 328.292C180.099 328.292 180.099 328.897 178.802 328.897C177.593 328.897 177.593 329.502 176.296 329.502H173.79C172.58 329.502 172.58 328.897 171.284 328.897H168.173C166.963 328.897 166.963 329.502 165.667 329.502H163.16C161.951 329.502 161.951 328.897 160.654 328.897C159.444 328.897 159.444 329.502 158.148 329.502H155.642C153.741 329.502 153.741 328.897 152.531 328.897C151.321 328.897 151.321 329.502 150.025 329.502C148.728 329.502 148.815 328.897 147.519 328.897C146.309 328.897 146.309 329.502 145.012 329.502H142.679H139.568H137.062C135.852 329.502 135.852 328.897 134.556 328.897H132.049C130.84 328.897 130.84 329.502 129.543 329.502H126.432C125.222 329.502 125.222 328.897 123.926 328.897C122.63 328.897 122.716 328.292 121.42 328.292C120.123 328.292 120.21 329.502 118.914 329.502C117.617 329.502 117.704 328.897 116.407 328.897H113.296H110.79C109.58 328.897 109.58 329.502 108.284 329.502H105.778C104.568 329.502 104.568 328.897 103.272 328.897C101.975 328.897 102.062 329.502 100.16 329.502H97.6543C96.4444 329.502 96.4444 328.897 95.1481 328.897H92.642C91.4321 328.897 91.4321 329.502 90.1358 329.502H87.6296H84.5185H82.0123C80.8025 329.502 80.8025 328.897 79.5062 328.897H77C75.7901 328.897 75.7901 328.292 74.4938 328.292C72.5926 328.292 72.5926 328.897 71.3827 328.897C70.7778 328.897 69.4815 328.897 68.8765 328.292C67.6667 328.292 66.3704 328.292 65.7654 327.687L63.8642 326.477L61.963 324.576C60.7531 323.366 61.358 322.675 60.7531 322.07C59.5432 320.86 59.5432 321.465 58.2469 320.86C57.642 319.65 57.642 318.959 57.037 318.354L55.1358 316.453L53.2346 314.551C52.0247 313.341 52.0247 313.946 51.3333 312.65C50.1235 312.045 50.7284 311.44 49.4321 310.749C48.8272 309.539 48.2222 310.144 46.9259 309.539L45.716 307.033L43.2099 305.823C42.6049 304.613 42.6049 304.613 41.3086 303.922C40.7037 302.712 41.3086 302.02 40.0988 301.416C39.4938 300.206 38.8889 300.811 38.1975 299.514C36.9877 298.909 37.5926 298.304 36.2963 297.613C35.6914 296.403 35.0864 297.613 33.7901 296.403C33.1852 295.798 33.7901 294.502 33.1852 293.897C31.9753 292.687 31.2839 293.292 30.679 292.687C29.4691 291.477 30.0741 291.477 28.7778 290.181L26.8765 288.971C26.2716 287.761 25.6667 287.761 24.9753 287.07C23.7654 285.86 23.7654 286.465 23.0741 285.169C21.8642 284.564 22.4691 283.959 21.8642 282.662C20.6543 282.057 19.963 282.662 19.358 281.453C18.1481 280.848 18.1481 280.243 17.4568 279.551L14.9506 278.341L13.7407 275.835C12.5309 275.23 13.1358 274.625 11.8395 273.934C11.2346 272.724 10.6296 273.329 9.93827 272.033C8.72839 271.428 9.33333 270.823 8.03704 270.132L6.1358 268.23C5.53086 267.625 5.53086 266.329 4.92593 265.724C4.32099 265.119 3.71605 264.514 3.02469 263.218C3.02469 262.613 1.81481 262.008 1.81481 261.317C1.20988 260.107 1.81481 258.811 1.81481 258.206C1.20988 256.996 0.604938 256.304 0.604938 255.699V252.588V250.082V247.576V244.465V241.959V239.453C0.604938 238.243 1.20988 238.243 1.20988 236.341C1.20988 235.132 0.604938 235.132 0.604938 233.835C0.604938 232.625 0 232.625 0 231.329C0 230.119 0.604938 230.119 0.604938 228.218V225.712C0.604938 224.502 0 224.502 0 223.206C0 221.996 0.604938 221.996 0.604938 220.699V217.588C0.604938 216.378 0 216.378 0 215.082C0 213.872 0.604938 213.872 0.604938 212.576C0.604938 211.28 1.20988 211.366 1.20988 209.465C1.20988 208.255 0.604938 208.255 0.604938 206.959V204.453C0.604938 203.243 0 202.551 0 201.341L0.604938 198.835C1.20988 197.625 2.50617 196.934 2.50617 196.329C3.11111 195.724 2.50617 194.428 3.11111 193.218C3.11111 192.613 3.71605 192.008 4.32099 190.712L6.22222 188.811L8.12346 186.909L10.0247 185.008C11.2346 183.798 10.6296 183.798 11.9259 182.502C12.5309 181.897 13.1358 182.502 14.4321 181.292C15.037 180.082 14.4321 180.082 15.642 178.786C16.2469 178.181 16.8519 178.181 18.1481 177.576C18.7531 176.366 18.1481 176.366 19.358 175.07L21.2593 173.169C21.8642 172.564 22.4691 172.564 23.1605 171.267L25.6667 170.058L26.8765 168.156C28.0864 166.946 28.0864 166.946 29.3827 166.255C29.9877 165.045 29.9876 165.045 31.2839 164.354L32.4938 161.848L35 160.638L36.2099 158.132L38.716 156.922C39.321 155.712 39.9259 156.317 40.6173 155.02C41.8272 154.416 41.2222 153.811 41.8272 152.514L44.3333 151.304C44.9383 150.095 44.9383 150.095 46.2346 149.403C47.4444 148.193 46.8395 148.193 47.4444 146.897C48.6543 146.292 48.6543 146.292 49.9506 144.996L51.8518 143.786C52.4568 142.576 53.0617 142.576 53.7531 141.885L55.6543 139.983C56.8642 138.774 56.2593 138.774 57.5556 137.477L58.7654 135.576C59.9753 134.366 59.9753 134.971 61.2716 133.675L63.1728 132.465C64.3827 131.86 65.0741 131.255 65.679 130.564C66.284 129.959 66.8889 129.354 68.1852 128.662C68.7901 128.662 69.3951 128.662 70.6914 128.058C71.2963 128.058 71.9012 127.453 73.1975 126.848L75.7037 126.243C76.9136 126.243 77.6049 126.848 78.8148 126.848C80.0247 126.848 80.0247 126.243 81.321 126.243H83.9136C85.1235 126.243 85.1235 125.638 86.4197 125.638H89.5309C90.7407 125.638 90.7407 126.243 92.037 126.243H94.5432H97.0494H100.16H102.667H105.173H107.679H110.185C112.086 126.243 112.086 126.848 113.296 126.848C114.506 126.848 114.506 126.243 115.802 126.243C117.012 126.243 117.012 126.848 118.309 126.848C119.519 126.848 119.519 125.638 120.815 125.638C122.025 125.638 122.025 126.848 123.926 126.848C125.136 126.848 125.136 126.243 126.432 126.243C127.728 126.243 127.642 126.848 128.938 126.848C130.148 126.848 130.148 126.243 131.444 126.243H133.951C135.852 126.243 135.852 126.848 137.062 126.848C138.272 126.848 138.272 126.243 139.568 126.243H142.074C143.284 126.243 143.284 126.848 144.58 126.848C145.877 126.848 145.79 125.638 147.691 125.638C148.901 125.638 148.901 126.243 150.198 126.243C151.494 126.243 151.407 125.638 152.704 125.638C154 125.638 153.914 126.243 155.21 126.243H157.716H160.827C162.037 126.243 162.037 125.638 163.333 125.638C164.543 125.638 164.543 126.848 165.84 126.848C167.049 126.848 167.049 126.243 168.346 126.243H171.457H173.963H176.469C177.679 126.243 177.679 126.848 178.975 126.848C180.185 126.848 180.185 126.243 181.481 126.243H184.593H187.099H189.605C190.815 126.243 190.815 125.638 192.111 125.638C193.321 125.638 193.321 126.243 195.222 126.243C196.432 126.243 196.432 126.848 197.728 126.848C199.025 126.848 198.938 126.243 200.235 126.243H202.741C203.951 126.243 203.951 126.848 205.247 126.848H208.358C209.568 126.848 209.568 126.243 210.864 126.243H213.37H215.877C217.086 126.243 217.086 126.848 218.383 126.848H221.494H224C225.21 126.848 225.21 126.243 226.506 126.243C227.716 126.243 227.716 126.848 229.012 126.848H232.123H234.63H237.136C238.346 126.848 239.037 126.848 239.642 126.243C240.852 126.243 241.543 125.638 242.148 125.033C243.358 125.033 244.049 124.428 244.654 123.823C245.259 123.218 246.556 123.218 247.16 122.613L249.062 120.712C249.062 119.502 249.667 118.811 249.667 118.206L250.877 115.095C250.877 114.49 250.272 113.885 250.272 112.588C250.272 111.292 251.481 111.378 251.481 110.082C251.481 108.872 250.272 108.872 250.272 107.576C250.272 106.28 250.877 106.366 250.877 105.07C250.877 103.86 251.481 103.86 251.481 101.959C251.481 100.749 250.877 100.749 250.877 99.4526C250.877 98.1563 250.272 98.2427 250.272 96.9464C250.272 95.6501 250.877 95.7365 250.877 94.4402C250.877 93.2303 250.272 93.2303 250.272 91.9341C250.272 90.6378 251.481 90.7242 251.481 89.4279V86.3168V83.8106C251.481 82.6007 250.877 82.6007 250.877 81.3044L250.272 78.7982C250.272 77.5884 249.667 76.897 249.667 75.6871C249.062 75.0822 249.062 74.4773 248.457 73.181L246.556 71.2797L245.346 69.3785C244.136 68.1686 244.136 68.1686 243.444 66.8723C242.235 66.2674 242.839 65.6625 241.543 64.9711C240.333 63.7612 240.938 63.7612 239.642 63.0699C239.037 61.86 238.432 62.4649 237.136 61.1686L235.235 59.2674L234.025 57.3661C232.815 56.1563 232.815 56.7612 231.519 55.4649L230.309 53.5637C229.099 52.3538 228.407 52.9587 227.802 51.6624C226.593 51.0575 227.198 50.4526 225.901 49.7612C225.296 48.5513 225.296 48.5513 224 47.86C223.395 46.6501 223.395 46.6501 222.099 45.9587L220.889 43.4526C219.679 42.8476 219.679 42.8476 218.988 41.5513C217.778 40.9464 218.383 40.3415 217.086 39.6501C216.481 38.4402 215.877 39.0452 214.58 37.7489L212.679 35.8476L210.778 33.9464L208.877 32.0452L207.667 30.1439C206.457 28.9341 206.457 28.9341 205.765 27.6378C204.556 27.0328 203.864 27.6378 203.259 26.4279C202.049 25.8229 202.654 25.8229 201.358 24.5266C200.753 23.9217 200.148 23.9217 199.457 22.6254C198.247 22.0205 198.852 21.4155 197.556 20.7242L195.654 18.218C195.049 17.6131 193.753 17.6131 193.148 17.6131L190.037 16.4032L187.531 15.7983H185.025C183.123 15.7983 183.123 16.4032 181.914 16.4032C180.704 16.4032 180.704 15.7983 179.407 15.7983H176.901H174.395C173.185 15.7983 173.185 16.4032 171.889 16.4032H169.383C168.173 16.4032 168.173 15.7983 166.272 15.7983C165.062 15.7983 165.062 16.4032 163.765 16.4032C162.469 16.4032 162.556 15.7983 161.259 15.7983H158.753H156.247C155.037 15.7983 155.037 16.4032 153.741 16.4032C152.444 16.4032 152.531 15.7983 151.235 15.7983C149.333 15.7983 149.333 16.4032 148.123 16.4032H145.617C144.407 16.4032 144.407 15.1933 143.111 15.1933C141.815 15.1933 141.21 16.4032 140.605 16.4032L137.494 17.6131C136.889 17.6131 135.593 17.6131 134.988 18.218C133.778 18.8229 133.778 19.4279 133.086 20.7242L130.58 21.9341L129.37 24.4402C128.16 25.0452 128.16 25.0452 127.469 26.3415C126.259 27.5513 126.864 27.5513 125.568 28.2427C124.963 29.4526 124.358 28.8476 123.062 29.4526C122.457 30.6625 121.852 30.6625 121.16 31.3538C119.951 32.5637 120.556 33.255 119.951 33.86C118.741 35.0699 118.741 34.4649 117.444 35.0699C116.84 36.2797 116.235 36.2797 115.543 36.9711C114.333 38.181 114.938 38.181 113.642 39.4773C113.037 40.0822 112.432 40.0822 111.741 41.3785C110.531 41.9834 111.136 41.9834 109.84 43.2797C109.235 43.8847 108.63 43.8847 107.938 45.181C106.728 45.7859 107.333 45.7859 106.037 47.0822C105.432 47.6871 104.827 47.6871 103.531 48.2921L102.321 50.7983C101.111 51.4032 101.716 51.4032 100.42 52.6995L99.2099 55.2057C98 55.8106 97.3086 55.2057 96.7037 56.4155C95.4938 57.0205 95.4938 57.0205 94.8025 58.3168C93.5926 58.9217 93.5926 58.9217 92.9012 60.218C91.6914 60.8229 92.2963 61.4279 91 62.7242C90.3951 63.3291 89.7901 62.7242 89.0988 63.9341C87.8889 64.539 88.4938 65.1439 87.1975 65.8353C86.5926 67.0452 86.5926 67.0452 85.2963 68.3415L83.9136 70.5884C83.3086 71.1933 82.7037 70.5884 81.4074 71.7983C80.8025 72.4032 80.8025 73.0081 79.5062 73.6995L77.6049 75.6007C77 76.2057 75.7037 76.2057 75.0988 76.2057C74.4938 76.8106 73.1975 77.4155 72.5926 77.4155C71.9876 78.0205 70.6914 78.6254 70.0864 78.6254C68.8765 78.6254 68.1852 79.2304 67.5802 79.2304C66.3704 79.2304 65.679 78.6254 64.4691 78.6254H61.963H59.4568C57.5555 78.6254 57.5555 79.2304 56.3457 79.2304C55.1358 79.2304 55.1358 78.6254 53.8395 78.6254H51.3333H48.8272H45.716C44.5062 78.6254 44.5062 78.0205 43.2099 78.0205C42 78.0205 42 78.6254 40.7037 78.6254C39.4938 78.6254 39.4938 79.2304 38.1975 79.2304H35.6914H32.5802C31.3704 79.2304 31.3704 78.6254 30.0741 78.6254H27.5679C26.358 78.6254 26.358 79.2304 25.0617 79.2304H21.9506C20.7407 79.2304 20.7407 78.0205 19.4444 78.0205C18.2346 78.0205 18.2346 78.6254 16.9383 78.6254H14.4321H11.9259C10.716 78.6254 10.716 78.0205 8.81482 78.0205L6.30864 78.6254L3.19753 77.502C2.59259 76.897 2.59259 75.6007 1.98765 74.3908C1.98765 73.7859 1.38272 72.4896 0.777778 71.8847C0.777778 70.6748 1.38272 69.9834 1.98765 68.7736C2.59259 68.1686 2.59259 67.5637 3.88889 66.2674C4.49383 65.6625 5.09877 66.2674 6.39506 65.0575C7 64.4526 6.39506 63.8476 7 62.5513C8.20988 61.9464 8.20988 61.9464 8.90123 60.6501C10.1111 60.0452 10.8025 60.6501 11.4074 59.4402C12.6173 58.8353 12.0123 58.2304 13.3086 57.539C13.9136 56.3291 14.5185 56.9341 15.2099 55.6378C16.4198 55.0328 15.8148 54.4279 16.4198 53.1316C17.6296 52.5266 17.6296 52.5266 18.321 51.2304C19.5309 50.6254 19.5309 50.6254 20.2222 49.3291L22.5556 48.1192C23.1605 46.9094 23.1605 47.5143 24.4568 46.218C25.0617 45.6131 25.6667 45.6131 26.358 44.3168L28.2593 42.4155L30.1605 40.5143L32.0617 38.6131L33.2716 36.7118C34.4815 35.502 33.8765 35.502 35.1728 34.2057C35.7778 33.6007 36.3827 34.2057 37.679 32.9958L39.5802 31.7859L40.7901 29.2797C42 28.6748 42 28.6748 43.2963 27.3785C43.9012 26.7736 43.2963 26.1686 44.5062 25.4773C45.1111 24.2674 45.716 24.8723 46.4074 23.576L48.9136 22.3662C49.5185 21.1563 48.9136 20.4649 50.1235 19.86C50.7284 18.6501 51.3333 19.255 52.0247 17.9587L54.5309 16.7489L55.7407 14.2427C56.9506 13.6378 56.3457 13.0328 56.9506 12.3415C58.1605 11.1316 58.1605 11.7365 59.4568 10.4402L61.358 9.23035C61.963 8.02048 62.5679 8.02048 63.2593 7.32912C64.4691 6.72418 65.1605 6.11924 65.7654 6.11924C66.9753 5.5143 66.9753 4.21801 67.6667 3.61307C68.8765 3.61307 69.5679 3.61307 70.7778 3.00813C71.3827 3.00813 71.9876 2.40319 73.2839 1.79826H75.7901H78.9012C80.1111 1.79826 80.1111 1.19332 81.4074 1.19332H83.9136H87.0247C88.2346 1.19332 88.2346 1.79826 89.5309 1.79826C90.8272 1.79826 90.7407 1.19332 92.037 1.19332H94.5432C96.4444 1.19332 96.4444 1.79826 97.6543 1.79826C98.8642 1.79826 98.8642 1.19332 100.16 1.19332H102.667H105.173C107.074 1.19332 107.074 1.79826 108.284 1.79826H110.79C112 1.79826 112 1.19332 113.296 1.19332C114.506 1.19332 114.506 1.79826 116.407 1.79826C117.617 1.79826 117.617 1.19332 118.914 1.19332C120.21 1.19332 120.123 1.79826 121.42 1.79826C122.716 1.79826 122.63 1.19332 123.926 1.19332C125.222 1.19332 125.136 0.588379 127.037 0.588379C128.247 0.588379 128.247 1.79826 129.543 1.79826H132.049H134.556H137.667C138.877 1.79826 138.877 1.19332 140.173 1.19332H142.679C143.889 1.19332 143.889 0.588379 145.185 0.588379C147.086 0.588379 147.086 1.79826 148.296 1.79826H150.802H153.309H156.42C157.63 1.79826 157.63 1.19332 158.926 1.19332C160.222 1.19332 160.136 1.79826 161.432 1.79826C162.728 1.79826 162.642 1.19332 163.938 1.19332H167.049H169.556H172.062H174.568C176.469 1.19332 176.469 1.79826 177.679 1.79826C178.889 1.79826 178.889 1.19332 180.185 1.19332C181.395 1.19332 181.395 1.79826 182.691 1.79826H185.198C187.099 1.79826 187.099 1.19332 188.309 1.19332C189.519 1.19332 189.519 1.79826 190.815 1.79826C192.025 1.79826 192.025 1.19332 193.321 1.19332C194.531 1.19332 194.531 1.79826 195.827 1.79826C197.728 1.79826 197.728 1.19332 198.938 1.19332C200.148 1.19332 200.148 1.79826 201.444 1.79826H203.951H207.062C208.272 1.79826 208.272 1.19332 209.568 1.19332H212.074C213.284 1.19332 213.284 1.79826 214.58 1.79826C215.79 1.79826 215.79 1.19332 217.691 1.19332C218.901 1.19332 218.901 1.79826 220.198 1.79826H222.704H225.21H228.321H230.827C232.037 1.79826 232.037 0.588379 233.333 0.588379C234.543 0.588379 234.543 1.19332 235.839 1.19332H238.951C240.16 1.19332 240.16 1.79826 241.457 1.79826H243.963H247.074C248.284 1.79826 248.284 1.19332 249.58 1.19332C250.79 1.19332 250.79 1.79826 252.086 1.79826H254.593C255.802 1.79826 256.494 1.79826 257.704 2.40319C258.309 2.40319 258.914 3.00813 260.21 3.61307C260.815 3.61307 262.111 3.00813 262.716 3.61307C263.926 4.21801 264.617 4.82295 265.222 4.82295L267.728 6.72418C268.333 7.32912 268.333 8.62542 268.938 9.23035C270.235 10.6131 270.235 10.0081 271.531 10.6131ZM74.4938 183.798C75.7037 182.588 75.7037 182.588 76.3951 181.292L78.2963 180.082C79.5062 179.477 79.5062 179.477 80.1975 178.181C81.4074 177.576 80.8025 176.971 82.0988 176.28L83.3086 173.774L85.2099 172.564L87.1111 170.662C88.321 169.453 88.321 170.057 89.6173 169.453C90.2222 168.243 90.2222 168.243 91.5185 167.551C92.1235 166.946 91.5185 165.65 92.1235 165.045C92.7284 164.44 93.3333 163.835 93.3333 163.144C93.9383 162.539 95.2346 161.934 95.2346 161.243C95.2346 160.033 95.8395 159.341 95.8395 158.737V156.23C95.8395 155.02 95.2346 154.329 95.2346 153.724C94.6296 152.514 95.2346 151.823 94.6296 151.218C94.6296 150.008 93.4197 150.008 92.7284 149.317C92.7284 148.712 92.1235 148.107 91.5185 147.416C90.9136 146.811 90.9136 145.514 90.3086 145.514C89.7037 144.909 88.4074 144.909 87.8025 144.304C87.1975 144.304 86.5926 143.699 85.2963 143.095C84.6914 143.095 84.0864 142.49 83.3951 142.49C82.1852 142.49 81.4938 141.885 80.8889 141.885C79.679 141.885 78.9876 143.095 77.7778 143.095C77.1728 143.095 76.5679 143.699 75.2716 143.699C74.6667 144.304 73.3704 143.699 72.7654 144.304C71.5555 144.909 70.8642 145.514 70.2593 146.206C69.6543 147.416 69.0494 146.811 68.358 148.107C67.1481 148.712 67.7531 149.317 67.1481 150.613C65.9383 151.218 65.9383 151.218 65.2469 152.514C64.037 153.119 64.037 153.119 63.3457 154.416L60.8395 155.625L58.9383 157.527L57.037 158.737C56.4321 159.946 56.4321 159.946 55.1358 161.243L53.9259 163.144C52.716 163.749 52.716 163.749 51.4198 165.045L50.2099 166.946C49 167.551 49.6049 168.156 48.3086 168.848C47.7037 170.058 47.0988 169.453 45.8025 170.058C45.1975 171.267 45.1975 171.267 43.9012 171.959L42.6914 173.86L40.7901 175.761C39.5802 176.971 40.1852 176.971 38.8889 178.267L36.9877 179.477C36.3827 180.687 35.7778 180.082 35.0864 181.378C33.8765 181.983 34.4815 182.588 33.8765 183.885L31.3704 185.095L29.4691 186.304C28.2593 187.514 28.8642 187.514 27.5679 188.811L26.358 190.712C25.7531 191.922 25.1481 191.317 23.8519 192.613L21.9506 194.514L20.0494 195.724C19.4444 196.934 18.8395 196.934 18.1481 198.23C17.5432 198.835 17.5432 200.132 16.9383 200.737C16.9383 201.946 15.7284 202.638 15.7284 203.243V206.354V208.86C15.7284 210.07 15.1235 210.07 15.1235 211.366C15.1235 213.267 15.7284 213.267 15.7284 214.477V216.983V219.49V221.996V224.502V227.008C15.7284 228.909 15.1235 228.909 15.1235 230.119C15.1235 231.329 15.7284 231.329 15.7284 232.625V235.132C15.7284 236.341 16.3333 236.341 16.3333 237.638C16.3333 238.848 15.7284 238.848 15.7284 240.144C15.7284 241.354 15.1235 241.354 15.1235 242.65C15.1235 243.86 15.7284 243.86 15.7284 245.761C15.7284 246.971 15.1235 246.971 15.1235 248.267C15.1235 249.477 15.7284 249.477 15.7284 250.774C15.7284 251.378 15.1235 252.675 15.7284 253.885C15.7284 254.49 16.9383 255.095 16.9383 256.391L18.8395 258.292C19.4444 259.502 19.4444 260.798 20.0494 261.403C20.6543 262.008 21.2593 262.008 21.9506 263.304C23.1605 263.909 22.5556 263.909 23.8519 265.206L25.7531 267.107C26.358 267.712 26.963 267.107 28.2593 268.317L30.1605 270.218L32.0617 271.428C32.6667 272.638 32.0617 273.329 33.2716 273.934C33.8765 275.144 33.8765 275.144 35.1728 275.835C35.7778 277.045 35.7778 277.045 37.0741 277.737C37.679 278.946 37.679 278.946 38.9753 279.638C39.5802 280.243 40.1852 280.848 41.4815 281.539C42.0864 282.144 42.6914 282.749 43.3827 282.749C44.5926 283.354 45.2839 283.354 46.4938 283.354H49H52.1111L54.6173 282.749C55.8272 282.144 56.5185 281.539 57.1235 280.848C57.7284 280.848 59.0247 280.243 59.6296 279.638C60.2346 279.033 60.8395 277.737 60.8395 277.132C61.4444 276.527 62.0494 275.922 62.7407 274.625L63.3457 272.119C63.3457 270.909 62.7407 270.218 62.7407 269.008C62.7407 267.798 63.9506 267.798 63.9506 266.502C63.9506 265.292 63.3457 265.292 63.3457 263.996C63.3457 262.095 63.9506 262.095 63.9506 260.885C63.9506 259.675 63.3457 259.675 63.3457 258.378C63.3457 257.169 63.9506 257.169 63.9506 255.872C63.9506 253.971 63.3457 253.971 63.3457 252.761C63.3457 251.551 63.9506 251.551 63.9506 250.255C63.9506 249.045 62.7407 249.045 62.7407 247.749V244.638C62.7407 243.428 63.9506 243.428 63.9506 242.132C63.9506 240.922 63.3457 240.922 63.3457 239.625V236.514C63.3457 235.304 63.9506 235.304 63.9506 234.008V231.329V228.823V225.712C63.9506 224.502 62.7407 224.502 62.7407 223.206C62.7407 221.996 63.3457 221.996 63.3457 220.699C63.3457 219.49 62.7407 219.49 62.7407 217.588C62.7407 216.378 63.9506 216.378 63.9506 215.082C63.9506 213.872 63.3457 213.872 63.3457 212.576V209.465C63.3457 208.255 62.7407 208.255 62.7407 206.959C62.7407 205.662 63.9506 205.749 63.9506 204.453C63.9506 203.243 63.3457 202.551 63.9506 201.341V198.835C64.5555 198.23 65.1605 196.934 65.1605 196.329C65.7654 195.724 65.1605 194.428 65.7654 193.218L66.9753 191.317C67.5802 190.107 68.1852 189.416 68.8765 188.811C69.4815 188.206 70.7778 188.206 71.3827 187.601L72.5926 185.095L74.4938 183.798ZM92.642 39.9958C92.642 39.3908 93.2469 38.7859 93.2469 38.0946C93.8519 36.8847 95.1481 36.8847 95.1481 36.1933C95.7531 34.9834 95.1481 34.2921 95.7531 33.6871V31.181C95.7531 29.9711 95.7531 29.2797 95.1481 28.6748C95.1481 27.4649 93.9383 26.7736 93.9383 26.1686L92.7284 24.2674C92.7284 23.6625 92.1235 23.0575 91.5185 22.3662C90.9136 21.7612 90.9136 20.4649 90.3086 19.86C89.7037 19.255 89.0988 18.6501 88.4074 18.6501C87.8025 18.0452 86.5062 17.4402 85.9012 17.4402C85.2963 16.8353 84 16.8353 83.3951 16.8353H80.8889H77.7778C77.1728 17.4402 75.8765 18.0452 75.2716 18.0452C74.6667 18.6501 74.0617 19.255 72.7654 19.9464L70.8642 21.1563L68.963 23.0575L67.0617 24.9587C65.8518 26.1686 65.8518 25.5637 64.5555 26.86L63.3457 28.7612C62.1358 29.3662 62.1358 29.3662 61.4444 30.6625C60.2346 31.2674 60.2346 31.2674 59.5432 32.5637C58.3333 33.1686 58.9383 33.7736 57.642 34.4649C57.037 35.6748 56.4321 35.0699 55.1358 35.6748C54.5309 36.8847 55.1358 36.8847 53.9259 38.181L52.0247 39.3908C51.4197 39.9958 51.4198 41.2921 50.8148 41.897C50.2099 42.502 48.9136 43.1069 48.9136 43.7983C48.3086 44.4032 48.3086 45.0081 48.3086 46.3044C48.3086 46.9094 47.7037 47.5143 47.7037 48.2057C47.0988 49.4155 48.3086 50.1069 48.3086 50.7118C48.3086 51.9217 48.3086 52.6131 48.9136 53.218C48.9136 54.4279 48.3086 55.1192 48.9136 55.7242C48.9136 56.3291 49.5185 57.6254 50.1235 58.2304L51.3333 60.1316L53.2346 62.0328C53.8395 62.6378 54.4444 63.2427 55.1358 63.2427C55.7407 63.8476 56.3457 64.4526 57.642 64.4526C58.2469 64.4526 58.8518 65.0575 60.1481 65.0575C60.7531 65.0575 61.358 64.4526 62.6543 64.4526H65.1605C66.3704 63.8476 67.0617 63.8476 67.6667 63.2427C68.8765 63.2427 70.1728 63.2427 70.7778 62.6378L73.2839 60.7365L75.1852 58.8353C75.7901 58.2304 75.1852 57.6254 76.3951 56.3291C77 55.7242 77.6049 56.3291 78.2963 55.1192C79.5062 54.5143 79.5062 54.5143 80.1975 53.218C81.4074 52.6131 81.4074 52.6131 82.0988 51.3168L84 50.1069C85.2099 48.897 84.6049 48.2057 85.2099 47.6007L87.1111 45.6995C88.321 45.0946 88.321 44.4896 89.0123 43.7983C90.2222 42.5884 90.9136 43.7983 91.5185 42.5884C92.037 41.897 92.037 40.6007 92.642 39.9958ZM250.877 248.267C250.877 246.366 250.272 246.366 250.272 245.156V242.564V240.058V236.946C250.272 235.737 250.877 235.737 250.877 234.44V231.934V229.428V226.317C250.877 225.107 250.272 225.107 250.272 223.811V221.304C250.272 220.095 250.877 220.095 250.877 218.193V215.687V213.181C250.877 211.971 250.272 211.971 250.272 210.675C250.272 208.774 250.877 208.774 250.877 207.564C250.877 206.354 250.272 206.354 250.272 205.058V202.551C250.272 201.341 250.877 201.341 250.877 199.44V196.934C250.877 195.724 251.481 195.724 251.481 194.428C251.481 193.218 250.877 193.218 250.877 191.922V188.811V186.304V183.798V180.687C250.877 179.477 251.481 179.477 251.481 178.181C251.481 176.971 250.272 176.971 250.272 175.675C250.272 174.465 250.877 174.465 250.877 173.169C250.877 171.267 250.272 171.267 250.272 170.058C250.272 168.848 250.877 168.848 250.877 167.551C250.877 166.255 251.481 166.341 251.481 165.045C251.481 163.835 250.877 163.835 250.877 161.934C250.877 160.724 250.272 160.724 250.272 159.428C250.272 158.132 250.877 158.218 250.877 156.922V154.416C250.877 153.206 250.272 152.514 249.667 151.909C249.667 151.304 250.272 150.008 249.667 149.403C249.062 148.798 248.457 147.502 248.457 146.897L246.556 144.996C245.951 144.391 244.654 144.391 244.049 143.786C243.444 143.181 242.84 143.181 242.148 143.181C240.938 142.576 240.938 141.28 239.642 141.28L237.136 141.885C235.926 141.885 235.926 141.28 234.63 141.28H231.519H229.012C227.802 141.28 227.802 141.885 226.506 141.885C225.296 141.885 225.296 141.28 224 141.28C222.099 141.28 222.099 141.885 220.889 141.885H218.383C217.173 141.885 217.173 140.675 215.877 140.675C214.667 140.675 214.667 141.885 212.765 141.885H210.259C209.049 141.885 209.049 141.28 207.753 141.28H205.247H202.136C200.926 141.28 200.926 141.885 199.63 141.885H197.123H194.012C192.802 141.885 192.802 141.28 191.506 141.28C190.21 141.28 190.296 140.675 189 140.675C187.79 140.675 187.79 141.885 186.494 141.885C184.593 141.885 184.593 141.28 183.383 141.28H180.877H178.37H175.259H172.753H170.247H167.741C165.84 141.28 165.839 140.675 164.63 140.675C163.42 140.675 163.42 141.28 162.123 141.28H159.617C158.407 141.28 158.407 141.885 156.506 141.885C155.296 141.885 155.296 141.28 154 141.28H151.494H148.988C147.086 141.28 147.086 141.885 145.877 141.885C144.667 141.885 144.667 141.28 143.37 141.28C142.074 141.28 141.469 141.885 140.259 141.885C139.654 141.885 138.358 142.49 137.753 143.095C137.148 143.095 135.852 143.699 135.247 144.304C134.642 144.909 133.346 144.909 132.741 145.514L130.84 147.416C129.63 148.625 130.235 148.625 128.938 149.922L127.037 151.132C126.432 152.341 126.432 152.341 125.136 153.033L123.926 155.539C122.716 156.144 122.716 156.749 122.025 157.44C120.815 158.045 120.815 158.045 120.123 159.341L117.617 160.551C117.012 161.761 117.012 161.761 115.716 162.453C115.111 163.662 115.716 163.662 114.506 164.959C113.901 165.564 113.296 165.564 112 166.169L110.099 168.07L108.889 169.971C107.679 171.181 107.679 170.576 106.383 171.872L104.481 173.082C103.877 174.292 104.481 174.983 103.272 175.588L102.062 178.095L99.5555 179.304C98.9506 180.514 98.9506 180.514 97.6543 181.206C97.0494 182.416 96.4444 181.811 95.7531 183.107L93.8518 184.317C92.642 185.527 93.2469 186.218 92.642 186.823L90.7407 188.724C89.5309 189.934 88.8395 189.329 88.2346 189.934L86.3333 191.835C85.7284 193.045 85.7284 193.045 84.4321 193.737L83.2222 196.243C82.0123 196.848 81.321 196.848 80.716 198.144C80.1111 198.749 80.1111 200.045 79.5062 200.65C79.5062 201.86 78.9012 202.551 78.9012 203.761L78.2963 206.267C78.2963 207.477 78.9012 207.477 78.9012 208.774C78.9012 210.675 78.2963 210.675 78.2963 211.885V214.391C78.2963 215.601 77.6914 215.601 77.6914 216.897C77.6914 218.193 78.9012 218.107 78.9012 220.008V222.514C78.9012 223.724 78.2963 223.724 78.2963 225.02V227.527C78.2963 229.428 77.6914 229.428 77.6914 230.638C77.6914 231.848 78.2963 231.848 78.2963 233.144C78.2963 234.354 78.9012 234.354 78.9012 235.65V238.761C78.9012 239.971 78.2963 239.971 78.2963 241.267V243.774C78.2963 244.983 77.6914 244.983 77.6914 246.28C77.6914 248.181 78.2963 248.181 78.2963 249.391V251.897V254.403V257.514C78.2963 258.724 78.9012 258.724 78.9012 260.02C78.9012 261.23 78.2963 261.23 78.2963 262.527C78.2963 263.737 77.6914 263.737 77.6914 265.033C77.6914 266.934 78.2963 266.934 78.2963 268.144V270.65V273.156V276.267C78.2963 277.477 77.6914 277.477 77.6914 278.774C77.6914 279.983 78.9012 279.983 78.9012 281.28C78.9012 282.49 78.2963 282.49 78.2963 283.786C78.2963 285.687 77.6914 285.687 77.6914 286.897C77.6914 288.107 78.2963 288.107 78.2963 289.403C78.2963 290.613 78.9012 290.613 78.9012 291.909C78.9012 293.119 78.2963 293.119 78.2963 295.02V297.527V300.033C78.2963 301.243 77.6914 301.934 77.6914 302.539C78.2963 303.749 78.9012 304.44 79.5926 305.045C79.5926 305.65 79.5926 306.946 80.1975 307.551L82.0988 309.453L84 311.354C84.6049 311.959 85.2099 312.564 85.9012 312.564C87.1111 313.169 87.8025 312.564 89.0123 313.169C89.6173 313.169 90.2222 313.169 91.5185 313.774H94.0247C95.2346 313.774 95.2346 314.378 96.5309 314.378C97.7407 314.378 97.7407 313.774 99.037 313.774H102.148C103.358 313.774 103.358 314.378 104.654 314.378C105.951 314.378 105.864 313.774 107.16 313.774H109.667H112.778C113.988 313.774 113.988 314.378 115.284 314.378H117.79C119.691 314.378 119.691 313.774 120.901 313.774C122.111 313.774 122.111 314.378 123.407 314.378C124.617 314.378 124.617 313.774 125.914 313.774C127.123 313.774 127.123 314.378 128.42 314.378C130.321 314.378 130.321 313.774 131.531 313.774C132.741 313.774 132.741 313.169 134.037 313.169C135.247 313.169 135.247 314.378 136.543 314.378H139.654H142.16H144.667C145.877 314.378 145.877 313.774 147.173 313.774H150.284C151.494 313.774 151.494 313.169 152.79 313.169C154.086 313.169 154 314.378 155.296 314.378H158.407H160.914H163.42C164.63 314.378 164.63 313.774 165.926 313.774C167.827 313.774 167.827 314.378 169.037 314.378C170.247 314.378 170.247 313.774 171.543 313.774H174.049H177.16H179.667H182.173C183.383 313.774 183.383 314.378 184.679 314.378C186.58 314.378 186.58 313.774 187.79 313.774H190.296C191.506 313.774 192.198 313.774 193.407 313.169C194.012 313.169 194.617 311.959 195.309 311.267C195.914 311.267 197.21 311.267 198.42 310.662L199.63 308.156C200.839 307.551 200.84 307.551 201.531 306.255C202.741 305.65 202.136 305.045 203.432 304.354C204.037 303.144 204.642 303.749 205.938 303.144L207.148 300.638L209.654 299.428C210.259 298.218 209.654 297.527 210.864 296.317L212.765 294.416C213.37 293.811 213.975 294.416 215.272 293.206L216.481 291.304C217.691 290.095 217.691 290.699 218.988 289.403C219.593 288.193 219.593 288.798 220.889 287.502L222.79 285.601L224.691 283.699C225.296 283.095 225.901 283.095 226.593 281.798C227.802 281.193 226.593 280.588 227.802 279.292C228.407 278.082 229.012 278.687 229.704 277.391C230.914 276.786 230.914 276.786 231.605 275.49C232.815 274.885 233.506 275.49 234.111 274.28C235.321 273.675 234.716 273.07 236.012 272.378C236.617 271.169 236.617 271.169 237.914 270.477C239.123 269.267 238.519 269.267 239.123 267.971C240.333 267.366 241.025 267.366 241.63 266.761L243.531 264.86L245.432 262.959C246.642 261.749 246.642 262.354 247.333 261.057C248.543 260.453 247.938 259.156 248.543 258.551C249.148 257.341 249.753 256.65 249.753 256.045C250.358 254.835 250.358 254.144 250.358 252.934C250.358 252.329 251.568 251.033 251.568 250.428C251.481 249.477 250.877 249.477 250.877 248.267ZM313.358 235.132V232.625C313.358 231.416 313.963 231.416 313.963 229.514C313.963 228.304 313.358 228.304 313.358 227.008V224.502V221.996V218.885V216.378C313.358 215.169 313.963 215.169 313.963 213.872C313.963 212.576 312.753 212.662 312.753 211.366C312.753 210.07 313.358 210.156 313.358 208.255C313.358 207.045 312.753 207.045 312.753 205.749C312.753 204.539 313.358 204.539 313.358 203.243C313.358 201.946 313.963 202.033 313.963 200.737C313.963 199.527 313.358 199.527 313.358 198.23C313.358 196.329 312.753 196.329 312.753 195.119C312.753 193.909 313.358 193.909 313.358 192.613V190.107C313.358 188.897 312.753 188.897 312.753 187.601C312.753 185.699 313.963 185.699 313.963 184.49V181.983C313.963 180.774 313.358 180.774 313.358 179.477C313.358 178.267 312.753 178.267 312.753 176.971V173.86C312.753 172.65 313.963 172.65 313.963 171.354C313.963 170.058 313.358 170.144 313.358 168.848C313.358 167.551 313.963 167.638 313.963 166.341V163.23V160.724C313.963 159.514 312.753 159.514 312.753 158.218C312.753 156.922 313.358 157.008 313.358 155.712V153.206V150.095C313.358 148.885 313.963 148.885 313.963 147.588C313.963 146.292 312.753 146.378 312.753 145.082C312.753 143.872 313.358 143.872 313.358 142.576C313.358 140.675 313.963 140.675 313.963 139.465C313.963 138.255 313.358 138.255 313.358 136.959V134.453C313.358 133.243 312.753 133.243 312.753 131.946V128.835V126.329C312.753 125.119 313.358 125.119 313.358 123.823C313.358 122.613 313.963 122.613 313.963 121.317C313.963 120.02 312.753 120.107 312.753 118.206C312.753 116.996 313.358 116.996 313.358 115.699V113.193V110.687V108.181V105.07V102.564V100.058C313.358 98.8476 313.963 98.8476 313.963 97.5513V94.4402C313.963 93.2303 313.358 93.2303 313.358 91.9341C313.358 90.6378 312.753 90.7242 312.753 89.4279C312.753 88.218 313.963 88.218 313.963 86.9217C313.963 85.6254 313.358 85.7118 313.358 83.8106V81.3044L312.753 78.7982C312.753 77.5884 313.358 76.2921 312.753 75.6871C312.753 75.0822 311.543 74.4773 310.852 73.181C310.852 72.576 310.247 71.9711 309.642 71.2797L307.741 69.3785C306.531 68.1686 307.136 68.1686 305.839 66.8723L303.938 64.9711L302.037 63.7612C300.827 62.5513 300.827 62.5513 300.136 61.255C298.926 60.6501 298.926 60.6501 298.235 59.3538L295.728 58.1439C295.123 56.9341 295.123 56.9341 293.827 56.2427C293.222 55.0328 293.222 55.0328 291.926 53.7365L290.716 51.8353C289.506 51.2304 289.506 50.6254 288.815 49.9341C287.605 48.7242 287.605 49.3291 286.309 48.0328L285.099 46.1316L283.198 44.2304L281.296 42.3291C280.086 41.1192 280.086 41.1192 279.395 39.8229C278.185 39.218 278.79 39.218 277.494 37.9217C276.889 37.3168 276.284 37.3168 274.988 36.7118C274.383 35.502 273.778 36.1069 273.086 34.8106C271.877 34.2057 271.877 34.2057 271.185 32.9094C269.975 32.3044 270.58 31.6995 269.284 31.0081L268.074 28.502C266.864 27.897 266.864 27.897 266.173 26.6007C264.963 25.9958 264.272 25.9958 263.667 25.3908L261.765 23.4896C260.556 22.2797 261.16 21.5884 260.556 20.9834L258.049 19.0822C257.444 18.4773 256.148 17.8723 255.543 17.8723C254.333 17.2674 253.642 17.2674 252.432 17.2674L249.926 16.6625C248.716 16.6625 248.025 17.2674 247.42 17.2674C246.21 17.2674 245.519 17.8723 244.914 17.8723C244.309 18.4773 243.012 18.4773 242.407 18.4773L241.198 20.3785L238.691 22.2797C238.691 22.8847 238.086 23.4896 237.481 24.181C236.877 24.7859 236.272 24.7859 235.58 26.0822L236.185 28.5884C235.58 29.1933 235.58 29.7983 235.58 31.0945C235.58 31.6995 234.975 32.3044 234.975 33.6007C234.975 34.2057 234.975 34.8106 235.58 35.502V38.0081C236.185 39.218 237.481 39.218 238.086 39.9094C238.086 40.5143 238.691 41.1192 239.296 41.8106C240.506 42.4155 240.506 42.4155 241.198 43.7118C242.407 44.3168 241.802 44.9217 242.407 45.6131L244.309 47.5143C245.519 48.7242 244.914 48.7242 246.21 49.4155C246.815 50.6254 247.42 50.0205 248.111 51.3168L250.012 53.218L251.914 55.1192L253.815 56.3291C254.42 57.539 255.025 56.9341 255.716 58.2304C256.926 58.8353 256.321 59.4402 256.926 60.1316C257.531 61.3415 257.531 61.3415 258.827 62.6378L260.728 63.8476C261.333 64.4526 261.333 65.7489 261.938 66.3538C262.543 66.9587 263.148 67.5637 263.84 68.86C263.84 69.4649 264.444 70.0699 264.444 71.3662C265.049 71.9711 264.444 73.2674 265.049 73.8723C265.049 75.0822 265.654 75.7736 265.654 76.3785C266.259 77.5884 265.654 78.2797 265.654 79.4896C265.654 80.6995 265.049 80.6995 265.049 81.9958C265.049 83.2921 265.654 83.2057 265.654 84.502C265.654 85.7118 266.259 85.7118 266.259 87.6131C266.259 88.8229 265.654 88.8229 265.654 90.1192V92.6254V95.1316C265.654 96.3415 265.049 96.3415 265.049 97.6378C265.049 99.539 265.654 99.539 265.654 100.749C265.654 101.959 265.049 101.959 265.049 103.255C265.049 104.551 265.654 104.465 265.654 105.761V108.267C265.654 109.477 265.049 109.477 265.049 111.378C265.049 112.588 265.654 112.588 265.654 113.885V116.391V118.897V121.403V124.514V127.02C265.654 128.23 265.049 128.23 265.049 129.527C265.049 130.823 265.654 130.737 265.654 132.033V135.144C265.654 136.354 266.259 136.354 266.259 137.65C266.259 138.946 265.654 138.86 265.654 140.156C265.654 141.453 265.049 141.366 265.049 142.662C265.049 143.872 265.654 143.872 265.654 145.169C265.654 147.07 265.049 147.07 265.049 148.28C265.049 149.49 265.654 149.49 265.654 150.786C265.654 152.082 265.049 151.996 265.049 153.292C265.049 154.588 265.654 154.502 265.654 155.798C265.654 157.008 266.259 157.008 266.259 158.909C266.259 160.119 265.049 160.119 265.049 161.416C265.049 162.712 265.654 162.625 265.654 163.922C265.654 165.132 265.049 165.132 265.049 166.428V168.934C265.049 170.835 266.259 170.835 266.259 172.045C266.259 173.255 265.654 173.255 265.654 174.551C265.654 175.761 266.259 175.761 266.259 177.058C266.259 178.354 265.049 178.267 265.049 179.564V182.675V185.181V187.687C265.049 188.897 265.654 188.897 265.654 190.193C265.654 191.49 265.049 191.403 265.049 192.699C265.049 194.601 265.654 194.601 265.654 195.811C265.654 197.02 266.259 197.02 266.259 198.317C266.259 199.613 265.654 199.527 265.654 200.823V203.329V206.44C265.654 207.65 265.049 207.65 265.049 208.946C265.049 210.243 265.654 210.156 265.654 211.453V213.959C265.654 215.169 265.049 215.169 265.049 216.465C265.049 218.366 266.259 218.366 266.259 219.576C266.259 220.786 265.049 220.786 265.049 222.082C265.049 223.292 265.654 223.292 265.654 224.588C265.654 225.798 265.049 225.798 265.049 227.095C265.049 228.391 265.654 228.304 265.654 229.601C265.654 231.502 265.049 231.502 265.049 232.712C265.049 233.922 265.654 233.922 265.654 235.218C265.654 236.428 265.049 236.428 265.049 237.724C265.049 238.934 266.259 239.625 266.259 240.23L266.864 242.737C267.469 243.341 266.864 244.638 267.469 245.243L269.37 247.144L271.272 249.045C271.877 249.65 272.481 249.65 273.778 250.255L275.679 251.465C276.889 251.465 277.58 252.07 278.79 252.07H281.296C282.506 252.07 282.506 250.86 283.802 250.86C285.012 250.86 285.012 251.465 286.309 251.465H288.815C290.025 251.465 290.025 252.07 291.321 252.07H294.432H296.938C298.148 252.07 298.148 251.465 299.444 251.465C300.654 251.465 301.346 252.07 301.951 252.07L305.062 250.86C305.667 250.86 306.272 250.255 307.568 249.65L309.469 248.44C310.074 247.835 310.074 246.539 310.679 245.329C311.284 244.724 311.889 244.119 311.889 243.428C312.494 242.218 312.494 241.527 312.494 240.317C312.494 239.712 313.704 239.107 313.704 237.811C314.049 236.341 314.049 236.341 313.358 235.132Z" fill="black"></path></svg> 