<?xml version="1.0" encoding="UTF-8"?> <svg xmlns="http://www.w3.org/2000/svg" width="766" height="264" viewBox="0 0 766 264" fill="none"><path d="M2.76379 21V15.75H8.01379V5.25H2.76379V0H23.7638V5.25H18.5138V10.5H23.7638V21H2.76379Z" fill="black"></path><path d="M30.3788 21V5.25H25.1288V0H46.1288V5.25H40.8788V15.75H35.6288V21H30.3788Z" fill="black"></path><path d="M50.8571 6.00879L50.4367 11.4229H49.278L48.8576 6.00879H50.8571Z" fill="black"></path><path d="M48.3461 21V15.75H58.8461V10.5H69.3461V21H48.3461ZM48.3461 10.5V5.25H53.5961V0H69.3461V5.25H58.8461V10.5H48.3461Z" fill="black"></path><path d="M77.3261 21V5.25H82.5761V0H98.3261V21H93.0761V15.75H87.8261V10.5H93.0761V5.25H87.8261V10.5H82.5761V15.75H87.8261V21H77.3261Z" fill="black"></path><path d="M122.056 15.75V10.5H116.806V5.25H111.556V10.5H116.806V15.75H122.056ZM106.306 21V0H122.056V5.25H127.306V21H106.306Z" fill="black"></path><path d="M128.671 21V0H149.671V10.5H144.421V5.25H133.921V10.5H139.171V15.75H149.671V21H128.671Z" fill="black"></path><path d="M151.036 21V5.25H156.286V0H172.036V21H166.786V15.75H161.536V10.5H166.786V5.25H161.536V10.5H156.286V15.75H161.536V21H151.036Z" fill="black"></path><path d="M173.401 21V0H178.651V10.5H183.901V15.75H189.151V21H173.401ZM189.151 15.75V0H194.401V15.75H189.151Z" fill="black"></path><path d="M201.016 21V5.25H195.766V0H216.766V5.25H211.516V15.75H206.266V21H201.016Z" fill="black"></path><path d="M218.131 21V15.75H223.381V5.25H218.131V0H239.131V5.25H233.881V10.5H239.131V21H218.131Z" fill="black"></path><path d="M240.496 21V0H261.496V5.25H245.746V10.5H256.246V15.75H250.996V21H240.496Z" fill="black"></path><path d="M262.861 21V0H268.111V10.5H273.361V15.75H278.611V21H262.861ZM278.611 15.75V0H283.861V15.75H278.611Z" fill="black"></path><path d="M285.226 21V0H290.476V15.75H295.726V10.5H306.226V21H285.226Z" fill="black"></path><path d="M319.456 21V5.25H314.206V0H335.206V5.25H329.956V15.75H324.706V21H319.456Z" fill="black"></path><path d="M336.571 21V0H341.821V10.5H352.321V0H357.571V21H352.321V15.75H347.071V21H336.571Z" fill="black"></path><path d="M358.936 21V15.75H364.186V5.25H358.936V0H379.936V5.25H374.686V10.5H379.936V21H358.936Z" fill="black"></path><path d="M381.301 21V0H391.801V10.5H386.551V21H381.301ZM397.051 21V15.75H391.801V10.5H397.051V0H402.301V21H397.051Z" fill="black"></path><path d="M403.666 21V0H424.666V5.25H408.916V15.75H414.166V10.5H424.666V21H403.666Z" fill="black"></path><path d="M426.031 26.25V21H431.281V26.25H426.031ZM431.281 21V15.75H436.531V21H431.281Z" fill="black"></path><path d="M449.761 21V5.25H444.511V0H465.511V5.25H460.261V15.75H455.011V21H449.761Z" fill="black"></path><path d="M466.876 21V0H472.126V10.5H482.626V0H487.876V21H482.626V15.75H477.376V21H466.876Z" fill="black"></path><path d="M489.241 21V0H510.241V10.5H504.991V5.25H494.491V10.5H499.741V15.75H510.241V21H489.241Z" fill="black"></path><path d="M518.221 21V0H533.971V5.25H523.471V10.5H528.721V15.75H533.971V5.25H539.221V21H518.221Z" fill="black"></path><path d="M540.586 21V0H561.586V10.5H556.336V5.25H545.836V10.5H551.086V15.75H561.586V21H540.586Z" fill="black"></path><path d="M562.951 21V15.75H573.451V10.5H583.951V21H562.951ZM562.951 10.5V5.25H568.201V0H583.951V5.25H573.451V10.5H562.951Z" fill="black"></path><path d="M590.566 21V5.25H585.316V0H606.316V5.25H601.066V15.75H595.816V21H590.566Z" fill="black"></path><path d="M623.431 21V15.75H628.681V21H623.431ZM607.681 21V0H628.681V10.5H623.431V5.25H612.931V10.5H623.431V15.75H618.181V21H607.681Z" fill="black"></path><path d="M630.046 21V0H635.296V10.5H640.546V15.75H645.796V21H630.046ZM645.796 15.75V0H651.046V15.75H645.796Z" fill="black"></path><path d="M652.411 21V0H673.411V5.25H657.661V10.5H662.911V15.75H673.411V21H652.411Z" fill="black"></path><path d="M680.026 21V5.25H674.776V0H695.776V5.25H690.526V15.75H685.276V21H680.026Z" fill="black"></path><path d="M697.141 21V15.75H702.391V5.25H697.141V0H718.141V5.25H712.891V10.5H718.141V21H697.141Z" fill="black"></path><path d="M735.256 15.75V5.25H724.756V10.5H730.006V15.75H735.256ZM719.506 21V0H740.506V21H719.506Z" fill="black"></path><path d="M741.871 21V0H752.371V10.5H747.121V21H741.871ZM757.621 21V15.75H752.371V10.5H757.621V0H762.871V21H757.621Z" fill="black"></path><path d="M35.3724 42.75V32.25H24.8724V37.5H30.1224V42.75H35.3724ZM19.6224 48V27H40.6224V48H19.6224Z" fill="black"></path><path d="M41.9874 48V27H62.9874V32.25H47.2374V37.5H57.7374V42.75H52.4874V48H41.9874Z" fill="black"></path><path d="M81.4674 37.5V32.25H86.7174V37.5H81.4674ZM70.9674 48V27H76.2174V37.5H81.4674V42.75H76.2174V48H70.9674ZM86.7174 48V37.5H91.9674V27H97.2174V48H86.7174Z" fill="black"></path><path d="M114.332 42.75V32.25H103.832V37.5H109.082V42.75H114.332ZM98.5824 48V27H119.582V48H98.5824Z" fill="black"></path><path d="M136.697 48V42.75H141.947V48H136.697ZM120.947 48V27H141.947V37.5H136.697V32.25H126.197V37.5H136.697V42.75H131.447V48H120.947Z" fill="black"></path><path d="M143.312 48V27H159.062V32.25H148.562V37.5H153.812V42.75H159.062V32.25H164.312V48H143.312Z" fill="black"></path><path d="M165.677 48V42.75H176.177V37.5H186.677V48H165.677ZM165.677 37.5V32.25H170.927V27H186.677V32.25H176.177V37.5H165.677Z" fill="black"></path><path d="M188.042 48V42.75H193.292V48H188.042Z" fill="black"></path><path d="M217.022 42.75V32.25H206.522V37.5H211.772V42.75H217.022ZM201.272 48V27H222.272V48H201.272Z" fill="black"></path><path d="M223.637 48V27H244.637V32.25H228.887V37.5H239.387V42.75H234.137V48H223.637Z" fill="black"></path><path d="M252.617 48V27H273.617V32.25H257.867V37.5H263.117V42.75H273.617V48H252.617Z" fill="black"></path><path d="M290.732 42.75V32.25H280.232V37.5H285.482V42.75H290.732ZM274.982 48V27H295.982V48H274.982Z" fill="black"></path><path d="M297.347 48V27H302.597V37.5H307.847V42.75H313.097V48H297.347ZM313.097 42.75V27H318.347V42.75H313.097Z" fill="black"></path><path d="M335.462 48V42.75H340.712V48H335.462ZM319.712 48V27H340.712V37.5H335.462V32.25H324.962V37.5H335.462V42.75H330.212V48H319.712Z" fill="black"></path><path d="M342.077 48V42.75H352.577V37.5H363.077V48H342.077ZM342.077 37.5V32.25H347.327V27H363.077V32.25H352.577V37.5H342.077Z" fill="black"></path><path d="M364.442 48V27H385.442V37.5H380.192V32.25H369.692V37.5H374.942V42.75H385.442V48H364.442Z" fill="black"></path><path d="M398.672 48V32.25H393.422V27H414.422V32.25H409.172V42.75H403.922V48H398.672Z" fill="black"></path><path d="M415.787 48V27H421.037V37.5H431.537V27H436.787V48H431.537V42.75H426.287V48H415.787Z" fill="black"></path><path d="M438.152 48V27H459.152V37.5H453.902V32.25H443.402V37.5H448.652V42.75H459.152V48H438.152Z" fill="black"></path><path d="M467.132 48V27H488.132V32.25H472.382V42.75H477.632V37.5H488.132V48H467.132Z" fill="black"></path><path d="M505.247 48V42.75H510.497V48H505.247ZM489.497 48V27H510.497V37.5H505.247V32.25H494.747V37.5H505.247V42.75H499.997V48H489.497Z" fill="black"></path><path d="M511.862 48V27H532.862V37.5H527.612V32.25H517.112V37.5H522.362V42.75H532.862V48H511.862Z" fill="black"></path><path d="M534.227 48V32.25H539.477V27H555.227V48H549.977V42.75H544.727V37.5H549.977V32.25H544.727V37.5H539.477V42.75H544.727V48H534.227Z" fill="black"></path><path d="M561.842 48V32.25H556.592V27H577.592V32.25H572.342V42.75H567.092V48H561.842Z" fill="black"></path><path d="M596.072 37.5V32.25H601.322V37.5H596.072ZM585.572 48V27H590.822V37.5H596.072V42.75H590.822V48H585.572ZM601.322 48V37.5H606.572V27H611.822V48H601.322Z" fill="black"></path><path d="M613.187 48V32.25H618.437V27H634.187V48H628.937V42.75H623.687V37.5H628.937V32.25H623.687V37.5H618.437V42.75H623.687V48H613.187Z" fill="black"></path><path d="M635.552 48V42.75H646.052V37.5H656.552V48H635.552ZM635.552 37.5V32.25H640.802V27H656.552V32.25H646.052V37.5H635.552Z" fill="black"></path><path d="M663.167 48V32.25H657.917V27H678.917V32.25H673.667V42.75H668.417V48H663.167Z" fill="black"></path><path d="M680.282 48V32.25H685.532V27H701.282V48H696.032V42.75H690.782V37.5H696.032V32.25H690.782V37.5H685.532V42.75H690.782V48H680.282Z" fill="black"></path><path d="M702.647 48V27H723.647V32.25H707.897V42.75H713.147V37.5H723.647V48H702.647Z" fill="black"></path><path d="M725.012 48V27H746.012V37.5H740.762V32.25H730.262V37.5H735.512V42.75H746.012V48H725.012Z" fill="black"></path><path d="M44.6124 75V69.75H49.8624V59.25H44.6124V54H65.6124V59.25H60.3624V64.5H65.6124V75H44.6124Z" fill="black"></path><path d="M66.9774 75V69.75H77.4774V64.5H87.9774V75H66.9774ZM66.9774 64.5V59.25H72.2274V54H87.9774V59.25H77.4774V64.5H66.9774Z" fill="black"></path><path d="M95.9574 75V69.75H101.207V59.25H95.9574V54H116.957V59.25H111.707V64.5H116.957V75H95.9574Z" fill="black"></path><path d="M118.322 75V54H128.822V64.5H123.572V75H118.322ZM134.072 75V69.75H128.822V64.5H134.072V54H139.322V75H134.072Z" fill="black"></path><path d="M152.552 75V59.25H147.302V54H168.302V59.25H163.052V69.75H157.802V75H152.552Z" fill="black"></path><path d="M169.667 75V54H174.917V64.5H185.417V54H190.667V75H185.417V69.75H180.167V75H169.667Z" fill="black"></path><path d="M192.032 75V54H213.032V64.5H207.782V59.25H197.282V64.5H202.532V69.75H213.032V75H192.032Z" fill="black"></path><path d="M226.262 75V69.75H221.012V54H226.262V59.25H231.512V69.75H236.762V75H226.262ZM236.762 69.75V54H242.012V69.75H236.762Z" fill="black"></path><path d="M243.377 75V54H264.377V64.5H259.127V59.25H248.627V64.5H253.877V69.75H264.377V75H243.377Z" fill="black"></path><path d="M281.492 75V69.75H286.742V75H281.492ZM265.742 75V54H286.742V64.5H281.492V59.25H270.992V64.5H281.492V69.75H276.242V75H265.742Z" fill="black"></path><path d="M303.857 69.75V64.5H298.607V59.25H293.357V64.5H298.607V69.75H303.857ZM288.107 75V54H303.857V59.25H309.107V75H288.107Z" fill="black"></path><path d="M310.472 75V69.75H320.972V64.5H331.472V75H310.472ZM310.472 64.5V59.25H315.722V54H331.472V59.25H320.972V64.5H310.472Z" fill="black"></path><path d="M339.452 75V59.25H344.702V54H360.452V75H355.202V69.75H349.952V64.5H355.202V59.25H349.952V64.5H344.702V69.75H349.952V75H339.452Z" fill="black"></path><path d="M361.817 75V54H372.317V64.5H367.067V75H361.817ZM377.567 75V69.75H372.317V64.5H377.567V54H382.817V75H377.567Z" fill="black"></path><path d="M384.182 75V54H399.932V59.25H389.432V64.5H394.682V69.75H399.932V59.25H405.182V75H384.182Z" fill="black"></path><path d="M413.162 75V59.25H418.412V54H434.162V75H428.912V69.75H423.662V64.5H428.912V59.25H423.662V64.5H418.412V69.75H423.662V75H413.162Z" fill="black"></path><path d="M435.527 75V54H451.277V59.25H440.777V64.5H446.027V69.75H451.277V59.25H456.527V75H435.527Z" fill="black"></path><path d="M457.892 75V64.5H463.142V69.75H468.392V64.5H473.642V59.25H457.892V54H478.892V75H457.892Z" fill="black"></path><path d="M480.257 75V54H501.257V64.5H496.007V59.25H485.507V64.5H490.757V69.75H501.257V75H480.257Z" fill="black"></path><path d="M502.622 75V54H523.622V59.25H507.872V64.5H513.122V69.75H523.622V75H502.622Z" fill="black"></path><path d="M530.237 75V59.25H524.987V54H545.987V59.25H540.737V69.75H535.487V75H530.237Z" fill="black"></path><path d="M547.352 75V69.75H552.602V59.25H547.352V54H568.352V59.25H563.102V64.5H568.352V75H547.352Z" fill="black"></path><path d="M574.967 75V69.75H569.717V54H574.967V59.25H580.217V69.75H585.467V75H574.967ZM585.467 69.75V54H590.717V69.75H585.467Z" fill="black"></path><path d="M592.082 75V54H613.082V64.5H607.832V59.25H597.332V64.5H602.582V69.75H613.082V75H592.082Z" fill="black"></path><path d="M614.447 75V69.75H624.947V64.5H635.447V75H614.447ZM614.447 64.5V59.25H619.697V54H635.447V59.25H624.947V64.5H614.447Z" fill="black"></path><path d="M636.812 80.25V75H642.062V80.25H636.812ZM642.062 75V69.75H647.312V75H642.062Z" fill="black"></path><path d="M671.042 69.75V64.5H665.792V59.25H660.542V64.5H665.792V69.75H671.042ZM655.292 75V54H671.042V59.25H676.292V75H655.292Z" fill="black"></path><path d="M677.657 75V54H682.907V64.5H688.157V69.75H693.407V75H677.657ZM693.407 69.75V54H698.657V69.75H693.407Z" fill="black"></path><path d="M705.272 75V59.25H700.022V54H721.022V59.25H715.772V69.75H710.522V75H705.272Z" fill="black"></path><path d="M7.75745 102V86.25H2.50745V81H23.5074V86.25H18.2574V96.75H13.0074V102H7.75745Z" fill="black"></path><path d="M24.8724 102V81H30.1224V91.5H40.6224V81H45.8724V102H40.6224V96.75H35.3724V102H24.8724Z" fill="black"></path><path d="M47.2374 102V81H68.2374V91.5H62.9874V86.25H52.4874V91.5H57.7374V96.75H68.2374V102H47.2374Z" fill="black"></path><path d="M85.3524 102V96.75H90.6024V102H85.3524ZM69.6024 102V81H90.6024V91.5H85.3524V86.25H74.8524V91.5H85.3524V96.75H80.1024V102H69.6024Z" fill="black"></path><path d="M91.9674 102V81H112.967V91.5H107.717V86.25H97.2174V91.5H102.467V96.75H112.967V102H91.9674Z" fill="black"></path><path d="M120.947 102V86.25H126.197V81H141.947V102H136.697V96.75H131.447V91.5H136.697V86.25H131.447V91.5H126.197V96.75H131.447V102H120.947Z" fill="black"></path><path d="M159.062 102V96.75H164.312V102H159.062ZM143.312 102V81H164.312V91.5H159.062V86.25H148.562V91.5H159.062V96.75H153.812V102H143.312Z" fill="black"></path><path d="M165.677 102V81H186.677V91.5H181.427V86.25H170.927V91.5H176.177V96.75H186.677V102H165.677Z" fill="black"></path><path d="M194.657 102V81H199.907V91.5H210.407V81H215.657V102H210.407V96.75H205.157V102H194.657Z" fill="black"></path><path d="M217.022 102V81H222.272V91.5H227.522V96.75H232.772V102H217.022ZM232.772 96.75V81H238.022V96.75H232.772Z" fill="black"></path><path d="M239.387 102V81H249.887V91.5H244.637V102H239.387ZM255.137 102V96.75H249.887V91.5H255.137V81H260.387V102H255.137Z" fill="black"></path><path d="M261.752 102V81H277.502V86.25H267.002V91.5H272.252V96.75H277.502V86.25H282.752V102H261.752Z" fill="black"></path><path d="M299.867 102V96.75H305.117V102H299.867ZM284.117 102V81H305.117V91.5H299.867V86.25H289.367V91.5H299.867V96.75H294.617V102H284.117Z" fill="black"></path><path d="M306.482 102V81H327.482V91.5H322.232V86.25H311.732V91.5H316.982V96.75H327.482V102H306.482Z" fill="black"></path><path d="M328.847 102V81H344.597V86.25H334.097V91.5H339.347V96.75H344.597V86.25H349.847V102H328.847Z" fill="black"></path><path d="M351.212 102V96.75H361.712V91.5H372.212V102H351.212ZM351.212 91.5V86.25H356.462V81H372.212V86.25H361.712V91.5H351.212Z" fill="black"></path><path d="M395.942 96.75V86.25H385.442V91.5H390.692V96.75H395.942ZM380.192 102V81H401.192V102H380.192Z" fill="black"></path><path d="M402.557 102V81H423.557V86.25H407.807V91.5H418.307V96.75H413.057V102H402.557Z" fill="black"></path><path d="M431.537 102V81H442.037V91.5H436.787V102H431.537ZM447.287 102V96.75H442.037V91.5H447.287V81H452.537V102H447.287Z" fill="black"></path><path d="M469.652 96.75V86.25H459.152V91.5H464.402V96.75H469.652ZM453.902 102V81H474.902V102H453.902Z" fill="black"></path><path d="M476.267 102V81H481.517V91.5H486.767V96.75H492.017V102H476.267ZM492.017 96.75V81H497.267V96.75H492.017Z" fill="black"></path><path d="M498.632 102V81H509.132V91.5H503.882V102H498.632ZM514.382 102V96.75H509.132V91.5H514.382V81H519.632V102H514.382Z" fill="black"></path><path d="M520.997 102V96.75H531.497V91.5H541.997V102H520.997ZM520.997 91.5V86.25H526.247V81H541.997V86.25H531.497V91.5H520.997Z" fill="black"></path><path d="M555.227 102V86.25H549.977V81H570.977V86.25H565.727V96.75H560.477V102H555.227Z" fill="black"></path><path d="M572.342 102V81H577.592V91.5H588.092V81H593.342V102H588.092V96.75H582.842V102H572.342Z" fill="black"></path><path d="M594.707 102V86.25H599.957V81H615.707V102H610.457V96.75H605.207V91.5H610.457V86.25H605.207V91.5H599.957V96.75H605.207V102H594.707Z" fill="black"></path><path d="M622.322 102V86.25H617.072V81H638.072V86.25H632.822V96.75H627.572V102H622.322Z" fill="black"></path><path d="M646.052 102V81H667.052V86.25H651.302V91.5H656.552V96.75H667.052V102H646.052Z" fill="black"></path><path d="M668.417 102V86.25H673.667V81H689.417V102H684.167V96.75H678.917V91.5H684.167V86.25H678.917V91.5H673.667V96.75H678.917V102H668.417Z" fill="black"></path><path d="M690.782 102V81H701.282V91.5H696.032V102H690.782ZM706.532 102V96.75H701.282V91.5H706.532V81H711.782V102H706.532Z" fill="black"></path><path d="M735.512 96.75V91.5H730.262V86.25H725.012V91.5H730.262V96.75H735.512ZM719.762 102V81H735.512V86.25H740.762V102H719.762Z" fill="black"></path><path d="M742.127 102V81H763.127V91.5H757.877V86.25H747.377V91.5H752.627V96.75H763.127V102H742.127Z" fill="black"></path><path d="M48.7538 129V108H69.7538V113.25H54.0038V123.75H59.2538V118.5H69.7538V129H48.7538Z" fill="black"></path><path d="M86.8688 123.75V113.25H76.3688V118.5H81.6188V123.75H86.8688ZM71.1188 129V108H92.1188V129H71.1188Z" fill="black"></path><path d="M98.7338 129V113.25H93.4838V108H114.484V113.25H109.234V123.75H103.984V129H98.7338Z" fill="black"></path><path d="M138.214 129V123.75H143.464V129H138.214ZM122.464 129V108H143.464V118.5H138.214V113.25H127.714V118.5H138.214V123.75H132.964V129H122.464Z" fill="black"></path><path d="M144.829 129V123.75H150.079V113.25H144.829V108H165.829V113.25H160.579V118.5H165.829V129H144.829Z" fill="black"></path><path d="M167.194 129V108H182.944V113.25H172.444V118.5H177.694V123.75H182.944V113.25H188.194V129H167.194Z" fill="black"></path><path d="M211.924 123.75V113.25H201.424V118.5H206.674V123.75H211.924ZM196.174 129V108H217.174V129H196.174Z" fill="black"></path><path d="M218.539 129V108H239.539V113.25H223.789V118.5H234.289V123.75H229.039V129H218.539Z" fill="black"></path><path d="M247.519 129V113.25H252.769V108H268.519V129H263.269V123.75H258.019V118.5H263.269V113.25H258.019V118.5H252.769V123.75H258.019V129H247.519Z" fill="black"></path><path d="M269.884 129V123.75H280.384V118.5H290.884V129H269.884ZM269.884 118.5V113.25H275.134V108H290.884V113.25H280.384V118.5H269.884Z" fill="black"></path><path d="M309.364 118.5V113.25H314.614V118.5H309.364ZM298.864 129V108H304.114V118.5H309.364V123.75H304.114V129H298.864ZM314.614 129V118.5H319.864V108H325.114V129H314.614Z" fill="black"></path><path d="M326.479 129V108H347.479V118.5H342.229V113.25H331.729V118.5H336.979V123.75H347.479V129H326.479Z" fill="black"></path><path d="M348.844 129V108H354.094V123.75H359.344V118.5H369.844V129H348.844Z" fill="black"></path><path d="M371.209 129V108H376.459V123.75H381.709V118.5H392.209V129H371.209Z" fill="black"></path><path d="M393.574 129V123.75H398.824V129H393.574Z" fill="black"></path><path d="M406.804 129V123.75H412.054V113.25H406.804V108H427.804V113.25H422.554V118.5H427.804V129H406.804Z" fill="black"></path><path d="M434.419 129V113.25H429.169V108H450.169V113.25H444.919V123.75H439.669V129H434.419Z" fill="black"></path><path d="M458.149 129V123.75H463.399V113.25H458.149V108H479.149V113.25H473.899V118.5H479.149V129H458.149Z" fill="black"></path><path d="M480.514 129V123.75H491.014V118.5H501.514V129H480.514ZM480.514 118.5V113.25H485.764V108H501.514V113.25H491.014V118.5H480.514Z" fill="black"></path><path d="M502.879 129V108H513.379V118.5H508.129V129H502.879ZM518.629 129V123.75H513.379V118.5H518.629V108H523.879V129H518.629Z" fill="black"></path><path d="M528.607 114.009L528.187 119.423H527.028L526.608 114.009H528.607Z" fill="black"></path><path d="M531.346 129V113.25H526.096V108H547.096V113.25H541.846V123.75H536.596V129H531.346Z" fill="black"></path><path d="M570.826 123.75V113.25H560.326V118.5H565.576V123.75H570.826ZM555.076 129V108H576.076V129H555.076Z" fill="black"></path><path d="M577.441 129V108H587.941V118.5H582.691V129H577.441ZM593.191 129V123.75H587.941V118.5H593.191V108H598.441V129H593.191Z" fill="black"></path><path d="M599.806 129V108H605.056V123.75H610.306V118.5H620.806V129H599.806Z" fill="black"></path><path d="M622.171 118.5V108H627.421V118.5H622.171ZM632.671 129V123.75H627.421V118.5H637.921V108H643.171V123.75H637.921V129H632.671Z" fill="black"></path><path d="M656.401 129V113.25H651.151V108H672.151V113.25H666.901V123.75H661.651V129H656.401Z" fill="black"></path><path d="M673.516 129V108H678.766V118.5H689.266V108H694.516V129H689.266V123.75H684.016V129H673.516Z" fill="black"></path><path d="M695.881 129V108H716.881V118.5H711.631V113.25H701.131V118.5H706.381V123.75H716.881V129H695.881Z" fill="black"></path><path d="M5.81494 156V150.75H16.3149V145.5H26.8149V156H5.81494ZM5.81494 145.5V140.25H11.0649V135H26.8149V140.25H16.3149V145.5H5.81494Z" fill="black"></path><path d="M28.1799 145.5V135H33.4299V145.5H28.1799ZM38.6799 156V150.75H33.4299V145.5H43.9299V135H49.1799V150.75H43.9299V156H38.6799Z" fill="black"></path><path d="M50.5449 156V135H61.0449V145.5H55.7949V156H50.5449ZM66.2949 156V150.75H61.0449V145.5H66.2949V135H71.5449V156H66.2949Z" fill="black"></path><path d="M88.6599 150.75V140.25H78.1599V145.5H83.4099V150.75H88.6599ZM72.9099 156V135H93.9099V156H72.9099Z" fill="black"></path><path d="M95.2749 156V135H105.775V145.5H100.525V156H95.2749ZM111.025 156V150.75H105.775V145.5H111.025V135H116.275V156H111.025Z" fill="black"></path><path d="M117.64 145.5V135H122.89V145.5H117.64ZM128.14 156V150.75H122.89V145.5H133.39V135H138.64V150.75H133.39V156H128.14Z" fill="black"></path><path d="M150.505 150.75V145.5H155.755V150.75H150.505ZM140.005 156V135H150.505V145.5H145.255V156H140.005ZM161.005 156V145.5H155.755V140.25H161.005V135H166.255V156H161.005Z" fill="black"></path><path d="M167.62 156V150.75H178.12V145.5H188.62V156H167.62ZM167.62 145.5V140.25H172.87V135H188.62V140.25H178.12V145.5H167.62Z" fill="black"></path><path d="M189.985 161.25V156H195.235V161.25H189.985ZM195.235 156V150.75H200.485V156H195.235ZM195.235 145.5V140.25H200.485V145.5H195.235Z" fill="black"></path><path d="M213.715 156V140.25H208.465V135H229.465V140.25H224.215V150.75H218.965V156H213.715Z" fill="black"></path><path d="M230.83 156V135H236.08V145.5H246.58V135H251.83V156H246.58V150.75H241.33V156H230.83Z" fill="black"></path><path d="M253.195 156V135H274.195V145.5H268.945V140.25H258.445V145.5H263.695V150.75H274.195V156H253.195Z" fill="black"></path><path d="M291.31 156V150.75H296.56V156H291.31ZM275.56 156V135H296.56V145.5H291.31V140.25H280.81V145.5H291.31V150.75H286.06V156H275.56Z" fill="black"></path><path d="M297.925 156V135H318.925V145.5H313.675V140.25H303.175V145.5H308.425V150.75H318.925V156H297.925Z" fill="black"></path><path d="M326.905 156V140.25H332.155V135H347.905V156H342.655V150.75H337.405V145.5H342.655V140.25H337.405V145.5H332.155V150.75H337.405V156H326.905Z" fill="black"></path><path d="M365.02 156V150.75H370.27V156H365.02ZM349.27 156V135H370.27V145.5H365.02V140.25H354.52V145.5H365.02V150.75H359.77V156H349.27Z" fill="black"></path><path d="M371.635 156V135H392.635V145.5H387.385V140.25H376.885V145.5H382.135V150.75H392.635V156H371.635Z" fill="black"></path><path d="M400.615 156V140.25H405.865V135H421.615V156H416.365V150.75H411.115V145.5H416.365V140.25H411.115V145.5H405.865V150.75H411.115V156H400.615Z" fill="black"></path><path d="M422.98 156V135H428.23V150.75H433.48V145.5H443.98V156H422.98Z" fill="black"></path><path d="M445.345 156V150.75H455.845V145.5H466.345V156H445.345ZM445.345 145.5V140.25H450.595V135H466.345V140.25H455.845V145.5H445.345Z" fill="black"></path><path d="M483.46 150.75V140.25H472.96V145.5H478.21V150.75H483.46ZM467.71 156V135H488.71V156H467.71Z" fill="black"></path><path d="M501.94 156V140.25H496.69V135H517.69V140.25H512.44V150.75H507.19V156H501.94Z" fill="black"></path><path d="M519.055 156V135H524.305V145.5H534.805V135H540.055V156H534.805V150.75H529.555V156H519.055Z" fill="black"></path><path d="M541.42 156V135H562.42V145.5H557.17V140.25H546.67V145.5H551.92V150.75H562.42V156H541.42Z" fill="black"></path><path d="M570.4 156V140.25H575.65V135H591.4V156H586.15V150.75H580.9V145.5H586.15V140.25H580.9V145.5H575.65V150.75H580.9V156H570.4Z" fill="black"></path><path d="M592.765 156V135H603.265V145.5H598.015V156H592.765ZM608.515 156V150.75H603.265V145.5H608.515V135H613.765V156H608.515Z" fill="black"></path><path d="M620.38 156V140.25H615.13V135H636.13V140.25H630.88V150.75H625.63V156H620.38Z" fill="black"></path><path d="M653.245 150.75V140.25H642.745V145.5H647.995V150.75H653.245ZM637.495 156V135H658.495V156H637.495Z" fill="black"></path><path d="M659.86 156V135H670.36V145.5H665.11V156H659.86ZM675.61 156V150.75H670.36V145.5H675.61V135H680.86V156H675.61Z" fill="black"></path><path d="M682.225 145.5V135H687.475V145.5H682.225ZM692.725 156V150.75H687.475V145.5H697.975V135H703.225V150.75H697.975V156H692.725Z" fill="black"></path><path d="M715.09 150.75V145.5H720.34V150.75H715.09ZM704.59 156V135H715.09V145.5H709.84V156H704.59ZM725.59 156V145.5H720.34V140.25H725.59V135H730.84V156H725.59Z" fill="black"></path><path d="M732.205 156V150.75H742.705V145.5H753.205V156H732.205ZM732.205 145.5V140.25H737.455V135H753.205V140.25H742.705V145.5H732.205Z" fill="black"></path><path d="M754.57 156V150.75H759.82V156H754.57Z" fill="black"></path><path d="M0.564941 183V167.25H5.81494V162H21.5649V183H16.3149V177.75H11.0649V172.5H16.3149V167.25H11.0649V172.5H5.81494V177.75H11.0649V183H0.564941Z" fill="black"></path><path d="M22.9299 183V162H43.9299V167.25H28.1799V172.5H38.6799V177.75H33.4299V183H22.9299Z" fill="black"></path><path d="M50.5449 183V167.25H45.2949V162H66.2949V167.25H61.0449V177.75H55.7949V183H50.5449Z" fill="black"></path><path d="M67.6599 183V162H88.6599V172.5H83.4099V167.25H72.9099V172.5H78.1599V177.75H88.6599V183H67.6599Z" fill="black"></path><path d="M105.775 183V177.75H111.025V183H105.775ZM90.0249 183V162H111.025V172.5H105.775V167.25H95.2749V172.5H105.775V177.75H100.525V183H90.0249Z" fill="black"></path><path d="M119.005 183V167.25H124.255V162H140.005V183H134.755V177.75H129.505V172.5H134.755V167.25H129.505V172.5H124.255V177.75H129.505V183H119.005Z" fill="black"></path><path d="M141.37 183V162H146.62V177.75H151.87V172.5H162.37V183H141.37Z" fill="black"></path><path d="M163.735 183V162H168.985V177.75H174.235V172.5H184.735V183H163.735Z" fill="black"></path><path d="M186.1 188.25V183H191.35V188.25H186.1ZM191.35 183V177.75H196.6V183H191.35Z" fill="black"></path><path d="M215.08 172.5V167.25H220.33V172.5H215.08ZM204.58 183V162H209.83V172.5H215.08V177.75H209.83V183H204.58ZM220.33 183V172.5H225.58V162H230.83V183H220.33Z" fill="black"></path><path d="M232.195 183V162H237.445V172.5H247.945V162H253.195V183H247.945V177.75H242.695V183H232.195Z" fill="black"></path><path d="M254.56 183V167.25H259.81V162H275.56V183H270.31V177.75H265.06V172.5H270.31V167.25H265.06V172.5H259.81V177.75H265.06V183H254.56Z" fill="black"></path><path d="M282.175 183V167.25H276.925V162H297.925V167.25H292.675V177.75H287.425V183H282.175Z" fill="black"></path><path d="M305.905 183V172.5H311.155V177.75H316.405V172.5H321.655V167.25H305.905V162H326.905V183H305.905Z" fill="black"></path><path d="M328.27 183V162H333.52V172.5H338.77V177.75H344.02V183H328.27ZM344.02 177.75V162H349.27V177.75H344.02Z" fill="black"></path><path d="M350.635 183V177.75H361.135V172.5H371.635V183H350.635ZM350.635 172.5V167.25H355.885V162H371.635V167.25H361.135V172.5H350.635Z" fill="black"></path><path d="M378.25 183V167.25H373V162H394V167.25H388.75V177.75H383.5V183H378.25Z" fill="black"></path><path d="M395.365 183V177.75H400.615V167.25H395.365V162H416.365V167.25H411.115V172.5H416.365V183H395.365Z" fill="black"></path><path d="M417.73 183V162H438.73V167.25H422.98V172.5H433.48V177.75H428.23V183H417.73Z" fill="black"></path><path d="M440.095 183V177.75H445.345V167.25H440.095V162H461.095V167.25H455.845V172.5H461.095V183H440.095Z" fill="black"></path><path d="M462.46 183V162H483.46V167.25H467.71V172.5H472.96V177.75H483.46V183H462.46Z" fill="black"></path><path d="M484.825 183V167.25H490.075V162H505.825V183H500.575V177.75H495.325V172.5H500.575V167.25H495.325V172.5H490.075V177.75H495.325V183H484.825Z" fill="black"></path><path d="M512.44 183V167.25H507.19V162H528.19V167.25H522.94V177.75H517.69V183H512.44Z" fill="black"></path><path d="M529.555 183V177.75H534.805V167.25H529.555V162H550.555V167.25H545.305V172.5H550.555V183H529.555Z" fill="black"></path><path d="M567.67 177.75V167.25H557.17V172.5H562.42V177.75H567.67ZM551.92 183V162H572.92V183H551.92Z" fill="black"></path><path d="M574.285 183V162H584.785V172.5H579.535V183H574.285ZM590.035 183V177.75H584.785V172.5H590.035V162H595.285V183H590.035Z" fill="black"></path><path d="M603.265 183V177.75H608.515V167.25H603.265V162H624.265V167.25H619.015V172.5H624.265V183H603.265Z" fill="black"></path><path d="M625.63 183V177.75H636.13V172.5H646.63V183H625.63ZM625.63 172.5V167.25H630.88V162H646.63V167.25H636.13V172.5H625.63Z" fill="black"></path><path d="M659.86 183V167.25H654.61V162H675.61V167.25H670.36V177.75H665.11V183H659.86Z" fill="black"></path><path d="M676.975 183V162H682.225V172.5H692.725V162H697.975V183H692.725V177.75H687.475V183H676.975Z" fill="black"></path><path d="M699.34 183V162H720.34V172.5H715.09V167.25H704.59V172.5H709.84V177.75H720.34V183H699.34Z" fill="black"></path><path d="M737.455 183V177.75H742.705V183H737.455ZM721.705 183V162H742.705V172.5H737.455V167.25H726.955V172.5H737.455V177.75H732.205V183H721.705Z" fill="black"></path><path d="M744.07 183V162H765.07V172.5H759.82V167.25H749.32V172.5H754.57V177.75H765.07V183H744.07Z" fill="black"></path><path d="M81.4674 210V189H102.467V194.25H86.7174V199.5H97.2174V204.75H91.9674V210H81.4674Z" fill="black"></path><path d="M119.582 204.75V194.25H109.082V199.5H114.332V204.75H119.582ZM103.832 210V189H124.832V210H103.832Z" fill="black"></path><path d="M141.947 210V204.75H147.197V210H141.947ZM126.197 210V189H147.197V199.5H141.947V194.25H131.447V199.5H141.947V204.75H136.697V210H126.197Z" fill="black"></path><path d="M155.177 210V194.25H160.427V189H176.177V210H170.927V204.75H165.677V199.5H170.927V194.25H165.677V199.5H160.427V204.75H165.677V210H155.177Z" fill="black"></path><path d="M194.657 199.5V194.25H199.907V199.5H194.657ZM184.157 210V189H189.407V199.5H194.657V204.75H189.407V210H184.157ZM199.907 210V199.5H205.157V189H210.407V210H199.907Z" fill="black"></path><path d="M227.522 204.75V194.25H217.022V199.5H222.272V204.75H227.522ZM211.772 210V189H232.772V210H211.772Z" fill="black"></path><path d="M249.887 210V204.75H255.137V210H249.887ZM234.137 210V189H255.137V199.5H249.887V194.25H239.387V199.5H249.887V204.75H244.637V210H234.137Z" fill="black"></path><path d="M256.502 210V189H272.252V194.25H261.752V199.5H267.002V204.75H272.252V194.25H277.502V210H256.502Z" fill="black"></path><path d="M278.867 215.25V210H284.117V215.25H278.867ZM284.117 210V204.75H289.367V210H284.117Z" fill="black"></path><path d="M307.847 199.5V194.25H313.097V199.5H307.847ZM297.347 210V189H302.597V199.5H307.847V204.75H302.597V210H297.347ZM313.097 210V199.5H318.347V189H323.597V210H313.097Z" fill="black"></path><path d="M324.962 210V189H330.212V199.5H340.712V189H345.962V210H340.712V204.75H335.462V210H324.962Z" fill="black"></path><path d="M347.327 210V204.75H352.577V194.25H347.327V189H368.327V194.25H363.077V199.5H368.327V210H347.327Z" fill="black"></path><path d="M369.692 210V189H390.692V194.25H374.942V199.5H380.192V204.75H390.692V210H369.692Z" fill="black"></path><path d="M392.057 210V189H397.307V199.5H407.807V189H413.057V210H407.807V204.75H402.557V210H392.057Z" fill="black"></path><path d="M421.037 210V204.75H426.287V194.25H421.037V189H442.037V194.25H436.787V199.5H442.037V210H421.037Z" fill="black"></path><path d="M443.402 210V204.75H453.902V199.5H464.402V210H443.402ZM443.402 199.5V194.25H448.652V189H464.402V194.25H453.902V199.5H443.402Z" fill="black"></path><path d="M472.382 210V204.75H482.882V199.5H493.382V210H472.382ZM472.382 199.5V194.25H477.632V189H493.382V194.25H482.882V199.5H472.382Z" fill="black"></path><path d="M494.747 210V204.75H499.997V194.25H494.747V189H515.747V194.25H510.497V199.5H515.747V210H494.747Z" fill="black"></path><path d="M527.612 204.75V199.5H532.862V204.75H527.612ZM517.112 210V189H527.612V199.5H522.362V210H517.112ZM538.112 210V199.5H532.862V194.25H538.112V189H543.362V210H538.112Z" fill="black"></path><path d="M544.727 210V194.25H549.977V199.5H560.477V194.25H549.977V189H565.727V204.75H555.227V210H544.727Z" fill="black"></path><path d="M567.092 210V189H572.342V204.75H577.592V199.5H588.092V210H567.092Z" fill="black"></path><path d="M589.457 199.5V189H594.707V199.5H589.457ZM599.957 210V204.75H594.707V199.5H605.207V189H610.457V204.75H605.207V210H599.957Z" fill="black"></path><path d="M623.687 210V194.25H618.437V189H639.437V194.25H634.187V204.75H628.937V210H623.687Z" fill="black"></path><path d="M640.802 210V189H646.052V199.5H656.552V189H661.802V210H656.552V204.75H651.302V210H640.802Z" fill="black"></path><path d="M663.167 210V189H684.167V199.5H678.917V194.25H668.417V199.5H673.667V204.75H684.167V210H663.167Z" fill="black"></path><path d="M49.8624 231.75V221.25H39.3624V226.5H44.6124V231.75H49.8624ZM34.1124 237V216H55.1124V237H34.1124Z" fill="black"></path><path d="M56.4774 237V221.25H61.7274V226.5H72.2274V221.25H61.7274V216H77.4774V231.75H66.9774V237H56.4774Z" fill="black"></path><path d="M78.8424 237V221.25H84.0924V226.5H94.5924V221.25H84.0924V216H99.8424V231.75H89.3424V237H78.8424Z" fill="black"></path><path d="M116.957 231.75V221.25H106.457V226.5H111.707V231.75H116.957ZM101.207 237V216H122.207V237H101.207Z" fill="black"></path><path d="M123.572 237V231.75H134.072V226.5H144.572V237H123.572ZM123.572 226.5V221.25H128.822V216H144.572V221.25H134.072V226.5H123.572Z" fill="black"></path><path d="M145.937 237V231.75H151.187V221.25H145.937V216H166.937V221.25H161.687V226.5H166.937V237H145.937Z" fill="black"></path><path d="M173.552 237V221.25H168.302V216H189.302V221.25H184.052V231.75H178.802V237H173.552Z" fill="black"></path><path d="M190.667 237V216H211.667V226.5H206.417V221.25H195.917V226.5H201.167V231.75H211.667V237H190.667Z" fill="black"></path><path d="M235.397 231.75V221.25H224.897V226.5H230.147V231.75H235.397ZM219.647 237V216H240.647V237H219.647Z" fill="black"></path><path d="M242.012 237V216H263.012V221.25H247.262V226.5H257.762V231.75H252.512V237H242.012Z" fill="black"></path><path d="M270.992 237V231.75H281.492V226.5H291.992V237H270.992ZM270.992 226.5V221.25H276.242V216H291.992V221.25H281.492V226.5H270.992Z" fill="black"></path><path d="M309.107 231.75V221.25H298.607V226.5H303.857V231.75H309.107ZM293.357 237V216H314.357V237H293.357Z" fill="black"></path><path d="M326.222 231.75V226.5H331.472V231.75H326.222ZM315.722 237V216H326.222V226.5H320.972V237H315.722ZM336.722 237V226.5H331.472V221.25H336.722V216H341.972V237H336.722Z" fill="black"></path><path d="M343.337 237V216H364.337V226.5H359.087V221.25H348.587V226.5H353.837V231.75H364.337V237H343.337Z" fill="black"></path><path d="M388.067 231.75V221.25H377.567V226.5H382.817V231.75H388.067ZM372.317 237V216H393.317V237H372.317Z" fill="black"></path><path d="M399.932 237V221.25H394.682V216H415.682V221.25H410.432V231.75H405.182V237H399.932Z" fill="black"></path><path d="M417.047 237V216H422.297V226.5H432.797V216H438.047V237H432.797V231.75H427.547V237H417.047Z" fill="black"></path><path d="M439.412 237V216H460.412V226.5H455.162V221.25H444.662V226.5H449.912V231.75H460.412V237H439.412Z" fill="black"></path><path d="M477.527 237V231.75H482.777V237H477.527ZM461.777 237V216H482.777V226.5H477.527V221.25H467.027V226.5H477.527V231.75H472.277V237H461.777Z" fill="black"></path><path d="M501.257 226.5V221.25H506.507V226.5H501.257ZM490.757 237V216H496.007V226.5H501.257V231.75H496.007V237H490.757ZM506.507 237V226.5H511.757V216H517.007V237H506.507Z" fill="black"></path><path d="M534.122 231.75V221.25H523.622V226.5H528.872V231.75H534.122ZM518.372 237V216H539.372V237H518.372Z" fill="black"></path><path d="M556.487 237V231.75H561.737V237H556.487ZM540.737 237V216H561.737V226.5H556.487V221.25H545.987V226.5H556.487V231.75H551.237V237H540.737Z" fill="black"></path><path d="M563.102 237V216H578.852V221.25H568.352V226.5H573.602V231.75H578.852V221.25H584.102V237H563.102Z" fill="black"></path><path d="M585.467 237V231.75H590.717V237H585.467ZM590.717 231.75V226.5H595.967V221.25H585.467V216H601.217V231.75H590.717Z" fill="black"></path><path d="M609.197 237V221.25H614.447V216H630.197V237H624.947V231.75H619.697V226.5H624.947V221.25H619.697V226.5H614.447V231.75H619.697V237H609.197Z" fill="black"></path><path d="M648.677 226.5V221.25H653.927V226.5H648.677ZM638.177 237V216H643.427V226.5H648.677V231.75H643.427V237H638.177ZM653.927 237V226.5H659.177V216H664.427V237H653.927Z" fill="black"></path><path d="M681.542 231.75V221.25H671.042V226.5H676.292V231.75H681.542ZM665.792 237V216H686.792V237H665.792Z" fill="black"></path><path d="M703.907 237V231.75H709.157V237H703.907ZM688.157 237V216H709.157V226.5H703.907V221.25H693.407V226.5H703.907V231.75H698.657V237H688.157Z" fill="black"></path><path d="M710.522 237V216H726.272V221.25H715.772V226.5H721.022V231.75H726.272V221.25H731.522V237H710.522Z" fill="black"></path><path d="M63.0924 264V243H84.0924V248.25H68.3424V253.5H73.5924V258.75H84.0924V264H63.0924Z" fill="black"></path><path d="M101.207 258.75V248.25H90.7074V253.5H95.9574V258.75H101.207ZM85.4574 264V243H106.457V264H85.4574Z" fill="black"></path><path d="M107.822 264V243H118.322V253.5H113.072V264H107.822ZM123.572 264V258.75H118.322V253.5H123.572V243H128.822V264H123.572Z" fill="black"></path><path d="M135.437 264V248.25H130.187V243H151.187V248.25H145.937V258.75H140.687V264H135.437Z" fill="black"></path><path d="M152.552 264V248.25H157.802V243H173.552V264H168.302V258.75H163.052V253.5H168.302V248.25H163.052V253.5H157.802V258.75H163.052V264H152.552Z" fill="black"></path><path d="M174.917 264V258.75H180.167V248.25H174.917V243H195.917V248.25H190.667V253.5H195.917V264H174.917Z" fill="black"></path><path d="M197.282 264V243H207.782V253.5H202.532V264H197.282ZM213.032 264V258.75H207.782V253.5H213.032V243H218.282V264H213.032Z" fill="black"></path><path d="M219.647 264V258.75H230.147V253.5H240.647V264H219.647ZM219.647 253.5V248.25H224.897V243H240.647V248.25H230.147V253.5H219.647Z" fill="black"></path><path d="M248.627 264V258.75H253.877V248.25H248.627V243H269.627V248.25H264.377V253.5H269.627V264H248.627Z" fill="black"></path><path d="M276.242 264V248.25H270.992V243H291.992V248.25H286.742V258.75H281.492V264H276.242Z" fill="black"></path><path d="M293.357 264V258.75H303.857V253.5H314.357V264H293.357ZM293.357 253.5V248.25H298.607V243H314.357V248.25H303.857V253.5H293.357Z" fill="black"></path><path d="M338.087 258.75V248.25H327.587V253.5H332.837V258.75H338.087ZM322.337 264V243H343.337V264H322.337Z" fill="black"></path><path d="M344.702 264V248.25H349.952V253.5H360.452V248.25H349.952V243H365.702V258.75H355.202V264H344.702Z" fill="black"></path><path d="M367.067 264V248.25H372.317V253.5H382.817V248.25H372.317V243H388.067V258.75H377.567V264H367.067Z" fill="black"></path><path d="M405.182 258.75V248.25H394.682V253.5H399.932V258.75H405.182ZM389.432 264V243H410.432V264H389.432Z" fill="black"></path><path d="M411.797 264V258.75H422.297V253.5H432.797V264H411.797ZM411.797 253.5V248.25H417.047V243H432.797V248.25H422.297V253.5H411.797Z" fill="black"></path><path d="M434.162 264V258.75H439.412V248.25H434.162V243H455.162V248.25H449.912V253.5H455.162V264H434.162Z" fill="black"></path><path d="M461.777 264V248.25H456.527V243H477.527V248.25H472.277V258.75H467.027V264H461.777Z" fill="black"></path><path d="M478.892 264V243H499.892V253.5H494.642V248.25H484.142V253.5H489.392V258.75H499.892V264H478.892Z" fill="black"></path><path d="M507.872 264V258.75H513.122V248.25H507.872V243H528.872V248.25H523.622V253.5H528.872V264H507.872Z" fill="black"></path><path d="M530.237 264V243H540.737V253.5H535.487V264H530.237ZM545.987 264V258.75H540.737V253.5H545.987V243H551.237V264H545.987Z" fill="black"></path><path d="M559.217 264V258.75H564.467V248.25H559.217V243H580.217V248.25H574.967V253.5H580.217V264H559.217Z" fill="black"></path><path d="M586.832 264V248.25H581.582V243H602.582V248.25H597.332V258.75H592.082V264H586.832Z" fill="black"></path><path d="M603.947 264V258.75H614.447V253.5H624.947V264H603.947ZM603.947 253.5V248.25H609.197V243H624.947V248.25H614.447V253.5H603.947Z" fill="black"></path><path d="M626.312 264V243H647.312V253.5H642.062V248.25H631.562V253.5H636.812V258.75H647.312V264H626.312Z" fill="black"></path><path d="M648.677 264V243H653.927V258.75H659.177V253.5H669.677V264H648.677Z" fill="black"></path><path d="M671.042 264V243H692.042V248.25H676.292V253.5H686.792V258.75H681.542V264H671.042Z" fill="black"></path><path d="M693.407 264V258.75H698.657V264H693.407Z" fill="black"></path></svg> 