<?xml version="1.0" encoding="UTF-8"?> <svg xmlns="http://www.w3.org/2000/svg" width="810" height="118" viewBox="0 0 810 118" fill="none"><path d="M220.968 118H250.452V88.5H220.968V118ZM29.484 29.5H88.452V88.5H58.968V59H29.484V29.5ZM0 118H117.936V0H0V118ZM162 29.5H220.968V59H162V29.5ZM132.516 0V118H191.484V88.5H220.968V59H250.452V0H132.516ZM265.032 0V118H294.516V88.5H324V59H353.484V29.5H324V59H294.516V0H265.032ZM382.968 0V59H353.484V118H412.452V0H382.968ZM427.032 0V118H544.968V88.5H486V59H456.516V29.5H515.484V59H544.968V0H427.032ZM559.548 0V118H677.484V59H618.516V88.5H589.032V0H559.548ZM692.064 0V118H810V59H751.032V88.5H721.548V0H692.064Z" fill="black"></path></svg> 