<?xml version="1.0" encoding="UTF-8"?> <svg xmlns="http://www.w3.org/2000/svg" width="707" height="406" viewBox="0 0 707 406" fill="none"><path d="M60.1001 386V346H40.1001V366H20.1001V386H60.1001ZM0.100098 406V346H20.1001V326H80.1001V406H0.100098Z" fill="black"></path><path d="M85.3001 366V346H105.3V366H85.3001ZM125.3 406V346H105.3V326H145.3V406H125.3Z" fill="black"></path><path d="M150.5 406V386H170.5V406H150.5Z" fill="black"></path><path d="M175.7 406V386H235.7V366H195.7V346H175.7V326H255.7V406H175.7Z" fill="black"></path><path d="M280.9 346V326H300.9V346H280.9ZM300.9 406V386H260.9V346H280.9V366H320.9V326H340.9V406H300.9Z" fill="black"></path><path d="M346.1 406V386H386.1V366H426.1V406H346.1ZM346.1 366V326H426.1V346H386.1V366H346.1Z" fill="black"></path><path d="M431.3 406V386H451.3V406H431.3Z" fill="black"></path><path d="M456.5 406V366H496.5V386H536.5V406H456.5ZM496.5 366V346H456.5V326H536.5V366H496.5Z" fill="black"></path><path d="M581.7 406V386H541.7V346H561.7V366H601.7V346H561.7V326H621.7V406H581.7Z" fill="black"></path><path d="M666.9 406V366H686.9V346H646.9V366H626.9V326H706.9V386H686.9V406H666.9Z" fill="black"></path><path d="M40.46 72V36H76.46V72H40.46ZM112.46 144V36H76.46V0H148.46V144H112.46Z" fill="black"></path><path d="M157.82 144V72H229.82V108H301.82V144H157.82ZM229.82 72V36H157.82V0H301.82V72H229.82Z" fill="black"></path><path d="M311.18 144V108H419.18V72H347.18V36H311.18V0H455.18V144H311.18Z" fill="black"></path><path d="M500.54 36V0H536.54V36H500.54ZM536.54 144V108H464.54V36H500.54V72H572.54V0H608.54V144H536.54Z" fill="black"></path></svg> 