<?xml version="1.0" encoding="UTF-8"?> <svg xmlns="http://www.w3.org/2000/svg" viewBox="0 0 129.9 17.7"><title>counter_white</title><g id="Layer_2" data-name="Layer 2"><g id="Layer_1-2" data-name="Layer 1"><g><path d="M104.7,5.5a3.41,3.41,0,0,0,6-2.2A3.35,3.35,0,0,0,107.3,0a3.55,3.55,0,0,0-2.6,1.2A3.39,3.39,0,0,0,102.1,0a3.55,3.55,0,0,0-2.6,1.2A3,3,0,0,0,97,0a3.37,3.37,0,0,0-3.4,3.4A3.45,3.45,0,0,0,95,6.1a3.45,3.45,0,0,0-1.4,2.7A3.45,3.45,0,0,0,95,11.5a3.45,3.45,0,0,0-1.4,2.7A3.37,3.37,0,0,0,97,17.6a3.55,3.55,0,0,0,2.6-1.2,3.39,3.39,0,0,0,2.6,1.2,3.55,3.55,0,0,0,2.6-1.2,3.4,3.4,0,1,0,2.6-5.6,3.55,3.55,0,0,0-2.6,1.2l-.6-.6a3.45,3.45,0,0,0,1.4-2.7A3.45,3.45,0,0,0,104.2,6Zm-5.1,6.6-.6-.6.6-.6.6.6A1.7,1.7,0,0,0,99.6,12.1Zm0-5.5L99,6l.6-.6.6.6Z" style="fill: #f1ede3"></path><path d="M89.1,0a3.55,3.55,0,0,0-2.6,1.2A3.34,3.34,0,0,0,84,0a3.55,3.55,0,0,0-2.6,1.2,3.41,3.41,0,0,0-6,2.2,3.37,3.37,0,0,0,3.4,3.4,3.55,3.55,0,0,0,2.6-1.2l.6.6a3.45,3.45,0,0,0-1.4,2.7A3.45,3.45,0,0,0,82,11.6a3.45,3.45,0,0,0-1.4,2.7,3.4,3.4,0,0,0,6.8,0A3.45,3.45,0,0,0,86,11.6a3.45,3.45,0,0,0,1.4-2.7A3.45,3.45,0,0,0,86,6.2l.6-.6a3.41,3.41,0,0,0,6-2.2A3.46,3.46,0,0,0,89.1,0Z" style="fill: #f1ede3"></path><path d="M55.1,3.4a3.4,3.4,0,1,0-6.8,0,3.45,3.45,0,0,0,1.4,2.7,3.45,3.45,0,0,0-1.4,2.7,3.45,3.45,0,0,0,1.4,2.7l-.6.6a3.42,3.42,0,0,0-5.2,0l-.6-.6a3.45,3.45,0,0,0,1.4-2.7,3.45,3.45,0,0,0-1.4-2.7,3.45,3.45,0,0,0,1.4-2.7,3.4,3.4,0,0,0-6.8,0,3.45,3.45,0,0,0,1.4,2.7,3.45,3.45,0,0,0-1.4,2.7,3.45,3.45,0,0,0,1.4,2.7,3.45,3.45,0,0,0-1.4,2.7,3.37,3.37,0,0,0,3.4,3.4,3.55,3.55,0,0,0,2.6-1.2,3.42,3.42,0,0,0,5.2,0,3.41,3.41,0,0,0,6-2.2,3.45,3.45,0,0,0-1.4-2.7,3.45,3.45,0,0,0,1.4-2.7,3.45,3.45,0,0,0-1.4-2.7A3.45,3.45,0,0,0,55.1,3.4Z" style="fill: #f1ede3"></path><path d="M74.4,3.4A3.37,3.37,0,0,0,71,0a3.55,3.55,0,0,0-2.6,1.2A3.34,3.34,0,0,0,65.9,0a3.55,3.55,0,0,0-2.6,1.2A3.34,3.34,0,0,0,60.8,0a3.37,3.37,0,0,0-3.4,3.4,3.45,3.45,0,0,0,1.4,2.7,3.45,3.45,0,0,0-1.4,2.7,3.45,3.45,0,0,0,1.4,2.7,3.45,3.45,0,0,0-1.4,2.7,3.4,3.4,0,0,0,6.8,0,3.45,3.45,0,0,0-1.4-2.7,3.45,3.45,0,0,0,1.4-2.7,3.45,3.45,0,0,0-1.4-2.7l.6-.6A3.39,3.39,0,0,0,66,6.7a3.55,3.55,0,0,0,2.6-1.2l.6.6a3.45,3.45,0,0,0-1.4,2.7,3.45,3.45,0,0,0,1.4,2.7,3.45,3.45,0,0,0-1.4,2.7,3.4,3.4,0,1,0,6.8,0,3.45,3.45,0,0,0-1.4-2.7,3.45,3.45,0,0,0,1.4-2.7A3.66,3.66,0,0,0,73,6.1,3.45,3.45,0,0,0,74.4,3.4Z" style="fill: #f1ede3"></path><path d="M36.1,3.4A3.37,3.37,0,0,0,32.7,0a3.55,3.55,0,0,0-2.6,1.2A3,3,0,0,0,27.7,0a3.55,3.55,0,0,0-2.6,1.2,3.41,3.41,0,0,0-6,2.2,3.45,3.45,0,0,0,1.4,2.7,3.45,3.45,0,0,0-1.4,2.7,3.45,3.45,0,0,0,1.4,2.7,3.45,3.45,0,0,0-1.4,2.7,3.37,3.37,0,0,0,3.4,3.4,3.55,3.55,0,0,0,2.6-1.2,3.39,3.39,0,0,0,2.6,1.2,3.55,3.55,0,0,0,2.6-1.2,3.41,3.41,0,0,0,6-2.2,3.45,3.45,0,0,0-1.4-2.7,3.45,3.45,0,0,0,1.4-2.7,3.45,3.45,0,0,0-1.4-2.7A3.6,3.6,0,0,0,36.1,3.4Zm-11,8.7-.6-.6a3.45,3.45,0,0,0,1.4-2.7,3.45,3.45,0,0,0-1.4-2.7l.6-.6a3.39,3.39,0,0,0,2.6,1.2,3.55,3.55,0,0,0,2.6-1.2l.6.6a3.45,3.45,0,0,0-1.4,2.7,3.45,3.45,0,0,0,1.4,2.7l-.6.6a3.39,3.39,0,0,0-2.6-1.2A2.85,2.85,0,0,0,25.1,12.1Z" style="fill: #f1ede3"></path><path d="M5.9,5.5a3.42,3.42,0,0,0,5.2,0,3.41,3.41,0,0,0,6-2.2A3.38,3.38,0,0,0,13.6,0,3.55,3.55,0,0,0,11,1.2,3.34,3.34,0,0,0,8.5,0,3.55,3.55,0,0,0,5.9,1.2,3.34,3.34,0,0,0,3.4,0,3.37,3.37,0,0,0,0,3.4,3.45,3.45,0,0,0,1.4,6.1,3.45,3.45,0,0,0,0,8.8a3.45,3.45,0,0,0,1.4,2.7A3.45,3.45,0,0,0,0,14.2a3.37,3.37,0,0,0,3.4,3.4A3.55,3.55,0,0,0,6,16.4a3.42,3.42,0,0,0,5.2,0,3.4,3.4,0,1,0,2.6-5.6A3.55,3.55,0,0,0,11.2,12,3.42,3.42,0,0,0,6,12l-.6-.6A3.45,3.45,0,0,0,6.8,8.7,3.11,3.11,0,0,0,5.3,6.1Z" style="fill: #f1ede3"></path><path d="M126.5,0a3.55,3.55,0,0,0-2.6,1.2,3.42,3.42,0,0,0-5.2,0,3.41,3.41,0,0,0-6,2.2,3.45,3.45,0,0,0,1.4,2.7,3.45,3.45,0,0,0-1.4,2.7,3.45,3.45,0,0,0,1.4,2.7,3.45,3.45,0,0,0-1.4,2.7,3.4,3.4,0,0,0,6.8,0,3.45,3.45,0,0,0-1.4-2.7,3.45,3.45,0,0,0,1.4-2.7,3.45,3.45,0,0,0-1.4-2.7l.6-.6a3.42,3.42,0,0,0,5.2,0,3.41,3.41,0,0,0,6-2.2A3.35,3.35,0,0,0,126.5,0Z" style="fill: #f1ede3"></path></g></g></g></svg> 