<?xml version="1.0" encoding="UTF-8"?> <svg xmlns="http://www.w3.org/2000/svg" width="324" height="324" viewBox="0 0 324 324" fill="none"><path d="M324 8.24017V316.354H280.081V272.435C250.773 304.037 208.638 324 161.745 324C72.6324 324 0 251.283 0 162.255C0 72.6324 72.6324 0 161.66 0C208.553 0 250.688 19.8783 279.996 51.5648V8.24017H324ZM279.996 162.255C279.996 96.6733 226.647 43.9192 161.66 43.9192C96.6733 43.9192 43.9192 96.6733 43.9192 162.255C43.9192 227.242 96.6733 279.996 161.66 279.996C226.732 279.996 279.996 227.327 279.996 162.255ZM229.62 162.255C229.62 199.718 199.123 230.215 161.66 230.215C124.197 230.215 93.7001 199.718 93.7001 162.255C93.7001 124.792 124.197 93.7001 161.66 93.7001C199.123 93.7001 229.62 124.792 229.62 162.255ZM185.701 162.255C185.701 148.748 175.167 137.619 161.66 137.619C148.153 137.619 137.619 148.748 137.619 162.255C137.619 175.167 148.153 186.296 161.66 186.296C175.167 186.296 185.701 175.167 185.701 162.255Z" fill="black"></path></svg> 