<?xml version="1.0" encoding="UTF-8"?> <svg xmlns="http://www.w3.org/2000/svg" width="466" height="92" viewBox="0 0 466 92" fill="none"><path d="M22.8501 16.4C31.1801 16.4 37.9701 9.60998 37.9701 1.27998H32.7201C32.7201 6.73998 28.3101 11.15 22.8501 11.15C17.3901 11.15 12.9801 6.73998 12.9801 1.27998H7.73006V25.43H0.310059V30.68H7.73006V51.75H0.310059V57H27.6101V51.75H12.9801V30.68H27.6101V25.43H12.9801V12.76C15.6401 15 19.0701 16.4 22.8501 16.4Z" fill="black"></path><path d="M53.2065 22.7C58.2465 21.51 61.9565 17.03 61.9565 11.64C61.9565 5.33998 56.8465 0.22998 50.6165 0.22998C44.3165 0.22998 39.2065 5.33998 39.2065 11.64C39.2065 17.03 42.9865 21.51 47.9565 22.7V51.75H39.7665V57H61.6065V51.75H53.2065V22.7ZM44.4565 11.64C44.4565 8.20998 47.1865 5.47998 50.6165 5.47998C53.9765 5.47998 56.7065 8.20998 56.7065 11.64C56.7065 15 53.9765 17.73 50.6165 17.73C47.1865 17.73 44.4565 15 44.4565 11.64Z" fill="black"></path><path d="M96.524 1.27998V24.38H82.454V29.63H96.524V38.59C96.524 46.36 90.224 52.66 82.454 52.66C74.684 52.66 68.314 46.36 68.314 38.59C68.314 30.75 74.684 24.38 82.454 24.38V19.2C71.744 19.2 63.064 27.88 63.064 38.59C63.064 49.23 71.744 57.91 82.454 57.91C87.984 57.91 93.024 55.6 96.524 51.82V57H101.774V1.27998H96.524Z" fill="black"></path><path d="M136.719 37.68H136.789L140.219 25.43H145.959V20.18H136.229L134.689 25.57C132.099 21.72 127.619 19.2 122.579 19.2C114.529 19.2 107.949 25.78 107.949 33.83C107.949 41.04 113.129 46.99 119.989 48.25V52.87C110.539 54.13 103.259 62.25 103.259 72.05C103.259 82.69 111.939 91.37 122.579 91.37C133.289 91.37 141.969 82.69 141.969 72.05C141.969 62.25 134.619 54.13 125.239 52.87V48.25C130.769 47.27 135.319 43.07 136.719 37.68ZM113.199 33.83C113.199 28.65 117.399 24.45 122.579 24.45C127.759 24.45 132.029 28.65 132.029 33.83C132.029 39.01 127.759 43.28 122.579 43.28C117.399 43.28 113.199 39.01 113.199 33.83ZM136.719 72.05C136.719 79.82 130.349 86.12 122.579 86.12C114.809 86.12 108.509 79.82 108.509 72.05C108.509 64.28 114.809 57.91 122.579 57.91C130.349 57.91 136.719 64.28 136.719 72.05ZM114.459 72.05C114.459 76.53 118.099 80.17 122.579 80.17C127.059 80.17 130.699 76.53 130.699 72.05C130.699 67.57 127.059 63.93 122.579 63.93C118.099 63.93 114.459 67.57 114.459 72.05ZM125.449 72.05C125.449 73.59 124.189 74.92 122.579 74.92C121.039 74.92 119.709 73.59 119.709 72.05C119.709 70.44 121.039 69.18 122.579 69.18C124.189 69.18 125.449 70.44 125.449 72.05Z" fill="black"></path><path d="M178.718 57H147.078L147.288 36C147.288 31.38 148.898 27.18 151.768 24.17C154.848 20.95 159.258 19.2 164.508 19.2C168.568 19.2 172.278 20.53 175.148 22.91C178.088 25.36 179.698 28.72 179.698 32.29C179.698 37.12 177.808 40.69 174.028 42.93C171.018 44.82 167.238 45.59 163.598 46.29C160.588 46.92 157.718 47.55 155.618 48.67C154.148 49.44 153.168 50.42 152.748 51.75H178.718V57ZM164.508 24.45C160.728 24.45 157.648 25.64 155.548 27.81C153.588 29.84 152.538 32.71 152.538 36.07L152.468 44.4C152.678 44.26 152.888 44.12 153.168 43.98C155.968 42.51 159.328 41.81 162.548 41.18C170.178 39.64 174.448 38.45 174.448 32.29C174.448 30.33 173.468 28.37 171.718 26.9C169.898 25.36 167.308 24.45 164.508 24.45Z" fill="black"></path><path d="M210.144 20.18H198.804V7.50998H193.554V20.18H182.214V25.43H193.554V57H198.804V25.43H210.144V20.18Z" fill="black"></path><path d="M267.081 1.27998V24.38H253.011V29.63H267.081V38.59C267.081 46.36 260.781 52.66 253.011 52.66C245.241 52.66 238.871 46.36 238.871 38.59C238.871 30.75 245.241 24.38 253.011 24.38V19.2C242.301 19.2 233.621 27.88 233.621 38.59C233.621 49.23 242.301 57.91 253.011 57.91C258.541 57.91 263.581 55.6 267.081 51.82V57H272.331V1.27998H267.081Z" fill="black"></path><path d="M291.644 22.7C296.684 21.51 300.394 17.03 300.394 11.64C300.394 5.33998 295.284 0.22998 289.054 0.22998C282.754 0.22998 277.644 5.33998 277.644 11.64C277.644 17.03 281.424 21.51 286.394 22.7V51.75H278.204V57H300.044V51.75H291.644V22.7ZM282.894 11.64C282.894 8.20998 285.624 5.47998 289.054 5.47998C292.414 5.47998 295.144 8.20998 295.144 11.64C295.144 15 292.414 17.73 289.054 17.73C285.624 17.73 282.894 15 282.894 11.64Z" fill="black"></path><path d="M327.369 55.11C324.849 57.14 322.049 58.12 318.619 58.12C309.799 58.12 302.869 52.1 302.869 44.33H308.329C308.329 49.02 312.879 52.66 318.619 52.66C320.649 52.66 322.539 52.03 323.939 50.91C325.129 49.86 325.829 48.6 325.829 47.27C325.829 43.77 323.939 42.86 317.569 41.6C315.119 41.11 304.549 40.13 304.549 30.05C304.549 27.11 305.879 24.31 308.329 22.21C310.639 20.25 313.719 19.2 317.009 19.2C321.279 19.2 324.919 20.6 327.439 23.26C329.819 25.78 331.149 29.21 331.149 32.99H325.689C325.689 30.54 324.919 28.51 323.519 27.04C321.979 25.5 319.739 24.66 317.009 24.66C315.049 24.66 313.159 25.29 311.829 26.41C310.639 27.39 310.009 28.72 310.009 30.05C310.009 33.55 311.619 34.81 318.689 36.28C321.489 36.84 324.359 37.4 326.739 38.8C329.749 40.62 331.289 43.42 331.289 47.27C331.289 50.28 329.889 53.08 327.369 55.11Z" fill="black"></path><path d="M357.667 19.27C352.137 19.27 347.167 21.58 343.597 25.36V20.18H338.347V75.97H343.597V51.89C347.167 55.6 352.137 57.98 357.667 57.98C368.307 57.98 376.987 49.3 376.987 38.59C376.987 27.95 368.307 19.27 357.667 19.27ZM357.667 52.73C350.247 52.73 344.157 46.99 343.597 39.71V37.54C344.157 30.26 350.247 24.52 357.667 24.52C365.437 24.52 371.737 30.82 371.737 38.59C371.737 46.36 365.437 52.73 357.667 52.73ZM357.667 30.47C353.187 30.47 349.547 34.11 349.547 38.59C349.547 43.07 353.187 46.71 357.667 46.71C362.147 46.71 365.787 43.07 365.787 38.59C365.787 34.11 362.147 30.47 357.667 30.47ZM357.667 41.46C356.057 41.46 354.797 40.2 354.797 38.59C354.797 37.05 356.057 35.72 357.667 35.72C359.277 35.72 360.537 37.05 360.537 38.59C360.537 40.2 359.277 41.46 357.667 41.46Z" fill="black"></path><path d="M400.009 57C395.109 57 390.979 55.88 387.969 53.85C384.399 51.33 382.509 47.48 382.509 42.79L382.439 1.27998H387.689L387.759 42.79C387.759 45.8 388.809 47.97 390.979 49.51C393.079 50.98 396.229 51.75 400.009 51.75V57Z" fill="black"></path><path d="M407.505 20.18V25.43H428.995V34.46C426.335 30.89 422.065 28.58 417.305 28.58C409.885 28.58 402.605 35.16 402.605 43.28C402.605 51.33 409.185 57.91 417.305 57.91C422.065 57.91 426.335 55.6 428.995 52.1V57H434.245V20.18H407.505ZM417.305 52.66C412.055 52.66 407.855 48.46 407.855 43.28C407.855 38.1 412.055 33.83 417.305 33.83C422.485 33.83 426.685 38.1 426.685 43.28C426.685 48.46 422.485 52.66 417.305 52.66Z" fill="black"></path><path d="M455.162 39.78L444.172 20.18H438.152L449.142 39.78H455.162ZM460.412 39.78H465.662V20.18H460.412V39.78ZM455.162 39.78C455.162 39.78 454.742 43.49 453.902 45.17C453.342 46.29 452.642 47.34 451.732 48.25C449.492 50.49 446.482 51.75 443.262 51.75V57C447.882 57 452.222 55.18 455.442 51.96C457.332 50 458.732 47.69 459.572 45.17C460.132 43.49 460.412 41.67 460.412 39.78H455.162Z" fill="black"></path></svg> 